%TF.GenerationSoftware,KiCad,Pcbnew,9.0.3*%
%TF.CreationDate,2025-09-08T18:44:47+08:00*%
%TF.ProjectId,airspeed_BIO,61697273-7065-4656-945f-42494f2e6b69,rev?*%
%TF.SameCoordinates,Original*%
%TF.FileFunction,Legend,Bot*%
%TF.FilePolarity,Positive*%
%FSLAX46Y46*%
G04 Gerber Fmt 4.6, Leading zero omitted, Abs format (unit mm)*
G04 Created by KiCad (PCBNEW 9.0.3) date 2025-09-08 18:44:47*
%MOMM*%
%LPD*%
G01*
G04 APERTURE LIST*
%ADD10C,0.200000*%
%ADD11C,0.120000*%
G04 APERTURE END LIST*
D10*
X112901755Y-97867219D02*
X112901755Y-96867219D01*
X112901755Y-97819600D02*
X112996993Y-97867219D01*
X112996993Y-97867219D02*
X113187469Y-97867219D01*
X113187469Y-97867219D02*
X113282707Y-97819600D01*
X113282707Y-97819600D02*
X113330326Y-97771980D01*
X113330326Y-97771980D02*
X113377945Y-97676742D01*
X113377945Y-97676742D02*
X113377945Y-97391028D01*
X113377945Y-97391028D02*
X113330326Y-97295790D01*
X113330326Y-97295790D02*
X113282707Y-97248171D01*
X113282707Y-97248171D02*
X113187469Y-97200552D01*
X113187469Y-97200552D02*
X112996993Y-97200552D01*
X112996993Y-97200552D02*
X112901755Y-97248171D01*
X112044612Y-97819600D02*
X112139850Y-97867219D01*
X112139850Y-97867219D02*
X112330326Y-97867219D01*
X112330326Y-97867219D02*
X112425564Y-97819600D01*
X112425564Y-97819600D02*
X112473183Y-97724361D01*
X112473183Y-97724361D02*
X112473183Y-97343409D01*
X112473183Y-97343409D02*
X112425564Y-97248171D01*
X112425564Y-97248171D02*
X112330326Y-97200552D01*
X112330326Y-97200552D02*
X112139850Y-97200552D01*
X112139850Y-97200552D02*
X112044612Y-97248171D01*
X112044612Y-97248171D02*
X111996993Y-97343409D01*
X111996993Y-97343409D02*
X111996993Y-97438647D01*
X111996993Y-97438647D02*
X112473183Y-97533885D01*
X111616040Y-97819600D02*
X111520802Y-97867219D01*
X111520802Y-97867219D02*
X111330326Y-97867219D01*
X111330326Y-97867219D02*
X111235088Y-97819600D01*
X111235088Y-97819600D02*
X111187469Y-97724361D01*
X111187469Y-97724361D02*
X111187469Y-97676742D01*
X111187469Y-97676742D02*
X111235088Y-97581504D01*
X111235088Y-97581504D02*
X111330326Y-97533885D01*
X111330326Y-97533885D02*
X111473183Y-97533885D01*
X111473183Y-97533885D02*
X111568421Y-97486266D01*
X111568421Y-97486266D02*
X111616040Y-97391028D01*
X111616040Y-97391028D02*
X111616040Y-97343409D01*
X111616040Y-97343409D02*
X111568421Y-97248171D01*
X111568421Y-97248171D02*
X111473183Y-97200552D01*
X111473183Y-97200552D02*
X111330326Y-97200552D01*
X111330326Y-97200552D02*
X111235088Y-97248171D01*
X110758897Y-97867219D02*
X110758897Y-97200552D01*
X110758897Y-96867219D02*
X110806516Y-96914838D01*
X110806516Y-96914838D02*
X110758897Y-96962457D01*
X110758897Y-96962457D02*
X110711278Y-96914838D01*
X110711278Y-96914838D02*
X110758897Y-96867219D01*
X110758897Y-96867219D02*
X110758897Y-96962457D01*
X109854136Y-97200552D02*
X109854136Y-98010076D01*
X109854136Y-98010076D02*
X109901755Y-98105314D01*
X109901755Y-98105314D02*
X109949374Y-98152933D01*
X109949374Y-98152933D02*
X110044612Y-98200552D01*
X110044612Y-98200552D02*
X110187469Y-98200552D01*
X110187469Y-98200552D02*
X110282707Y-98152933D01*
X109854136Y-97819600D02*
X109949374Y-97867219D01*
X109949374Y-97867219D02*
X110139850Y-97867219D01*
X110139850Y-97867219D02*
X110235088Y-97819600D01*
X110235088Y-97819600D02*
X110282707Y-97771980D01*
X110282707Y-97771980D02*
X110330326Y-97676742D01*
X110330326Y-97676742D02*
X110330326Y-97391028D01*
X110330326Y-97391028D02*
X110282707Y-97295790D01*
X110282707Y-97295790D02*
X110235088Y-97248171D01*
X110235088Y-97248171D02*
X110139850Y-97200552D01*
X110139850Y-97200552D02*
X109949374Y-97200552D01*
X109949374Y-97200552D02*
X109854136Y-97248171D01*
X109377945Y-97200552D02*
X109377945Y-97867219D01*
X109377945Y-97295790D02*
X109330326Y-97248171D01*
X109330326Y-97248171D02*
X109235088Y-97200552D01*
X109235088Y-97200552D02*
X109092231Y-97200552D01*
X109092231Y-97200552D02*
X108996993Y-97248171D01*
X108996993Y-97248171D02*
X108949374Y-97343409D01*
X108949374Y-97343409D02*
X108949374Y-97867219D01*
X107711278Y-97867219D02*
X107711278Y-96867219D01*
X107711278Y-97248171D02*
X107616040Y-97200552D01*
X107616040Y-97200552D02*
X107425564Y-97200552D01*
X107425564Y-97200552D02*
X107330326Y-97248171D01*
X107330326Y-97248171D02*
X107282707Y-97295790D01*
X107282707Y-97295790D02*
X107235088Y-97391028D01*
X107235088Y-97391028D02*
X107235088Y-97676742D01*
X107235088Y-97676742D02*
X107282707Y-97771980D01*
X107282707Y-97771980D02*
X107330326Y-97819600D01*
X107330326Y-97819600D02*
X107425564Y-97867219D01*
X107425564Y-97867219D02*
X107616040Y-97867219D01*
X107616040Y-97867219D02*
X107711278Y-97819600D01*
X106901754Y-97200552D02*
X106663659Y-97867219D01*
X106425564Y-97200552D02*
X106663659Y-97867219D01*
X106663659Y-97867219D02*
X106758897Y-98105314D01*
X106758897Y-98105314D02*
X106806516Y-98152933D01*
X106806516Y-98152933D02*
X106901754Y-98200552D01*
X104711278Y-97771980D02*
X104758897Y-97819600D01*
X104758897Y-97819600D02*
X104901754Y-97867219D01*
X104901754Y-97867219D02*
X104996992Y-97867219D01*
X104996992Y-97867219D02*
X105139849Y-97819600D01*
X105139849Y-97819600D02*
X105235087Y-97724361D01*
X105235087Y-97724361D02*
X105282706Y-97629123D01*
X105282706Y-97629123D02*
X105330325Y-97438647D01*
X105330325Y-97438647D02*
X105330325Y-97295790D01*
X105330325Y-97295790D02*
X105282706Y-97105314D01*
X105282706Y-97105314D02*
X105235087Y-97010076D01*
X105235087Y-97010076D02*
X105139849Y-96914838D01*
X105139849Y-96914838D02*
X104996992Y-96867219D01*
X104996992Y-96867219D02*
X104901754Y-96867219D01*
X104901754Y-96867219D02*
X104758897Y-96914838D01*
X104758897Y-96914838D02*
X104711278Y-96962457D01*
X104282706Y-97867219D02*
X104282706Y-96867219D01*
X103854135Y-97867219D02*
X103854135Y-97343409D01*
X103854135Y-97343409D02*
X103901754Y-97248171D01*
X103901754Y-97248171D02*
X103996992Y-97200552D01*
X103996992Y-97200552D02*
X104139849Y-97200552D01*
X104139849Y-97200552D02*
X104235087Y-97248171D01*
X104235087Y-97248171D02*
X104282706Y-97295790D01*
X102996992Y-97819600D02*
X103092230Y-97867219D01*
X103092230Y-97867219D02*
X103282706Y-97867219D01*
X103282706Y-97867219D02*
X103377944Y-97819600D01*
X103377944Y-97819600D02*
X103425563Y-97724361D01*
X103425563Y-97724361D02*
X103425563Y-97343409D01*
X103425563Y-97343409D02*
X103377944Y-97248171D01*
X103377944Y-97248171D02*
X103282706Y-97200552D01*
X103282706Y-97200552D02*
X103092230Y-97200552D01*
X103092230Y-97200552D02*
X102996992Y-97248171D01*
X102996992Y-97248171D02*
X102949373Y-97343409D01*
X102949373Y-97343409D02*
X102949373Y-97438647D01*
X102949373Y-97438647D02*
X103425563Y-97533885D01*
X102520801Y-97200552D02*
X102520801Y-97867219D01*
X102520801Y-97295790D02*
X102473182Y-97248171D01*
X102473182Y-97248171D02*
X102377944Y-97200552D01*
X102377944Y-97200552D02*
X102235087Y-97200552D01*
X102235087Y-97200552D02*
X102139849Y-97248171D01*
X102139849Y-97248171D02*
X102092230Y-97343409D01*
X102092230Y-97343409D02*
X102092230Y-97867219D01*
D11*
%TO.C,R19*%
X127277500Y-97237258D02*
X127277500Y-96762742D01*
X128322500Y-97237258D02*
X128322500Y-96762742D01*
%TO.C,R17*%
X125277500Y-97237258D02*
X125277500Y-96762742D01*
X126322500Y-97237258D02*
X126322500Y-96762742D01*
%TO.C,C9*%
X129034420Y-88390000D02*
X129315580Y-88390000D01*
X129034420Y-89410000D02*
X129315580Y-89410000D01*
%TO.C,C13*%
X122913748Y-79040000D02*
X124336252Y-79040000D01*
X122913748Y-81760000D02*
X124336252Y-81760000D01*
%TO.C,U7*%
X99140000Y-67150000D02*
X99140000Y-69750000D01*
X99140000Y-67150000D02*
X116340000Y-67150000D01*
X99140000Y-79750000D02*
X99140000Y-81750000D01*
X99140000Y-93750000D02*
X99140000Y-94350000D01*
X99140000Y-94350000D02*
X116340000Y-94350000D01*
X116340000Y-67150000D02*
X116340000Y-67750000D01*
X116340000Y-79750000D02*
X116340000Y-81750000D01*
X116340000Y-94350000D02*
X116340000Y-93750000D01*
%TO.C,U2*%
X119990000Y-82690000D02*
X119990000Y-83950000D01*
X119990000Y-89510000D02*
X119990000Y-88250000D01*
X123750000Y-82690000D02*
X119990000Y-82690000D01*
X123750000Y-89510000D02*
X119990000Y-89510000D01*
X125030000Y-82790000D02*
X124790000Y-82460000D01*
X125270000Y-82460000D01*
X125030000Y-82790000D01*
G36*
X125030000Y-82790000D02*
G01*
X124790000Y-82460000D01*
X125270000Y-82460000D01*
X125030000Y-82790000D01*
G37*
%TO.C,C8*%
X129034420Y-85380000D02*
X129315580Y-85380000D01*
X129034420Y-86400000D02*
X129315580Y-86400000D01*
%TO.C,R18*%
X129277500Y-97237258D02*
X129277500Y-96762742D01*
X130322500Y-97237258D02*
X130322500Y-96762742D01*
%TO.C,J4*%
X111115000Y-62650000D02*
X111115000Y-65350000D01*
X113835000Y-62600000D02*
X113835000Y-63240000D01*
X113835000Y-63240000D02*
X114465000Y-63240000D01*
X113835000Y-65400000D02*
X113835000Y-64760000D01*
%TO.C,C7*%
X129034420Y-86890000D02*
X129315580Y-86890000D01*
X129034420Y-87910000D02*
X129315580Y-87910000D01*
%TD*%
M02*
