%TF.GenerationSoftware,KiCad,Pcbnew,9.0.3*%
%TF.CreationDate,2025-09-08T18:44:47+08:00*%
%TF.ProjectId,airspeed_BIO,61697273-7065-4656-945f-42494f2e6b69,rev?*%
%TF.SameCoordinates,Original*%
%TF.FileFunction,Legend,Top*%
%TF.FilePolarity,Positive*%
%FSLAX46Y46*%
G04 Gerber Fmt 4.6, Leading zero omitted, Abs format (unit mm)*
G04 Created by KiCad (PCBNEW 9.0.3) date 2025-09-08 18:44:47*
%MOMM*%
%LPD*%
G01*
G04 APERTURE LIST*
%ADD10C,0.300000*%
%ADD11C,0.200000*%
%ADD12C,0.120000*%
%ADD13C,0.100000*%
%ADD14C,0.000000*%
G04 APERTURE END LIST*
D10*
X114700000Y-89000000D02*
X118400000Y-89000000D01*
X118400000Y-90700000D01*
X114700000Y-90700000D01*
X114700000Y-89000000D01*
D11*
X115126816Y-89367219D02*
X115460149Y-90367219D01*
X115460149Y-90367219D02*
X115793482Y-89367219D01*
X116650625Y-90367219D02*
X116079197Y-90367219D01*
X116364911Y-90367219D02*
X116364911Y-89367219D01*
X116364911Y-89367219D02*
X116269673Y-89510076D01*
X116269673Y-89510076D02*
X116174435Y-89605314D01*
X116174435Y-89605314D02*
X116079197Y-89652933D01*
X117079197Y-90271980D02*
X117126816Y-90319600D01*
X117126816Y-90319600D02*
X117079197Y-90367219D01*
X117079197Y-90367219D02*
X117031578Y-90319600D01*
X117031578Y-90319600D02*
X117079197Y-90271980D01*
X117079197Y-90271980D02*
X117079197Y-90367219D01*
X117745863Y-89367219D02*
X117841101Y-89367219D01*
X117841101Y-89367219D02*
X117936339Y-89414838D01*
X117936339Y-89414838D02*
X117983958Y-89462457D01*
X117983958Y-89462457D02*
X118031577Y-89557695D01*
X118031577Y-89557695D02*
X118079196Y-89748171D01*
X118079196Y-89748171D02*
X118079196Y-89986266D01*
X118079196Y-89986266D02*
X118031577Y-90176742D01*
X118031577Y-90176742D02*
X117983958Y-90271980D01*
X117983958Y-90271980D02*
X117936339Y-90319600D01*
X117936339Y-90319600D02*
X117841101Y-90367219D01*
X117841101Y-90367219D02*
X117745863Y-90367219D01*
X117745863Y-90367219D02*
X117650625Y-90319600D01*
X117650625Y-90319600D02*
X117603006Y-90271980D01*
X117603006Y-90271980D02*
X117555387Y-90176742D01*
X117555387Y-90176742D02*
X117507768Y-89986266D01*
X117507768Y-89986266D02*
X117507768Y-89748171D01*
X117507768Y-89748171D02*
X117555387Y-89557695D01*
X117555387Y-89557695D02*
X117603006Y-89462457D01*
X117603006Y-89462457D02*
X117650625Y-89414838D01*
X117650625Y-89414838D02*
X117745863Y-89367219D01*
D12*
%TO.C,R8*%
X132362258Y-72927500D02*
X131887742Y-72927500D01*
X132362258Y-73972500D02*
X131887742Y-73972500D01*
%TO.C,R6*%
X123077500Y-81612258D02*
X123077500Y-81137742D01*
X124122500Y-81612258D02*
X124122500Y-81137742D01*
%TO.C,C23*%
X103640580Y-81490000D02*
X103359420Y-81490000D01*
X103640580Y-82510000D02*
X103359420Y-82510000D01*
%TO.C,C20*%
X107490000Y-73084420D02*
X107490000Y-73365580D01*
X108510000Y-73084420D02*
X108510000Y-73365580D01*
%TO.C,C26*%
X113400000Y-80859420D02*
X113400000Y-81140580D01*
X114420000Y-80859420D02*
X114420000Y-81140580D01*
%TO.C,R7*%
X133677500Y-85862742D02*
X133677500Y-86337258D01*
X134722500Y-85862742D02*
X134722500Y-86337258D01*
%TO.C,C21*%
X116990000Y-65584420D02*
X116990000Y-65865580D01*
X118010000Y-65584420D02*
X118010000Y-65865580D01*
%TO.C,C19*%
X105640580Y-62960000D02*
X105359420Y-62960000D01*
X105640580Y-63980000D02*
X105359420Y-63980000D01*
%TO.C,C27*%
X120555000Y-73738748D02*
X120555000Y-74261252D01*
X122025000Y-73738748D02*
X122025000Y-74261252D01*
%TO.C,R10*%
X120087742Y-84877500D02*
X120562258Y-84877500D01*
X120087742Y-85922500D02*
X120562258Y-85922500D01*
%TO.C,C2*%
X131972500Y-79440580D02*
X131972500Y-79159420D01*
X132992500Y-79440580D02*
X132992500Y-79159420D01*
%TO.C,U3*%
X110900000Y-71960000D02*
X113100000Y-71960000D01*
X113100000Y-74160000D01*
X110900000Y-74160000D01*
X110900000Y-71960000D01*
X110600000Y-72360000D02*
G75*
G02*
X110400000Y-72360000I-100000J0D01*
G01*
X110400000Y-72360000D02*
G75*
G02*
X110600000Y-72360000I100000J0D01*
G01*
%TO.C,Y1*%
X101976000Y-77857000D02*
X101976000Y-80778000D01*
X105024000Y-77222000D02*
X105024000Y-80778000D01*
%TO.C,J3*%
X135290000Y-93240000D02*
X136710000Y-93240000D01*
X135290000Y-104960000D02*
X135290000Y-93240000D01*
X136710000Y-93240000D02*
X136710000Y-97740000D01*
X137550000Y-95150000D02*
X138150000Y-95150000D01*
X137600000Y-98850000D02*
X137600000Y-104350000D01*
X137600000Y-104350000D02*
X138100000Y-104350000D01*
X137850000Y-95750000D02*
X137550000Y-95150000D01*
X138100000Y-98850000D02*
X137600000Y-98850000D01*
X138100000Y-104350000D02*
X138100000Y-98850000D01*
X138150000Y-95150000D02*
X137850000Y-95750000D01*
X139100000Y-104960000D02*
X135290000Y-104960000D01*
X139100000Y-104960000D02*
X142910000Y-104960000D01*
X140100000Y-98850000D02*
X140100000Y-104350000D01*
X140100000Y-104350000D02*
X140600000Y-104350000D01*
X140600000Y-98850000D02*
X140100000Y-98850000D01*
X140600000Y-104350000D02*
X140600000Y-98850000D01*
X141490000Y-93240000D02*
X141490000Y-97740000D01*
X142910000Y-93240000D02*
X141490000Y-93240000D01*
X142910000Y-104960000D02*
X142910000Y-93240000D01*
%TO.C,C10*%
X139140580Y-93490000D02*
X138859420Y-93490000D01*
X139140580Y-94510000D02*
X138859420Y-94510000D01*
%TO.C,RLED2*%
X96515000Y-67265000D02*
X96515000Y-68735000D01*
X96515000Y-68735000D02*
X98800000Y-68735000D01*
X98800000Y-67265000D02*
X96515000Y-67265000D01*
%TO.C,TH1*%
X120712133Y-98720000D02*
G75*
G02*
X120712133Y-97080000I-417133J820000D01*
G01*
%TO.C,C28*%
X118265000Y-73738748D02*
X118265000Y-74261252D01*
X119735000Y-73738748D02*
X119735000Y-74261252D01*
%TO.C,C6*%
X135490000Y-90859420D02*
X135490000Y-91140580D01*
X136510000Y-90859420D02*
X136510000Y-91140580D01*
%TO.C,SW3*%
X96725000Y-80225000D02*
X96725000Y-75625000D01*
X97409000Y-78433000D02*
X97409000Y-77417000D01*
X97917000Y-75625000D02*
X98933000Y-75625000D01*
X97917000Y-80225000D02*
X98933000Y-80225000D01*
X99441000Y-77417000D02*
X99441000Y-78433000D01*
X100125000Y-80225000D02*
X100125000Y-75625000D01*
X97409000Y-77417000D02*
G75*
G02*
X99441000Y-77417000I1016000J0D01*
G01*
X99441000Y-78433000D02*
G75*
G02*
X97409000Y-78433000I-1016000J0D01*
G01*
%TO.C,R9*%
X121687742Y-89877500D02*
X122162258Y-89877500D01*
X121687742Y-90922500D02*
X122162258Y-90922500D01*
%TO.C,R25*%
X146737258Y-68977500D02*
X146262742Y-68977500D01*
X146737258Y-70022500D02*
X146262742Y-70022500D01*
%TO.C,TP2*%
X138700000Y-64700000D02*
G75*
G02*
X137300000Y-64700000I-700000J0D01*
G01*
X137300000Y-64700000D02*
G75*
G02*
X138700000Y-64700000I700000J0D01*
G01*
%TO.C,D2*%
X129065000Y-95515000D02*
X129065000Y-97800000D01*
X130535000Y-95515000D02*
X129065000Y-95515000D01*
X130535000Y-97800000D02*
X130535000Y-95515000D01*
%TO.C,C18*%
X118500000Y-65584420D02*
X118500000Y-65865580D01*
X119520000Y-65584420D02*
X119520000Y-65865580D01*
%TO.C,SW1*%
D13*
X139982500Y-71550000D02*
X149982500Y-71550000D01*
X149982500Y-74050000D01*
X139982500Y-74050000D01*
X139982500Y-71550000D01*
D12*
%TO.C,R20*%
X120162742Y-82777500D02*
X120637258Y-82777500D01*
X120162742Y-83822500D02*
X120637258Y-83822500D01*
%TO.C,Q1*%
X136062500Y-73490000D02*
X135412500Y-73490000D01*
X136062500Y-73490000D02*
X136712500Y-73490000D01*
X136062500Y-76610000D02*
X135412500Y-76610000D01*
X136062500Y-76610000D02*
X136712500Y-76610000D01*
X137465000Y-76890000D02*
X136985000Y-76890000D01*
X137225000Y-76560000D01*
X137465000Y-76890000D01*
G36*
X137465000Y-76890000D02*
G01*
X136985000Y-76890000D01*
X137225000Y-76560000D01*
X137465000Y-76890000D01*
G37*
%TO.C,R3*%
X123077500Y-84912258D02*
X123077500Y-84437742D01*
X124122500Y-84912258D02*
X124122500Y-84437742D01*
%TO.C,C14*%
X148002500Y-86659420D02*
X148002500Y-86940580D01*
X149022500Y-86659420D02*
X149022500Y-86940580D01*
%TO.C,R29*%
X98237258Y-71977500D02*
X97762742Y-71977500D01*
X98237258Y-73022500D02*
X97762742Y-73022500D01*
%TO.C,R26*%
X103737258Y-83477500D02*
X103262742Y-83477500D01*
X103737258Y-84522500D02*
X103262742Y-84522500D01*
%TO.C,C17*%
X111859420Y-68550000D02*
X112140580Y-68550000D01*
X111859420Y-69570000D02*
X112140580Y-69570000D01*
%TO.C,C25*%
X114990000Y-80859420D02*
X114990000Y-81140580D01*
X116010000Y-80859420D02*
X116010000Y-81140580D01*
%TO.C,C11*%
X139140580Y-91980000D02*
X138859420Y-91980000D01*
X139140580Y-93000000D02*
X138859420Y-93000000D01*
%TO.C,TP1*%
X138700000Y-68000000D02*
G75*
G02*
X137300000Y-68000000I-700000J0D01*
G01*
X137300000Y-68000000D02*
G75*
G02*
X138700000Y-68000000I700000J0D01*
G01*
%TO.C,RLED1*%
X119622500Y-82331000D02*
X121907500Y-82331000D01*
X121907500Y-80861000D02*
X119622500Y-80861000D01*
X121907500Y-82331000D02*
X121907500Y-80861000D01*
%TO.C,D3*%
X127065000Y-95515000D02*
X127065000Y-97800000D01*
X128535000Y-95515000D02*
X127065000Y-95515000D01*
X128535000Y-97800000D02*
X128535000Y-95515000D01*
%TO.C,C15*%
X111859420Y-66990000D02*
X112140580Y-66990000D01*
X111859420Y-68010000D02*
X112140580Y-68010000D01*
%TO.C,R22*%
X143960000Y-87037258D02*
X143960000Y-86562742D01*
X145005000Y-87037258D02*
X145005000Y-86562742D01*
%TO.C,R27*%
X98862258Y-91402500D02*
X98387742Y-91402500D01*
X98862258Y-92447500D02*
X98387742Y-92447500D01*
%TO.C,C12*%
X139140580Y-90490000D02*
X138859420Y-90490000D01*
X139140580Y-91510000D02*
X138859420Y-91510000D01*
%TO.C,R13*%
X127577500Y-93062742D02*
X127577500Y-93537258D01*
X128622500Y-93062742D02*
X128622500Y-93537258D01*
%TO.C,R4*%
X132362258Y-74527500D02*
X131887742Y-74527500D01*
X132362258Y-75572500D02*
X131887742Y-75572500D01*
%TO.C,R14*%
X121057742Y-95572500D02*
X121532258Y-95572500D01*
X121057742Y-96617500D02*
X121532258Y-96617500D01*
D13*
%TO.C,U4*%
X121345000Y-63000000D02*
X123600000Y-63000000D01*
X123150000Y-61000000D02*
X123600000Y-59400000D01*
X123600000Y-61000000D02*
X123200000Y-61000000D01*
X123600000Y-61000000D02*
X123600000Y-63000000D01*
X125400000Y-59400000D02*
X123600000Y-59400000D01*
X125400000Y-61000000D02*
X125400000Y-63000000D01*
X125400000Y-61000000D02*
X125850000Y-61000000D01*
X125850000Y-61000000D02*
X125400000Y-59400000D01*
X130150000Y-61000000D02*
X130600000Y-59400000D01*
X130600000Y-61000000D02*
X130200000Y-61000000D01*
X130600000Y-61000000D02*
X130600000Y-63000000D01*
X130600000Y-63000000D02*
X125400000Y-63000000D01*
X132400000Y-59400000D02*
X130600000Y-59400000D01*
X132400000Y-61000000D02*
X132400000Y-63000000D01*
X132400000Y-61000000D02*
X132850000Y-61000000D01*
X132400000Y-63000000D02*
X134655000Y-63000000D01*
X132850000Y-61000000D02*
X132400000Y-59400000D01*
%TO.C,U1*%
X127700000Y-89300000D02*
X127700000Y-89800000D01*
X127700000Y-89800000D02*
X128200000Y-89800000D01*
X131200000Y-85800000D02*
X131700000Y-85800000D01*
X131200000Y-89800000D02*
X131700000Y-89800000D01*
X131700000Y-85800000D02*
X131700000Y-86300000D01*
X131700000Y-89800000D02*
X131700000Y-89300000D01*
X127750306Y-85800000D02*
G75*
G02*
X127649694Y-85800000I-50306J0D01*
G01*
X127649694Y-85800000D02*
G75*
G02*
X127750306Y-85800000I50306J0D01*
G01*
%TO.C,J2*%
X102190000Y-92480000D02*
X102190000Y-97480000D01*
X102190000Y-97480000D02*
X105410000Y-97480000D01*
X105410000Y-92480000D02*
X102190000Y-92480000D01*
X105710000Y-99380000D02*
X106310000Y-99380000D01*
X105810000Y-99380000D02*
X106210000Y-99380000D01*
X105910000Y-99380000D02*
X106110000Y-99380000D01*
X106010000Y-98780000D02*
X105710000Y-99380000D01*
X106010000Y-98880000D02*
X105810000Y-99380000D01*
X106010000Y-98980000D02*
X105910000Y-99380000D01*
X106010000Y-99080000D02*
X106010000Y-99380000D01*
X106110000Y-99380000D02*
X106010000Y-99080000D01*
X106210000Y-99380000D02*
X106010000Y-98980000D01*
X106310000Y-99380000D02*
X106010000Y-98780000D01*
X114210000Y-97480000D02*
X117430000Y-97480000D01*
X117430000Y-92480000D02*
X114210000Y-92480000D01*
X117430000Y-97480000D02*
X117430000Y-92480000D01*
D14*
%TO.C,G\u002A\u002A\u002A*%
G36*
X107139634Y-84868769D02*
G01*
X107552113Y-84869453D01*
X107932508Y-84870610D01*
X108278111Y-84872215D01*
X108586215Y-84874245D01*
X108854111Y-84876675D01*
X109079092Y-84879480D01*
X109258451Y-84882637D01*
X109389477Y-84886120D01*
X109469465Y-84889904D01*
X109495727Y-84893853D01*
X109482167Y-84924300D01*
X109443990Y-84996702D01*
X109384948Y-85104290D01*
X109308792Y-85240296D01*
X109219277Y-85397950D01*
X109132388Y-85549291D01*
X108769049Y-86179023D01*
X108491045Y-86196855D01*
X108367954Y-86203005D01*
X108204685Y-86208646D01*
X108017443Y-86213353D01*
X107822432Y-86216698D01*
X107690011Y-86217998D01*
X107166980Y-86221310D01*
X105871709Y-88490677D01*
X104576437Y-90760044D01*
X103608819Y-90760044D01*
X102641202Y-90760044D01*
X102726207Y-90612042D01*
X102752931Y-90565663D01*
X102805663Y-90474286D01*
X102882200Y-90341725D01*
X102980336Y-90171798D01*
X103097867Y-89968320D01*
X103232588Y-89735109D01*
X103382296Y-89475979D01*
X103544784Y-89194748D01*
X103717850Y-88895231D01*
X103899288Y-88581244D01*
X104049373Y-88321532D01*
X105287531Y-86179023D01*
X104234248Y-86171637D01*
X103996837Y-86169454D01*
X103778129Y-86166447D01*
X103584300Y-86162775D01*
X103421524Y-86158600D01*
X103295975Y-86154083D01*
X103213828Y-86149384D01*
X103181258Y-86144665D01*
X103180966Y-86144188D01*
X103194430Y-86115250D01*
X103232333Y-86044200D01*
X103290942Y-85937765D01*
X103366524Y-85802671D01*
X103455344Y-85645646D01*
X103540400Y-85496573D01*
X103899834Y-84869020D01*
X106697780Y-84868583D01*
X107139634Y-84868769D01*
G37*
G36*
X112244340Y-84868602D02*
G01*
X114189512Y-84868697D01*
X114335699Y-84936762D01*
X114479804Y-85029302D01*
X114555900Y-85116667D01*
X114618774Y-85251825D01*
X114648169Y-85404775D01*
X114641447Y-85553653D01*
X114618303Y-85633557D01*
X114587118Y-85698064D01*
X114531263Y-85802990D01*
X114454284Y-85942303D01*
X114359725Y-86109975D01*
X114251133Y-86299974D01*
X114132051Y-86506271D01*
X114006024Y-86722835D01*
X113876598Y-86943635D01*
X113747318Y-87162642D01*
X113621729Y-87373825D01*
X113503376Y-87571155D01*
X113395803Y-87748599D01*
X113302556Y-87900130D01*
X113227180Y-88019715D01*
X113173219Y-88101325D01*
X113147280Y-88135853D01*
X112985241Y-88282936D01*
X112788548Y-88413827D01*
X112578873Y-88514761D01*
X112514187Y-88537959D01*
X112462225Y-88553919D01*
X112409473Y-88566951D01*
X112349484Y-88577441D01*
X112275811Y-88585779D01*
X112182005Y-88592353D01*
X112061619Y-88597551D01*
X111908206Y-88601762D01*
X111715318Y-88605373D01*
X111476508Y-88608772D01*
X111301969Y-88610951D01*
X110275025Y-88623398D01*
X110459523Y-88720794D01*
X110582429Y-88794494D01*
X110712287Y-88885908D01*
X110799630Y-88956882D01*
X110852876Y-89011117D01*
X110935454Y-89104001D01*
X111042336Y-89229479D01*
X111168496Y-89381496D01*
X111308906Y-89553999D01*
X111458540Y-89740931D01*
X111605782Y-89927809D01*
X112256324Y-90760044D01*
X111062388Y-90760044D01*
X109868452Y-90760044D01*
X109663216Y-90428801D01*
X109464016Y-90110026D01*
X109288452Y-89835371D01*
X109132831Y-89599644D01*
X108993454Y-89397651D01*
X108866627Y-89224200D01*
X108748653Y-89074098D01*
X108635837Y-88942152D01*
X108524483Y-88823170D01*
X108509819Y-88808280D01*
X108210106Y-88505684D01*
X107430514Y-88498180D01*
X106650923Y-88490677D01*
X106938641Y-87990680D01*
X107226360Y-87490682D01*
X109161514Y-87490291D01*
X109539601Y-87490164D01*
X109865627Y-87489866D01*
X110143914Y-87489280D01*
X110378782Y-87488289D01*
X110574554Y-87486774D01*
X110735550Y-87484618D01*
X110866092Y-87481703D01*
X110970501Y-87477910D01*
X111053098Y-87473122D01*
X111118204Y-87467221D01*
X111170140Y-87460090D01*
X111213228Y-87451609D01*
X111251790Y-87441662D01*
X111282734Y-87432431D01*
X111410311Y-87382557D01*
X111526313Y-87312321D01*
X111636990Y-87215298D01*
X111748596Y-87085061D01*
X111867382Y-86915182D01*
X111999598Y-86699234D01*
X112005070Y-86689865D01*
X112090530Y-86538651D01*
X112157978Y-86409866D01*
X112203743Y-86311044D01*
X112224157Y-86249720D01*
X112224680Y-86238811D01*
X112216149Y-86179023D01*
X110880906Y-86188691D01*
X110534117Y-86190694D01*
X110242284Y-86191264D01*
X110003998Y-86190380D01*
X109817852Y-86188020D01*
X109682438Y-86184164D01*
X109596346Y-86178790D01*
X109558171Y-86171877D01*
X109555934Y-86168842D01*
X109572293Y-86137325D01*
X109613054Y-86063820D01*
X109674364Y-85955129D01*
X109752370Y-85818052D01*
X109843216Y-85659393D01*
X109932686Y-85503916D01*
X110299168Y-84868506D01*
X112244340Y-84868602D01*
G37*
D12*
%TO.C,R21*%
X146460000Y-86562742D02*
X146460000Y-87037258D01*
X147505000Y-86562742D02*
X147505000Y-87037258D01*
%TO.C,C22*%
X103359420Y-75490000D02*
X103640580Y-75490000D01*
X103359420Y-76510000D02*
X103640580Y-76510000D01*
%TO.C,U6*%
X107690000Y-82110000D02*
X107690000Y-81885000D01*
X107915000Y-82110000D02*
X107690000Y-82110000D01*
X111685000Y-77890000D02*
X111910000Y-77890000D01*
X111685000Y-82110000D02*
X111910000Y-82110000D01*
X111910000Y-77890000D02*
X111910000Y-78115000D01*
X111910000Y-82110000D02*
X111910000Y-81885000D01*
X107670000Y-77890000D02*
X107430000Y-77560000D01*
X107910000Y-77560000D01*
X107670000Y-77890000D01*
G36*
X107670000Y-77890000D02*
G01*
X107430000Y-77560000D01*
X107910000Y-77560000D01*
X107670000Y-77890000D01*
G37*
%TO.C,R24*%
X143237258Y-68977500D02*
X142762742Y-68977500D01*
X143237258Y-70022500D02*
X142762742Y-70022500D01*
%TO.C,C4*%
X129315580Y-82490000D02*
X129034420Y-82490000D01*
X129315580Y-83510000D02*
X129034420Y-83510000D01*
%TO.C,R2*%
X124977500Y-84912258D02*
X124977500Y-84437742D01*
X126022500Y-84912258D02*
X126022500Y-84437742D01*
%TO.C,C1*%
X130482500Y-79440580D02*
X130482500Y-79159420D01*
X131502500Y-79440580D02*
X131502500Y-79159420D01*
%TO.C,YLED1*%
X96515000Y-70265000D02*
X96515000Y-71735000D01*
X96515000Y-71735000D02*
X98800000Y-71735000D01*
X98800000Y-70265000D02*
X96515000Y-70265000D01*
%TO.C,C5*%
X120184420Y-86490000D02*
X120465580Y-86490000D01*
X120184420Y-87510000D02*
X120465580Y-87510000D01*
%TO.C,R1*%
X136460000Y-79537258D02*
X136460000Y-79062742D01*
X137505000Y-79537258D02*
X137505000Y-79062742D01*
%TO.C,R23*%
X137077500Y-82537258D02*
X137077500Y-82062742D01*
X138122500Y-82537258D02*
X138122500Y-82062742D01*
%TO.C,SW2*%
X96725000Y-90225000D02*
X96725000Y-85625000D01*
X97409000Y-88433000D02*
X97409000Y-87417000D01*
X97917000Y-85625000D02*
X98933000Y-85625000D01*
X97917000Y-90225000D02*
X98933000Y-90225000D01*
X99441000Y-87417000D02*
X99441000Y-88433000D01*
X100125000Y-90225000D02*
X100125000Y-85625000D01*
X97409000Y-87417000D02*
G75*
G02*
X99441000Y-87417000I1016000J0D01*
G01*
X99441000Y-88433000D02*
G75*
G02*
X97409000Y-88433000I-1016000J0D01*
G01*
%TO.C,C3*%
X133482500Y-79440580D02*
X133482500Y-79159420D01*
X134502500Y-79440580D02*
X134502500Y-79159420D01*
%TO.C,L1*%
X139797936Y-87140000D02*
X141002064Y-87140000D01*
X139797936Y-89860000D02*
X141002064Y-89860000D01*
%TO.C,R16*%
X121532258Y-94077500D02*
X121057742Y-94077500D01*
X121532258Y-95122500D02*
X121057742Y-95122500D01*
%TO.C,R28*%
X98237258Y-68977500D02*
X97762742Y-68977500D01*
X98237258Y-70022500D02*
X97762742Y-70022500D01*
D13*
%TO.C,U5*%
X104600000Y-69100000D02*
X104600000Y-67500000D01*
X106200000Y-69100000D02*
X106200000Y-67500000D01*
X104650288Y-69300000D02*
G75*
G02*
X104549712Y-69300000I-50288J0D01*
G01*
X104549712Y-69300000D02*
G75*
G02*
X104650288Y-69300000I50288J0D01*
G01*
D12*
%TO.C,R11*%
X121687742Y-88277500D02*
X122162258Y-88277500D01*
X121687742Y-89322500D02*
X122162258Y-89322500D01*
%TO.C,C24*%
X98690580Y-83415000D02*
X98409420Y-83415000D01*
X98690580Y-84435000D02*
X98409420Y-84435000D01*
%TO.C,R12*%
X125977500Y-93062742D02*
X125977500Y-93537258D01*
X127022500Y-93062742D02*
X127022500Y-93537258D01*
%TO.C,R5*%
X124977500Y-81612258D02*
X124977500Y-81137742D01*
X126022500Y-81612258D02*
X126022500Y-81137742D01*
%TO.C,R15*%
X143790000Y-91172936D02*
X143790000Y-92627064D01*
X145610000Y-91172936D02*
X145610000Y-92627064D01*
%TO.C,D1*%
X125065000Y-95515000D02*
X125065000Y-97800000D01*
X126535000Y-95515000D02*
X125065000Y-95515000D01*
X126535000Y-97800000D02*
X126535000Y-95515000D01*
%TO.C,C16*%
X105640580Y-64490000D02*
X105359420Y-64490000D01*
X105640580Y-65510000D02*
X105359420Y-65510000D01*
%TD*%
M02*
