%TF.GenerationSoftware,KiCad,Pcbnew,9.0.3*%
%TF.CreationDate,2025-07-30T22:19:27+08:00*%
%TF.ProjectId,airspeed_BIO,61697273-7065-4656-945f-42494f2e6b69,rev?*%
%TF.SameCoordinates,Original*%
%TF.FileFunction,Legend,Top*%
%TF.FilePolarity,Positive*%
%FSLAX46Y46*%
G04 Gerber Fmt 4.6, Leading zero omitted, Abs format (unit mm)*
G04 Created by KiCad (PCBNEW 9.0.3) date 2025-07-30 22:19:27*
%MOMM*%
%LPD*%
G01*
G04 APERTURE LIST*
%ADD10C,0.120000*%
%ADD11C,0.100000*%
G04 APERTURE END LIST*
D10*
%TO.C,R8*%
X132362258Y-72927500D02*
X131887742Y-72927500D01*
X132362258Y-73972500D02*
X131887742Y-73972500D01*
%TO.C,R6*%
X123077500Y-81612258D02*
X123077500Y-81137742D01*
X124122500Y-81612258D02*
X124122500Y-81137742D01*
%TO.C,C23*%
X103640580Y-81490000D02*
X103359420Y-81490000D01*
X103640580Y-82510000D02*
X103359420Y-82510000D01*
%TO.C,C20*%
X107490000Y-73084420D02*
X107490000Y-73365580D01*
X108510000Y-73084420D02*
X108510000Y-73365580D01*
%TO.C,C26*%
X113400000Y-80859420D02*
X113400000Y-81140580D01*
X114420000Y-80859420D02*
X114420000Y-81140580D01*
%TO.C,R7*%
X133677500Y-85862742D02*
X133677500Y-86337258D01*
X134722500Y-85862742D02*
X134722500Y-86337258D01*
%TO.C,C21*%
X116990000Y-65584420D02*
X116990000Y-65865580D01*
X118010000Y-65584420D02*
X118010000Y-65865580D01*
%TO.C,C19*%
X105640580Y-62960000D02*
X105359420Y-62960000D01*
X105640580Y-63980000D02*
X105359420Y-63980000D01*
%TO.C,C27*%
X120555000Y-73738748D02*
X120555000Y-74261252D01*
X122025000Y-73738748D02*
X122025000Y-74261252D01*
%TO.C,R10*%
X120087742Y-84877500D02*
X120562258Y-84877500D01*
X120087742Y-85922500D02*
X120562258Y-85922500D01*
%TO.C,C2*%
X131972500Y-79440580D02*
X131972500Y-79159420D01*
X132992500Y-79440580D02*
X132992500Y-79159420D01*
%TO.C,U3*%
X110900000Y-71960000D02*
X113100000Y-71960000D01*
X113100000Y-74160000D01*
X110900000Y-74160000D01*
X110900000Y-71960000D01*
X110600000Y-72360000D02*
G75*
G02*
X110400000Y-72360000I-100000J0D01*
G01*
X110400000Y-72360000D02*
G75*
G02*
X110600000Y-72360000I100000J0D01*
G01*
%TO.C,Y1*%
X101976000Y-77857000D02*
X101976000Y-80778000D01*
X105024000Y-77222000D02*
X105024000Y-80778000D01*
%TO.C,J3*%
X135290000Y-93240000D02*
X136710000Y-93240000D01*
X135290000Y-104960000D02*
X135290000Y-93240000D01*
X136710000Y-93240000D02*
X136710000Y-97740000D01*
X137550000Y-95150000D02*
X138150000Y-95150000D01*
X137600000Y-98850000D02*
X137600000Y-104350000D01*
X137600000Y-104350000D02*
X138100000Y-104350000D01*
X137850000Y-95750000D02*
X137550000Y-95150000D01*
X138100000Y-98850000D02*
X137600000Y-98850000D01*
X138100000Y-104350000D02*
X138100000Y-98850000D01*
X138150000Y-95150000D02*
X137850000Y-95750000D01*
X139100000Y-104960000D02*
X135290000Y-104960000D01*
X139100000Y-104960000D02*
X142910000Y-104960000D01*
X140100000Y-98850000D02*
X140100000Y-104350000D01*
X140100000Y-104350000D02*
X140600000Y-104350000D01*
X140600000Y-98850000D02*
X140100000Y-98850000D01*
X140600000Y-104350000D02*
X140600000Y-98850000D01*
X141490000Y-93240000D02*
X141490000Y-97740000D01*
X142910000Y-93240000D02*
X141490000Y-93240000D01*
X142910000Y-104960000D02*
X142910000Y-93240000D01*
%TO.C,C10*%
X139140580Y-93490000D02*
X138859420Y-93490000D01*
X139140580Y-94510000D02*
X138859420Y-94510000D01*
%TO.C,RLED2*%
X96515000Y-67265000D02*
X96515000Y-68735000D01*
X96515000Y-68735000D02*
X98800000Y-68735000D01*
X98800000Y-67265000D02*
X96515000Y-67265000D01*
%TO.C,TH1*%
X120712133Y-98720000D02*
G75*
G02*
X120712133Y-97080000I-417133J820000D01*
G01*
%TO.C,C28*%
X118265000Y-73738748D02*
X118265000Y-74261252D01*
X119735000Y-73738748D02*
X119735000Y-74261252D01*
%TO.C,C6*%
X135490000Y-90859420D02*
X135490000Y-91140580D01*
X136510000Y-90859420D02*
X136510000Y-91140580D01*
%TO.C,SW3*%
X96725000Y-80225000D02*
X96725000Y-75625000D01*
X97409000Y-78433000D02*
X97409000Y-77417000D01*
X97917000Y-75625000D02*
X98933000Y-75625000D01*
X97917000Y-80225000D02*
X98933000Y-80225000D01*
X99441000Y-77417000D02*
X99441000Y-78433000D01*
X100125000Y-80225000D02*
X100125000Y-75625000D01*
X97409000Y-77417000D02*
G75*
G02*
X99441000Y-77417000I1016000J0D01*
G01*
X99441000Y-78433000D02*
G75*
G02*
X97409000Y-78433000I-1016000J0D01*
G01*
%TO.C,R9*%
X121687742Y-89877500D02*
X122162258Y-89877500D01*
X121687742Y-90922500D02*
X122162258Y-90922500D01*
%TO.C,R25*%
X146737258Y-68977500D02*
X146262742Y-68977500D01*
X146737258Y-70022500D02*
X146262742Y-70022500D01*
%TO.C,TP2*%
X138700000Y-64700000D02*
G75*
G02*
X137300000Y-64700000I-700000J0D01*
G01*
X137300000Y-64700000D02*
G75*
G02*
X138700000Y-64700000I700000J0D01*
G01*
%TO.C,D2*%
X129065000Y-95515000D02*
X129065000Y-97800000D01*
X130535000Y-95515000D02*
X129065000Y-95515000D01*
X130535000Y-97800000D02*
X130535000Y-95515000D01*
%TO.C,C18*%
X118500000Y-65584420D02*
X118500000Y-65865580D01*
X119520000Y-65584420D02*
X119520000Y-65865580D01*
%TO.C,SW1*%
D11*
X139982500Y-71550000D02*
X149982500Y-71550000D01*
X149982500Y-74050000D01*
X139982500Y-74050000D01*
X139982500Y-71550000D01*
D10*
%TO.C,R20*%
X120162742Y-82777500D02*
X120637258Y-82777500D01*
X120162742Y-83822500D02*
X120637258Y-83822500D01*
%TO.C,Q1*%
X136062500Y-73490000D02*
X135412500Y-73490000D01*
X136062500Y-73490000D02*
X136712500Y-73490000D01*
X136062500Y-76610000D02*
X135412500Y-76610000D01*
X136062500Y-76610000D02*
X136712500Y-76610000D01*
X137465000Y-76890000D02*
X136985000Y-76890000D01*
X137225000Y-76560000D01*
X137465000Y-76890000D01*
G36*
X137465000Y-76890000D02*
G01*
X136985000Y-76890000D01*
X137225000Y-76560000D01*
X137465000Y-76890000D01*
G37*
%TO.C,R3*%
X123077500Y-84912258D02*
X123077500Y-84437742D01*
X124122500Y-84912258D02*
X124122500Y-84437742D01*
%TO.C,C14*%
X148002500Y-86659420D02*
X148002500Y-86940580D01*
X149022500Y-86659420D02*
X149022500Y-86940580D01*
%TO.C,R29*%
X98237258Y-71977500D02*
X97762742Y-71977500D01*
X98237258Y-73022500D02*
X97762742Y-73022500D01*
%TO.C,R26*%
X103737258Y-83477500D02*
X103262742Y-83477500D01*
X103737258Y-84522500D02*
X103262742Y-84522500D01*
%TO.C,C17*%
X111859420Y-68550000D02*
X112140580Y-68550000D01*
X111859420Y-69570000D02*
X112140580Y-69570000D01*
%TO.C,C25*%
X114990000Y-80859420D02*
X114990000Y-81140580D01*
X116010000Y-80859420D02*
X116010000Y-81140580D01*
%TO.C,C11*%
X139140580Y-91980000D02*
X138859420Y-91980000D01*
X139140580Y-93000000D02*
X138859420Y-93000000D01*
%TO.C,TP1*%
X138700000Y-68000000D02*
G75*
G02*
X137300000Y-68000000I-700000J0D01*
G01*
X137300000Y-68000000D02*
G75*
G02*
X138700000Y-68000000I700000J0D01*
G01*
%TO.C,RLED1*%
X119622500Y-82331000D02*
X121907500Y-82331000D01*
X121907500Y-80861000D02*
X119622500Y-80861000D01*
X121907500Y-82331000D02*
X121907500Y-80861000D01*
%TO.C,D3*%
X127065000Y-95515000D02*
X127065000Y-97800000D01*
X128535000Y-95515000D02*
X127065000Y-95515000D01*
X128535000Y-97800000D02*
X128535000Y-95515000D01*
%TO.C,C15*%
X111859420Y-66990000D02*
X112140580Y-66990000D01*
X111859420Y-68010000D02*
X112140580Y-68010000D01*
%TO.C,R22*%
X143960000Y-87037258D02*
X143960000Y-86562742D01*
X145005000Y-87037258D02*
X145005000Y-86562742D01*
%TO.C,R27*%
X98862258Y-91402500D02*
X98387742Y-91402500D01*
X98862258Y-92447500D02*
X98387742Y-92447500D01*
%TO.C,C12*%
X139140580Y-90490000D02*
X138859420Y-90490000D01*
X139140580Y-91510000D02*
X138859420Y-91510000D01*
%TO.C,R13*%
X127577500Y-93062742D02*
X127577500Y-93537258D01*
X128622500Y-93062742D02*
X128622500Y-93537258D01*
%TO.C,R4*%
X132362258Y-74527500D02*
X131887742Y-74527500D01*
X132362258Y-75572500D02*
X131887742Y-75572500D01*
%TO.C,R14*%
X121057742Y-95572500D02*
X121532258Y-95572500D01*
X121057742Y-96617500D02*
X121532258Y-96617500D01*
D11*
%TO.C,U4*%
X121345000Y-63000000D02*
X123600000Y-63000000D01*
X123150000Y-61000000D02*
X123600000Y-59400000D01*
X123600000Y-61000000D02*
X123200000Y-61000000D01*
X123600000Y-61000000D02*
X123600000Y-63000000D01*
X125400000Y-59400000D02*
X123600000Y-59400000D01*
X125400000Y-61000000D02*
X125400000Y-63000000D01*
X125400000Y-61000000D02*
X125850000Y-61000000D01*
X125850000Y-61000000D02*
X125400000Y-59400000D01*
X130150000Y-61000000D02*
X130600000Y-59400000D01*
X130600000Y-61000000D02*
X130200000Y-61000000D01*
X130600000Y-61000000D02*
X130600000Y-63000000D01*
X130600000Y-63000000D02*
X125400000Y-63000000D01*
X132400000Y-59400000D02*
X130600000Y-59400000D01*
X132400000Y-61000000D02*
X132400000Y-63000000D01*
X132400000Y-61000000D02*
X132850000Y-61000000D01*
X132400000Y-63000000D02*
X134655000Y-63000000D01*
X132850000Y-61000000D02*
X132400000Y-59400000D01*
%TO.C,U1*%
X127700000Y-89300000D02*
X127700000Y-89800000D01*
X127700000Y-89800000D02*
X128200000Y-89800000D01*
X131200000Y-85800000D02*
X131700000Y-85800000D01*
X131200000Y-89800000D02*
X131700000Y-89800000D01*
X131700000Y-85800000D02*
X131700000Y-86300000D01*
X131700000Y-89800000D02*
X131700000Y-89300000D01*
X127750306Y-85800000D02*
G75*
G02*
X127649694Y-85800000I-50306J0D01*
G01*
X127649694Y-85800000D02*
G75*
G02*
X127750306Y-85800000I50306J0D01*
G01*
%TO.C,J2*%
X102190000Y-92480000D02*
X102190000Y-97480000D01*
X102190000Y-97480000D02*
X105410000Y-97480000D01*
X105410000Y-92480000D02*
X102190000Y-92480000D01*
X105710000Y-99380000D02*
X106310000Y-99380000D01*
X105810000Y-99380000D02*
X106210000Y-99380000D01*
X105910000Y-99380000D02*
X106110000Y-99380000D01*
X106010000Y-98780000D02*
X105710000Y-99380000D01*
X106010000Y-98880000D02*
X105810000Y-99380000D01*
X106010000Y-98980000D02*
X105910000Y-99380000D01*
X106010000Y-99080000D02*
X106010000Y-99380000D01*
X106110000Y-99380000D02*
X106010000Y-99080000D01*
X106210000Y-99380000D02*
X106010000Y-98980000D01*
X106310000Y-99380000D02*
X106010000Y-98780000D01*
X114210000Y-97480000D02*
X117430000Y-97480000D01*
X117430000Y-92480000D02*
X114210000Y-92480000D01*
X117430000Y-97480000D02*
X117430000Y-92480000D01*
D10*
%TO.C,R21*%
X146460000Y-86562742D02*
X146460000Y-87037258D01*
X147505000Y-86562742D02*
X147505000Y-87037258D01*
%TO.C,C22*%
X103359420Y-75490000D02*
X103640580Y-75490000D01*
X103359420Y-76510000D02*
X103640580Y-76510000D01*
%TO.C,U6*%
X107690000Y-82110000D02*
X107690000Y-81885000D01*
X107915000Y-82110000D02*
X107690000Y-82110000D01*
X111685000Y-77890000D02*
X111910000Y-77890000D01*
X111685000Y-82110000D02*
X111910000Y-82110000D01*
X111910000Y-77890000D02*
X111910000Y-78115000D01*
X111910000Y-82110000D02*
X111910000Y-81885000D01*
X107670000Y-77890000D02*
X107430000Y-77560000D01*
X107910000Y-77560000D01*
X107670000Y-77890000D01*
G36*
X107670000Y-77890000D02*
G01*
X107430000Y-77560000D01*
X107910000Y-77560000D01*
X107670000Y-77890000D01*
G37*
%TO.C,R24*%
X143237258Y-68977500D02*
X142762742Y-68977500D01*
X143237258Y-70022500D02*
X142762742Y-70022500D01*
%TO.C,C4*%
X129315580Y-82490000D02*
X129034420Y-82490000D01*
X129315580Y-83510000D02*
X129034420Y-83510000D01*
%TO.C,R2*%
X124977500Y-84912258D02*
X124977500Y-84437742D01*
X126022500Y-84912258D02*
X126022500Y-84437742D01*
%TO.C,C1*%
X130482500Y-79440580D02*
X130482500Y-79159420D01*
X131502500Y-79440580D02*
X131502500Y-79159420D01*
%TO.C,YLED1*%
X96515000Y-70265000D02*
X96515000Y-71735000D01*
X96515000Y-71735000D02*
X98800000Y-71735000D01*
X98800000Y-70265000D02*
X96515000Y-70265000D01*
%TO.C,C5*%
X120184420Y-86490000D02*
X120465580Y-86490000D01*
X120184420Y-87510000D02*
X120465580Y-87510000D01*
%TO.C,R1*%
X136460000Y-79537258D02*
X136460000Y-79062742D01*
X137505000Y-79537258D02*
X137505000Y-79062742D01*
%TO.C,R23*%
X137077500Y-82537258D02*
X137077500Y-82062742D01*
X138122500Y-82537258D02*
X138122500Y-82062742D01*
%TO.C,SW2*%
X96725000Y-90225000D02*
X96725000Y-85625000D01*
X97409000Y-88433000D02*
X97409000Y-87417000D01*
X97917000Y-85625000D02*
X98933000Y-85625000D01*
X97917000Y-90225000D02*
X98933000Y-90225000D01*
X99441000Y-87417000D02*
X99441000Y-88433000D01*
X100125000Y-90225000D02*
X100125000Y-85625000D01*
X97409000Y-87417000D02*
G75*
G02*
X99441000Y-87417000I1016000J0D01*
G01*
X99441000Y-88433000D02*
G75*
G02*
X97409000Y-88433000I-1016000J0D01*
G01*
%TO.C,C3*%
X133482500Y-79440580D02*
X133482500Y-79159420D01*
X134502500Y-79440580D02*
X134502500Y-79159420D01*
%TO.C,L1*%
X139797936Y-87140000D02*
X141002064Y-87140000D01*
X139797936Y-89860000D02*
X141002064Y-89860000D01*
%TO.C,R16*%
X121532258Y-94077500D02*
X121057742Y-94077500D01*
X121532258Y-95122500D02*
X121057742Y-95122500D01*
%TO.C,R28*%
X98237258Y-68977500D02*
X97762742Y-68977500D01*
X98237258Y-70022500D02*
X97762742Y-70022500D01*
D11*
%TO.C,U5*%
X104600000Y-69100000D02*
X104600000Y-67500000D01*
X106200000Y-69100000D02*
X106200000Y-67500000D01*
X104650288Y-69300000D02*
G75*
G02*
X104549712Y-69300000I-50288J0D01*
G01*
X104549712Y-69300000D02*
G75*
G02*
X104650288Y-69300000I50288J0D01*
G01*
D10*
%TO.C,R11*%
X121687742Y-88277500D02*
X122162258Y-88277500D01*
X121687742Y-89322500D02*
X122162258Y-89322500D01*
%TO.C,C24*%
X98690580Y-83415000D02*
X98409420Y-83415000D01*
X98690580Y-84435000D02*
X98409420Y-84435000D01*
%TO.C,R12*%
X125977500Y-93062742D02*
X125977500Y-93537258D01*
X127022500Y-93062742D02*
X127022500Y-93537258D01*
%TO.C,R5*%
X124977500Y-81612258D02*
X124977500Y-81137742D01*
X126022500Y-81612258D02*
X126022500Y-81137742D01*
%TO.C,R15*%
X143790000Y-91172936D02*
X143790000Y-92627064D01*
X145610000Y-91172936D02*
X145610000Y-92627064D01*
%TO.C,D1*%
X125065000Y-95515000D02*
X125065000Y-97800000D01*
X126535000Y-95515000D02*
X125065000Y-95515000D01*
X126535000Y-97800000D02*
X126535000Y-95515000D01*
%TO.C,C16*%
X105640580Y-64490000D02*
X105359420Y-64490000D01*
X105640580Y-65510000D02*
X105359420Y-65510000D01*
%TD*%
M02*
