%TF.GenerationSoftware,KiCad,Pcbnew,9.0.3*%
%TF.CreationDate,2025-07-30T22:26:29+08:00*%
%TF.ProjectId,airspeed_BIO,61697273-7065-4656-945f-42494f2e6b69,rev?*%
%TF.SameCoordinates,Original*%
%TF.FileFunction,Plated,1,2,PTH,Mixed*%
%TF.FilePolarity,Positive*%
%FSLAX46Y46*%
G04 Gerber Fmt 4.6, Leading zero omitted, Abs format (unit mm)*
G04 Created by KiCad (PCBNEW 9.0.3) date 2025-07-30 22:26:29*
%MOMM*%
%LPD*%
G01*
G04 APERTURE LIST*
%TA.AperFunction,ViaDrill*%
%ADD10C,0.300000*%
%TD*%
%TA.AperFunction,ComponentDrill*%
%ADD11C,0.400000*%
%TD*%
G04 aperture for slot hole*
%TA.AperFunction,ComponentDrill*%
%ADD12C,0.600000*%
%TD*%
%TA.AperFunction,ComponentDrill*%
%ADD13C,0.700000*%
%TD*%
%TA.AperFunction,ComponentDrill*%
%ADD14C,0.800000*%
%TD*%
%TA.AperFunction,ComponentDrill*%
%ADD15C,1.000000*%
%TD*%
G04 APERTURE END LIST*
D10*
X99500000Y-81000000D03*
X101000000Y-81000000D03*
X101600000Y-96700000D03*
X101600000Y-98400000D03*
X102000000Y-69500000D03*
X102500000Y-88800000D03*
X103000000Y-72500000D03*
X103200000Y-63500000D03*
X103200000Y-65000000D03*
X103500000Y-96700000D03*
X103500000Y-98400000D03*
X104287500Y-76012500D03*
X104700000Y-95000000D03*
X105200000Y-88700000D03*
X106900000Y-73300000D03*
X107270000Y-92960000D03*
X107700000Y-76100000D03*
X108500000Y-97000000D03*
X108540000Y-92960000D03*
X108600000Y-65100000D03*
X108600000Y-69100000D03*
X108600000Y-70900000D03*
X108700000Y-75500000D03*
X109200000Y-62500000D03*
X109200000Y-80500000D03*
X109800000Y-97000000D03*
X110200000Y-76800000D03*
X110500000Y-85600000D03*
X110900000Y-90400000D03*
X111500000Y-86400000D03*
X112000000Y-76500000D03*
X112500000Y-88000000D03*
X113000000Y-77100000D03*
X113434313Y-87000000D03*
X113600000Y-90500000D03*
X113900000Y-67500000D03*
X113900000Y-69000000D03*
X114000000Y-85000000D03*
X115300000Y-62300000D03*
X116400000Y-80500000D03*
X117300000Y-62300000D03*
X117500000Y-68100000D03*
X117700000Y-70800000D03*
X117900000Y-97900000D03*
X118100000Y-95100000D03*
X119000000Y-63500000D03*
X119000000Y-94500000D03*
X119500000Y-90300000D03*
X120200000Y-73050000D03*
X121200000Y-84200000D03*
X123700000Y-90400000D03*
X123900000Y-73600000D03*
X123900000Y-95100000D03*
X123900000Y-97900000D03*
X124100000Y-92300000D03*
X124100000Y-93500000D03*
X125200000Y-63300000D03*
X125600000Y-71900000D03*
X125800000Y-99000000D03*
X125900000Y-89900000D03*
X126500000Y-90500000D03*
X126700000Y-80900000D03*
X127100000Y-83000000D03*
X127800000Y-99000000D03*
X128400000Y-80100000D03*
X128700000Y-94700000D03*
X129000000Y-84100000D03*
X129500000Y-93500000D03*
X129799000Y-91650000D03*
X129800000Y-99000000D03*
X129950000Y-83000000D03*
X130500000Y-63300000D03*
X131000000Y-92300000D03*
X131600000Y-94300000D03*
X131600000Y-98000000D03*
X131700000Y-84800000D03*
X131700000Y-85700000D03*
X132500000Y-90500000D03*
X132900000Y-83200000D03*
X133500000Y-77000000D03*
X133600000Y-81300000D03*
X134200000Y-86925000D03*
X135482500Y-79800000D03*
X136000000Y-94000000D03*
X136100000Y-97200000D03*
X136150000Y-82500000D03*
X137400000Y-88600000D03*
X137982500Y-79400000D03*
X138874620Y-84174620D03*
X138882500Y-79450000D03*
X139400000Y-76000000D03*
X141800000Y-86275000D03*
X144500000Y-70500000D03*
D11*
%TO.C,J1*%
X141900000Y-77000000D03*
X141900000Y-77800000D03*
X141900000Y-78600000D03*
X141900000Y-79400000D03*
X141900000Y-80200000D03*
X141900000Y-81000000D03*
X141900000Y-81800000D03*
X141900000Y-82600000D03*
X142600000Y-77400000D03*
X142600000Y-78200000D03*
X142600000Y-79000000D03*
X142600000Y-80600000D03*
X142600000Y-81400000D03*
X142600000Y-82200000D03*
D12*
X143350000Y-75530000D02*
X142750000Y-75530000D01*
X143350000Y-84070000D02*
X142750000Y-84070000D01*
X148080000Y-75530000D02*
X147480000Y-75530000D01*
X148080000Y-84070000D02*
X147480000Y-84070000D01*
D13*
%TO.C,TH1*%
X120295000Y-97900000D03*
X122195000Y-97900000D03*
D14*
%TO.C,SW1*%
X142442500Y-72800000D03*
X144982500Y-72800000D03*
X147522500Y-72800000D03*
D15*
%TO.C,J3*%
X137850000Y-97250000D03*
X140350000Y-97250000D03*
M02*
