%TF.GenerationSoftware,KiCad,Pcbnew,9.0.3*%
%TF.CreationDate,2025-07-30T22:19:27+08:00*%
%TF.ProjectId,airspeed_BIO,61697273-7065-4656-945f-42494f2e6b69,rev?*%
%TF.SameCoordinates,Original*%
%TF.FileFunction,Legend,Bot*%
%TF.FilePolarity,Positive*%
%FSLAX46Y46*%
G04 Gerber Fmt 4.6, Leading zero omitted, Abs format (unit mm)*
G04 Created by KiCad (PCBNEW 9.0.3) date 2025-07-30 22:19:27*
%MOMM*%
%LPD*%
G01*
G04 APERTURE LIST*
%ADD10C,0.120000*%
G04 APERTURE END LIST*
D10*
%TO.C,R19*%
X127277500Y-97237258D02*
X127277500Y-96762742D01*
X128322500Y-97237258D02*
X128322500Y-96762742D01*
%TO.C,R17*%
X125277500Y-97237258D02*
X125277500Y-96762742D01*
X126322500Y-97237258D02*
X126322500Y-96762742D01*
%TO.C,C9*%
X129034420Y-88390000D02*
X129315580Y-88390000D01*
X129034420Y-89410000D02*
X129315580Y-89410000D01*
%TO.C,C13*%
X122913748Y-79040000D02*
X124336252Y-79040000D01*
X122913748Y-81760000D02*
X124336252Y-81760000D01*
%TO.C,U7*%
X99140000Y-67150000D02*
X99140000Y-69750000D01*
X99140000Y-67150000D02*
X116340000Y-67150000D01*
X99140000Y-79750000D02*
X99140000Y-81750000D01*
X99140000Y-93750000D02*
X99140000Y-94350000D01*
X99140000Y-94350000D02*
X116340000Y-94350000D01*
X116340000Y-67150000D02*
X116340000Y-67750000D01*
X116340000Y-79750000D02*
X116340000Y-81750000D01*
X116340000Y-94350000D02*
X116340000Y-93750000D01*
%TO.C,U2*%
X119990000Y-82690000D02*
X119990000Y-83950000D01*
X119990000Y-89510000D02*
X119990000Y-88250000D01*
X123750000Y-82690000D02*
X119990000Y-82690000D01*
X123750000Y-89510000D02*
X119990000Y-89510000D01*
X125030000Y-82790000D02*
X124790000Y-82460000D01*
X125270000Y-82460000D01*
X125030000Y-82790000D01*
G36*
X125030000Y-82790000D02*
G01*
X124790000Y-82460000D01*
X125270000Y-82460000D01*
X125030000Y-82790000D01*
G37*
%TO.C,C8*%
X129034420Y-85380000D02*
X129315580Y-85380000D01*
X129034420Y-86400000D02*
X129315580Y-86400000D01*
%TO.C,R18*%
X129277500Y-97237258D02*
X129277500Y-96762742D01*
X130322500Y-97237258D02*
X130322500Y-96762742D01*
%TO.C,J4*%
X111115000Y-62650000D02*
X111115000Y-65350000D01*
X113835000Y-62600000D02*
X113835000Y-63240000D01*
X113835000Y-63240000D02*
X114465000Y-63240000D01*
X113835000Y-65400000D02*
X113835000Y-64760000D01*
%TO.C,C7*%
X129034420Y-86890000D02*
X129315580Y-86890000D01*
X129034420Y-87910000D02*
X129315580Y-87910000D01*
%TD*%
M02*
