%TF.GenerationSoftware,KiCad,Pcbnew,9.0.3*%
%TF.CreationDate,2025-07-30T22:19:27+08:00*%
%TF.ProjectId,airspeed_BIO,61697273-7065-4656-945f-42494f2e6b69,rev?*%
%TF.SameCoordinates,Original*%
%TF.FileFunction,Copper,L2,Bot*%
%TF.FilePolarity,Positive*%
%FSLAX46Y46*%
G04 Gerber Fmt 4.6, Leading zero omitted, Abs format (unit mm)*
G04 Created by KiCad (PCBNEW 9.0.3) date 2025-07-30 22:19:27*
%MOMM*%
%LPD*%
G01*
G04 APERTURE LIST*
G04 Aperture macros list*
%AMRoundRect*
0 Rectangle with rounded corners*
0 $1 Rounding radius*
0 $2 $3 $4 $5 $6 $7 $8 $9 X,Y pos of 4 corners*
0 Add a 4 corners polygon primitive as box body*
4,1,4,$2,$3,$4,$5,$6,$7,$8,$9,$2,$3,0*
0 Add four circle primitives for the rounded corners*
1,1,$1+$1,$2,$3*
1,1,$1+$1,$4,$5*
1,1,$1+$1,$6,$7*
1,1,$1+$1,$8,$9*
0 Add four rect primitives between the rounded corners*
20,1,$1+$1,$2,$3,$4,$5,0*
20,1,$1+$1,$4,$5,$6,$7,0*
20,1,$1+$1,$6,$7,$8,$9,0*
20,1,$1+$1,$8,$9,$2,$3,0*%
G04 Aperture macros list end*
%TA.AperFunction,ComponentPad*%
%ADD10C,0.650000*%
%TD*%
%TA.AperFunction,ComponentPad*%
%ADD11O,1.600000X1.000000*%
%TD*%
%TA.AperFunction,ComponentPad*%
%ADD12RoundRect,0.250000X-0.600000X-0.750000X0.600000X-0.750000X0.600000X0.750000X-0.600000X0.750000X0*%
%TD*%
%TA.AperFunction,ComponentPad*%
%ADD13O,1.700000X2.000000*%
%TD*%
%TA.AperFunction,ComponentPad*%
%ADD14C,1.400000*%
%TD*%
%TA.AperFunction,ComponentPad*%
%ADD15C,1.200000*%
%TD*%
%TA.AperFunction,SMDPad,CuDef*%
%ADD16RoundRect,0.200000X0.275000X-0.200000X0.275000X0.200000X-0.275000X0.200000X-0.275000X-0.200000X0*%
%TD*%
%TA.AperFunction,SMDPad,CuDef*%
%ADD17RoundRect,0.225000X-0.225000X-0.250000X0.225000X-0.250000X0.225000X0.250000X-0.225000X0.250000X0*%
%TD*%
%TA.AperFunction,SMDPad,CuDef*%
%ADD18RoundRect,0.250000X-0.325000X-1.100000X0.325000X-1.100000X0.325000X1.100000X-0.325000X1.100000X0*%
%TD*%
%TA.AperFunction,SMDPad,CuDef*%
%ADD19R,2.000000X1.000000*%
%TD*%
%TA.AperFunction,SMDPad,CuDef*%
%ADD20RoundRect,0.375000X0.625000X0.375000X-0.625000X0.375000X-0.625000X-0.375000X0.625000X-0.375000X0*%
%TD*%
%TA.AperFunction,SMDPad,CuDef*%
%ADD21RoundRect,0.500000X0.500000X1.400000X-0.500000X1.400000X-0.500000X-1.400000X0.500000X-1.400000X0*%
%TD*%
%TA.AperFunction,SMDPad,CuDef*%
%ADD22RoundRect,0.250000X0.275000X0.250000X-0.275000X0.250000X-0.275000X-0.250000X0.275000X-0.250000X0*%
%TD*%
%TA.AperFunction,SMDPad,CuDef*%
%ADD23RoundRect,0.250000X0.850000X0.275000X-0.850000X0.275000X-0.850000X-0.275000X0.850000X-0.275000X0*%
%TD*%
%TA.AperFunction,ViaPad*%
%ADD24C,0.600000*%
%TD*%
%TA.AperFunction,Conductor*%
%ADD25C,0.500000*%
%TD*%
%TA.AperFunction,Conductor*%
%ADD26C,0.200000*%
%TD*%
%TA.AperFunction,Conductor*%
%ADD27C,1.500000*%
%TD*%
%TA.AperFunction,Conductor*%
%ADD28C,2.000000*%
%TD*%
%TA.AperFunction,Conductor*%
%ADD29C,1.000000*%
%TD*%
%TA.AperFunction,Conductor*%
%ADD30C,0.127000*%
%TD*%
%TA.AperFunction,Conductor*%
%ADD31C,0.300000*%
%TD*%
G04 APERTURE END LIST*
D10*
%TO.P,J1,B1,GND*%
%TO.N,GND*%
X141900000Y-77000000D03*
%TO.P,J1,B2*%
%TO.N,N/C*%
X142600000Y-77400000D03*
%TO.P,J1,B3*%
X142600000Y-78200000D03*
%TO.P,J1,B4,VBUS*%
%TO.N,/connector/USB.VBUS*%
X141900000Y-78600000D03*
%TO.P,J1,B5,CC2*%
%TO.N,Net-(J1-CC2)*%
X142600000Y-79000000D03*
%TO.P,J1,B6,D+*%
%TO.N,/connector/USB.D+*%
X141900000Y-79400000D03*
%TO.P,J1,B7,D-*%
%TO.N,/connector/USB.D-*%
X141900000Y-80200000D03*
%TO.P,J1,B8,SBU2*%
%TO.N,unconnected-(J1-SBU2-PadB8)*%
X142600000Y-80600000D03*
%TO.P,J1,B9,VBUS*%
%TO.N,/connector/USB.VBUS*%
X141900000Y-81000000D03*
%TO.P,J1,B10*%
%TO.N,N/C*%
X142600000Y-81400000D03*
%TO.P,J1,B11*%
X142600000Y-82200000D03*
%TO.P,J1,B12,GND*%
%TO.N,GND*%
X141900000Y-82600000D03*
D11*
%TO.P,J1,S1,SHIELD*%
%TO.N,Net-(J1-SHIELD)*%
X143050000Y-84070000D03*
X147780000Y-84070000D03*
D10*
X141900000Y-81800000D03*
X141900000Y-77800000D03*
D11*
X143050000Y-75530000D03*
X147780000Y-75530000D03*
%TD*%
D12*
%TO.P,J3,1,Pin_1*%
%TO.N,GND*%
X137850000Y-97250000D03*
D13*
%TO.P,J3,2,Pin_2*%
%TO.N,/connector/BATT*%
X140350000Y-97250000D03*
%TD*%
D14*
%TO.P,TH1,1*%
%TO.N,GND*%
X120295000Y-97900000D03*
%TO.P,TH1,2*%
%TO.N,/power/NTC*%
X122195000Y-97900000D03*
%TD*%
D15*
%TO.P,SW1,1,A*%
%TO.N,Net-(SW1-A)*%
X142442500Y-72800000D03*
%TO.P,SW1,2,B*%
%TO.N,/connector/EN_power*%
X144982500Y-72800000D03*
%TO.P,SW1,3,C*%
%TO.N,Net-(SW1-C)*%
X147522500Y-72800000D03*
%TD*%
D16*
%TO.P,R19,1*%
%TO.N,Net-(D3-A)*%
X127800000Y-97825000D03*
%TO.P,R19,2*%
%TO.N,/power/VCCpm*%
X127800000Y-96175000D03*
%TD*%
%TO.P,R17,1*%
%TO.N,Net-(D1-A)*%
X125800000Y-97825000D03*
%TO.P,R17,2*%
%TO.N,/power/VCCpm*%
X125800000Y-96175000D03*
%TD*%
D17*
%TO.P,C9,1*%
%TO.N,+5V*%
X128400000Y-88900000D03*
%TO.P,C9,2*%
%TO.N,GND*%
X129950000Y-88900000D03*
%TD*%
D18*
%TO.P,C13,1*%
%TO.N,+3V3*%
X122150000Y-80400000D03*
%TO.P,C13,2*%
%TO.N,GND*%
X125100000Y-80400000D03*
%TD*%
D19*
%TO.P,U7,1,ANT*%
%TO.N,Net-(J4-In)*%
X115740000Y-68750000D03*
%TO.P,U7,2,GND*%
%TO.N,GND*%
X115740000Y-70750000D03*
%TO.P,U7,3,VCC*%
%TO.N,+3V3*%
X115740000Y-72750000D03*
%TO.P,U7,4,UTXD*%
%TO.N,/MCU/USART2.RX*%
X115740000Y-74750000D03*
%TO.P,U7,5,URXD*%
%TO.N,/MCU/USART2.TX*%
X115740000Y-76750000D03*
%TO.P,U7,6,~{RTS}*%
%TO.N,/MCU/USART2.CTS*%
X115740000Y-78750000D03*
%TO.P,U7,7,~{CTS}*%
%TO.N,/MCU/USART2.RTS*%
X115740000Y-82750000D03*
%TO.P,U7,8,~{DATA_IND}*%
%TO.N,/MCU/~{DATA_IND}*%
X115740000Y-84750000D03*
%TO.P,U7,9,RESERVED*%
%TO.N,unconnected-(U7-RESERVED-Pad9)*%
X115740000Y-86750000D03*
%TO.P,U7,10,RESERVED*%
%TO.N,unconnected-(U7-RESERVED-Pad10)*%
X115740000Y-88750000D03*
%TO.P,U7,11,~{DATA_REQ}*%
%TO.N,GND*%
X115740000Y-90750000D03*
%TO.P,U7,12,RESERVED*%
%TO.N,unconnected-(U7-RESERVED-Pad12)*%
X115740000Y-92750000D03*
%TO.P,U7,13,RESERVED*%
%TO.N,unconnected-(U7-RESERVED-Pad13)*%
X99740000Y-92750000D03*
%TO.P,U7,14,TRX_DISABLE*%
%TO.N,GND*%
X99740000Y-90750000D03*
%TO.P,U7,15,~{CONFIG}*%
X99740000Y-88750000D03*
%TO.P,U7,16,RESERVED*%
%TO.N,unconnected-(U7-RESERVED-Pad16)*%
X99740000Y-86750000D03*
%TO.P,U7,17,TEST*%
%TO.N,unconnected-(U7-TEST-Pad17)*%
X99740000Y-84750000D03*
%TO.P,U7,18,RESERVED*%
%TO.N,unconnected-(U7-RESERVED-Pad18)*%
X99740000Y-82750000D03*
%TO.P,U7,19,~{RESET}*%
%TO.N,/radio/RST*%
X99740000Y-78750000D03*
%TO.P,U7,20,TX_INDICATE*%
%TO.N,Net-(U7-TX_INDICATE)*%
X99740000Y-76750000D03*
%TO.P,U7,21,RX_INDICATE*%
%TO.N,Net-(U7-RX_INDICATE)*%
X99740000Y-74750000D03*
%TO.P,U7,22,RESERVED*%
%TO.N,unconnected-(U7-RESERVED-Pad22)*%
X99740000Y-72750000D03*
%TO.P,U7,23,GND*%
%TO.N,GND*%
X99740000Y-70750000D03*
%TD*%
D20*
%TO.P,U2,1,GND*%
%TO.N,GND*%
X125050000Y-83800000D03*
%TO.P,U2,2,Vout*%
%TO.N,+3V3*%
X125050000Y-86100000D03*
D21*
X118750000Y-86100000D03*
D20*
%TO.P,U2,3,VIN*%
%TO.N,+5V*%
X125050000Y-88400000D03*
%TD*%
D17*
%TO.P,C8,1*%
%TO.N,+5V*%
X128400000Y-85890000D03*
%TO.P,C8,2*%
%TO.N,GND*%
X129950000Y-85890000D03*
%TD*%
D16*
%TO.P,R18,1*%
%TO.N,Net-(D2-A)*%
X129800000Y-97825000D03*
%TO.P,R18,2*%
%TO.N,/power/VCCpm*%
X129800000Y-96175000D03*
%TD*%
D22*
%TO.P,J4,1,In*%
%TO.N,Net-(J4-In)*%
X114000000Y-64000000D03*
D23*
%TO.P,J4,2,Ext*%
%TO.N,GND*%
X112475000Y-65475000D03*
X112475000Y-62525000D03*
%TD*%
D17*
%TO.P,C7,1*%
%TO.N,+5V*%
X128400000Y-87400000D03*
%TO.P,C7,2*%
%TO.N,GND*%
X129950000Y-87400000D03*
%TD*%
D24*
%TO.N,GND*%
X101000000Y-81000000D03*
X109200000Y-62500000D03*
X101600000Y-98400000D03*
X132900000Y-83200000D03*
X125600000Y-71900000D03*
X117700000Y-70800000D03*
X104287500Y-76012500D03*
X110200000Y-76800000D03*
X109800000Y-97000000D03*
X123900000Y-95100000D03*
X131600000Y-98000000D03*
X101600000Y-96700000D03*
X108500000Y-97000000D03*
X103200000Y-65000000D03*
X113900000Y-69000000D03*
X103200000Y-63500000D03*
X128400000Y-80100000D03*
X125200000Y-63300000D03*
X136100000Y-97200000D03*
X105200000Y-88700000D03*
X103500000Y-98400000D03*
X127100000Y-83000000D03*
X113600000Y-90500000D03*
X137400000Y-88600000D03*
X131700000Y-85700000D03*
X128700000Y-94700000D03*
X110900000Y-90400000D03*
X117300000Y-62300000D03*
X113900000Y-67500000D03*
X136000000Y-94000000D03*
X117500000Y-68100000D03*
X123900000Y-73600000D03*
X106900000Y-73300000D03*
X102500000Y-88800000D03*
X123900000Y-97900000D03*
X131600000Y-94300000D03*
X130500000Y-63300000D03*
X115300000Y-62300000D03*
X117900000Y-97900000D03*
X103500000Y-96700000D03*
%TO.N,/connector/USB.VBUS*%
X135482500Y-79800000D03*
%TO.N,+5V*%
X119500000Y-90300000D03*
X129950000Y-83000000D03*
%TO.N,/connector/BATT*%
X126500000Y-90500000D03*
X132500000Y-90500000D03*
%TO.N,+3V3*%
X108600000Y-69100000D03*
X121200000Y-84200000D03*
X104700000Y-95000000D03*
X120200000Y-73050000D03*
X109200000Y-80500000D03*
X108600000Y-70900000D03*
X116400000Y-80500000D03*
X119000000Y-63500000D03*
X108600000Y-65100000D03*
%TO.N,Net-(D1-A)*%
X125800000Y-99000000D03*
%TO.N,Net-(D2-A)*%
X129800000Y-99000000D03*
%TO.N,Net-(D3-A)*%
X127800000Y-99000000D03*
%TO.N,/connector/USB.D+*%
X137982500Y-79400000D03*
%TO.N,/connector/USB.D-*%
X139400000Y-76000000D03*
X138882500Y-79450000D03*
%TO.N,/MCU/SYS.SWCLK*%
X119000000Y-94500000D03*
X108540000Y-92960000D03*
%TO.N,/MCU/SYS.SWDIO*%
X107270000Y-92960000D03*
X118100000Y-95100000D03*
%TO.N,Net-(U1-SW)*%
X138874620Y-84174620D03*
X129000000Y-84100000D03*
%TO.N,Net-(U1-CSP)*%
X141800000Y-86275000D03*
X125900000Y-89900000D03*
%TO.N,Net-(U1-PWIN)*%
X136150000Y-82500000D03*
X126700000Y-80900000D03*
%TO.N,Net-(U1-REG)*%
X131000000Y-92300000D03*
X124100000Y-92300000D03*
%TO.N,Net-(U1-ILIM)*%
X133600000Y-81300000D03*
X133500000Y-77000000D03*
%TO.N,/power/VCCpm*%
X134200000Y-86925000D03*
X144500000Y-70500000D03*
%TO.N,Net-(U1-FB)*%
X123700000Y-90400000D03*
X129799000Y-91650000D03*
%TO.N,/power/NTC*%
X129500000Y-93500000D03*
X124100000Y-93500000D03*
%TO.N,Net-(U7-RX_INDICATE)*%
X102000000Y-69500000D03*
%TO.N,Net-(U7-TX_INDICATE)*%
X103000000Y-72500000D03*
%TO.N,/radio/RST*%
X99500000Y-81000000D03*
%TO.N,/connector/EN_power*%
X131700000Y-84800000D03*
%TO.N,/MCU/I2C1.SDA*%
X112000000Y-76500000D03*
X107700000Y-76100000D03*
%TO.N,/MCU/I2C1.SCL*%
X108700000Y-75500000D03*
X113000000Y-77100000D03*
%TO.N,/MCU/USART2.RX*%
X110500000Y-85600000D03*
%TO.N,/MCU/USART2.RTS*%
X113434313Y-87000000D03*
%TO.N,/MCU/USART2.CTS*%
X112500000Y-88000000D03*
%TO.N,/MCU/USART2.TX*%
X111500000Y-86400000D03*
%TO.N,/MCU/~{DATA_IND}*%
X114000000Y-85000000D03*
%TD*%
D25*
%TO.N,GND*%
X115740000Y-90750000D02*
X117850000Y-90750000D01*
X102500000Y-90200000D02*
X102500000Y-88800000D01*
X101950000Y-90750000D02*
X102500000Y-90200000D01*
X115740000Y-70750000D02*
X117650000Y-70750000D01*
X129950000Y-85890000D02*
X131510000Y-85890000D01*
X99740000Y-88750000D02*
X102450000Y-88750000D01*
X113850000Y-90750000D02*
X113600000Y-90500000D01*
X117850000Y-90750000D02*
X118000000Y-90900000D01*
X99740000Y-90750000D02*
X101950000Y-90750000D01*
X102450000Y-88750000D02*
X102500000Y-88800000D01*
X131510000Y-85890000D02*
X131700000Y-85700000D01*
X115740000Y-90750000D02*
X113850000Y-90750000D01*
X117650000Y-70750000D02*
X117700000Y-70800000D01*
%TO.N,/connector/USB.VBUS*%
X141124000Y-78121430D02*
X141124000Y-78100000D01*
X135482500Y-78900000D02*
X135482500Y-79800000D01*
X141578570Y-78576000D02*
X141124000Y-78121430D01*
X136082500Y-81000000D02*
X135482500Y-80400000D01*
X136282500Y-78100000D02*
X135482500Y-78900000D01*
X141900000Y-81000000D02*
X136082500Y-81000000D01*
X141900000Y-78600000D02*
X141876000Y-78576000D01*
X141876000Y-78576000D02*
X141578570Y-78576000D01*
X135482500Y-80400000D02*
X135482500Y-79800000D01*
X141124000Y-78100000D02*
X136282500Y-78100000D01*
%TO.N,+5V*%
X125050000Y-88400000D02*
X121400000Y-88400000D01*
X121400000Y-88400000D02*
X119500000Y-90300000D01*
D26*
%TO.N,/connector/BATT*%
X126500000Y-90500000D02*
X132500000Y-90500000D01*
D27*
%TO.N,+3V3*%
X119700000Y-72750000D02*
X120000000Y-73050000D01*
D28*
X122150000Y-80400000D02*
X122150000Y-75200000D01*
D27*
X115740000Y-72750000D02*
X119700000Y-72750000D01*
D25*
X119000000Y-72050000D02*
X120000000Y-73050000D01*
D29*
X108600000Y-71600000D02*
X109750000Y-72750000D01*
X109750000Y-72750000D02*
X115740000Y-72750000D01*
D26*
X105300000Y-90600000D02*
X104700000Y-91200000D01*
X109200000Y-90000000D02*
X108600000Y-90600000D01*
X108600000Y-90600000D02*
X105300000Y-90600000D01*
D25*
X119000000Y-63500000D02*
X119000000Y-72050000D01*
D26*
X109200000Y-80500000D02*
X109200000Y-90000000D01*
D25*
X115990000Y-73000000D02*
X115740000Y-72750000D01*
D29*
X108600000Y-65100000D02*
X108600000Y-69100000D01*
D28*
X122150000Y-75200000D02*
X120000000Y-73050000D01*
D29*
X108600000Y-70900000D02*
X108600000Y-71600000D01*
D26*
X104700000Y-91200000D02*
X104700000Y-95000000D01*
D25*
X116500000Y-80400000D02*
X122150000Y-80400000D01*
D29*
X108600000Y-69100000D02*
X108600000Y-70900000D01*
D25*
X116400000Y-80500000D02*
X116500000Y-80400000D01*
D30*
%TO.N,Net-(D1-A)*%
X125800000Y-99000000D02*
X125800000Y-97825000D01*
%TO.N,Net-(D2-A)*%
X129800000Y-99000000D02*
X129800000Y-97825000D01*
%TO.N,Net-(D3-A)*%
X127800000Y-99000000D02*
X127800000Y-97825000D01*
%TO.N,/connector/USB.D+*%
X139968000Y-78885500D02*
X138497000Y-78885500D01*
X141900000Y-79400000D02*
X140482500Y-79400000D01*
X138497000Y-78885500D02*
X137982500Y-79400000D01*
X140482500Y-79400000D02*
X139968000Y-78885500D01*
%TO.N,/connector/USB.D-*%
X139400000Y-76000000D02*
X141700000Y-76000000D01*
X141700000Y-76000000D02*
X142110500Y-76410500D01*
X142089500Y-80010500D02*
X141900000Y-80200000D01*
X143310500Y-76410500D02*
X143700000Y-76800000D01*
X143700000Y-76800000D02*
X143700000Y-79700000D01*
X138882500Y-79450000D02*
X139632500Y-80200000D01*
X142110500Y-76410500D02*
X143310500Y-76410500D01*
X143389500Y-80010500D02*
X142089500Y-80010500D01*
X143700000Y-79700000D02*
X143389500Y-80010500D01*
X139632500Y-80200000D02*
X141900000Y-80200000D01*
D26*
%TO.N,/MCU/SYS.SWCLK*%
X110080000Y-94500000D02*
X108540000Y-92960000D01*
X119000000Y-94500000D02*
X110080000Y-94500000D01*
%TO.N,/MCU/SYS.SWDIO*%
X118100000Y-95100000D02*
X109410000Y-95100000D01*
X109410000Y-95100000D02*
X107270000Y-92960000D01*
D29*
%TO.N,Net-(J4-In)*%
X115740000Y-68750000D02*
X115740000Y-64740000D01*
X115740000Y-64740000D02*
X115000000Y-64000000D01*
X115000000Y-64000000D02*
X114000000Y-64000000D01*
D31*
%TO.N,Net-(U1-SW)*%
X138874620Y-84174620D02*
X138700000Y-84000000D01*
X129100000Y-84000000D02*
X129000000Y-84100000D01*
X138700000Y-84000000D02*
X129100000Y-84000000D01*
D26*
%TO.N,Net-(U1-CSP)*%
X141775000Y-86300000D02*
X141800000Y-86275000D01*
X132601000Y-89899000D02*
X133000000Y-89500000D01*
X126251057Y-89899000D02*
X132601000Y-89899000D01*
X126250057Y-89900000D02*
X126251057Y-89899000D01*
X125900000Y-89900000D02*
X126250057Y-89900000D01*
X133000000Y-89500000D02*
X133000000Y-87000000D01*
X133700000Y-86300000D02*
X141775000Y-86300000D01*
X133000000Y-87000000D02*
X133700000Y-86300000D01*
D31*
%TO.N,Net-(U1-PWIN)*%
X133800000Y-82500000D02*
X136150000Y-82500000D01*
X126700000Y-80900000D02*
X132200000Y-80900000D01*
X132200000Y-80900000D02*
X133800000Y-82500000D01*
%TO.N,Net-(U1-REG)*%
X124100000Y-92300000D02*
X131000000Y-92300000D01*
%TO.N,Net-(U1-ILIM)*%
X133500000Y-81200000D02*
X133600000Y-81300000D01*
X133500000Y-77000000D02*
X133500000Y-81200000D01*
%TO.N,/power/VCCpm*%
X134200000Y-95300000D02*
X134200000Y-86925000D01*
X144575000Y-86925000D02*
X146000000Y-85500000D01*
X146000000Y-85500000D02*
X146000000Y-72000000D01*
X133325000Y-96175000D02*
X134200000Y-95300000D01*
X129800000Y-96175000D02*
X133325000Y-96175000D01*
X134200000Y-86925000D02*
X144575000Y-86925000D01*
X125800000Y-96175000D02*
X129800000Y-96175000D01*
X146000000Y-72000000D02*
X144500000Y-70500000D01*
D26*
%TO.N,Net-(U1-FB)*%
X129799000Y-91650000D02*
X129649000Y-91500000D01*
X129649000Y-91500000D02*
X124800000Y-91500000D01*
X124800000Y-91500000D02*
X123700000Y-90400000D01*
%TO.N,/power/NTC*%
X129500000Y-93500000D02*
X124100000Y-93500000D01*
%TO.N,Net-(U7-RX_INDICATE)*%
X101500000Y-74500000D02*
X102000000Y-74000000D01*
X99740000Y-74750000D02*
X101250000Y-74750000D01*
X101250000Y-74750000D02*
X101500000Y-74500000D01*
X102000000Y-74000000D02*
X102000000Y-69500000D01*
%TO.N,Net-(U7-TX_INDICATE)*%
X103000000Y-75000000D02*
X103000000Y-72500000D01*
X101500000Y-76500000D02*
X103000000Y-75000000D01*
X99740000Y-76750000D02*
X101250000Y-76750000D01*
X101250000Y-76750000D02*
X101500000Y-76500000D01*
%TO.N,/radio/RST*%
X99500000Y-81000000D02*
X99500000Y-80500000D01*
X99740000Y-80260000D02*
X99740000Y-78750000D01*
X99500000Y-80500000D02*
X99740000Y-80260000D01*
D31*
%TO.N,/connector/EN_power*%
X144482500Y-85300000D02*
X144982500Y-84800000D01*
X132400000Y-84800000D02*
X132900000Y-85300000D01*
X131700000Y-84800000D02*
X132400000Y-84800000D01*
X144982500Y-84800000D02*
X144982500Y-72800000D01*
X132900000Y-85300000D02*
X144482500Y-85300000D01*
D26*
%TO.N,/MCU/I2C1.SDA*%
X112000000Y-76500000D02*
X111900000Y-76500000D01*
X111500000Y-76100000D02*
X107700000Y-76100000D01*
X111900000Y-76500000D02*
X111500000Y-76100000D01*
%TO.N,/MCU/I2C1.SCL*%
X112000000Y-75500000D02*
X113000000Y-76500000D01*
X108700000Y-75500000D02*
X112000000Y-75500000D01*
X113000000Y-76500000D02*
X113000000Y-77100000D01*
%TO.N,/MCU/USART2.RX*%
X113601000Y-77748943D02*
X110500000Y-80849943D01*
X110500000Y-80849943D02*
X110500000Y-85600000D01*
X113952000Y-74750000D02*
X113601000Y-75101000D01*
X113601000Y-75101000D02*
X113601000Y-77748943D01*
X115740000Y-74750000D02*
X113952000Y-74750000D01*
%TO.N,/MCU/USART2.RTS*%
X114250000Y-82750000D02*
X115740000Y-82750000D01*
X113399000Y-83601000D02*
X113399000Y-86964687D01*
X113399000Y-86964687D02*
X113434313Y-87000000D01*
X113399000Y-83601000D02*
X114250000Y-82750000D01*
%TO.N,/MCU/USART2.CTS*%
X112500000Y-80000000D02*
X113750000Y-78750000D01*
X113750000Y-78750000D02*
X115740000Y-78750000D01*
X112500000Y-88000000D02*
X112500000Y-80000000D01*
%TO.N,/MCU/USART2.TX*%
X111500000Y-80432900D02*
X115182900Y-76750000D01*
X111500000Y-86400000D02*
X111500000Y-80432900D01*
X115182900Y-76750000D02*
X115740000Y-76750000D01*
%TO.N,/MCU/~{DATA_IND}*%
X114250000Y-84750000D02*
X114000000Y-85000000D01*
X115740000Y-84750000D02*
X114250000Y-84750000D01*
%TD*%
%TA.AperFunction,Conductor*%
%TO.N,GND*%
G36*
X131077404Y-84470185D02*
G01*
X131123159Y-84522989D01*
X131133103Y-84592147D01*
X131130140Y-84606591D01*
X131099500Y-84720943D01*
X131099500Y-84879057D01*
X131135920Y-85014976D01*
X131140423Y-85031783D01*
X131140426Y-85031790D01*
X131219475Y-85168709D01*
X131219479Y-85168714D01*
X131219480Y-85168716D01*
X131331284Y-85280520D01*
X131331286Y-85280521D01*
X131331290Y-85280524D01*
X131419597Y-85331507D01*
X131468216Y-85359577D01*
X131620943Y-85400500D01*
X131620945Y-85400500D01*
X131779055Y-85400500D01*
X131779057Y-85400500D01*
X131931784Y-85359577D01*
X132068716Y-85280520D01*
X132068721Y-85280514D01*
X132074443Y-85276125D01*
X132095765Y-85267881D01*
X132114996Y-85255523D01*
X132135272Y-85252607D01*
X132139612Y-85250930D01*
X132149931Y-85250500D01*
X132162035Y-85250500D01*
X132229074Y-85270185D01*
X132249715Y-85286818D01*
X132623386Y-85660490D01*
X132726113Y-85719799D01*
X132750321Y-85726284D01*
X132750324Y-85726286D01*
X132750325Y-85726286D01*
X132780447Y-85734357D01*
X132840691Y-85750500D01*
X133387988Y-85750500D01*
X133455027Y-85770185D01*
X133500782Y-85822989D01*
X133510726Y-85892147D01*
X133481701Y-85955703D01*
X133459878Y-85973721D01*
X133460533Y-85974574D01*
X133454087Y-85979519D01*
X132679522Y-86754084D01*
X132679520Y-86754087D01*
X132626793Y-86845410D01*
X132621766Y-86864173D01*
X132618731Y-86875500D01*
X132618731Y-86875501D01*
X132618730Y-86875500D01*
X132599500Y-86947271D01*
X132599500Y-89282745D01*
X132590855Y-89312185D01*
X132584332Y-89342172D01*
X132580577Y-89347187D01*
X132579815Y-89349784D01*
X132563181Y-89370426D01*
X132471426Y-89462181D01*
X132410103Y-89495666D01*
X132383745Y-89498500D01*
X130995007Y-89498500D01*
X130927968Y-89478815D01*
X130882213Y-89426011D01*
X130872269Y-89356853D01*
X130877301Y-89335497D01*
X130889855Y-89297608D01*
X130899999Y-89198322D01*
X130900000Y-89198309D01*
X130900000Y-89150000D01*
X130074000Y-89150000D01*
X130006961Y-89130315D01*
X129961206Y-89077511D01*
X129950000Y-89026000D01*
X129950000Y-88900000D01*
X129824000Y-88900000D01*
X129756961Y-88880315D01*
X129711206Y-88827511D01*
X129700000Y-88776000D01*
X129700000Y-88650000D01*
X130200000Y-88650000D01*
X130899999Y-88650000D01*
X130899999Y-88601692D01*
X130899998Y-88601677D01*
X130889855Y-88502392D01*
X130836547Y-88341518D01*
X130836544Y-88341511D01*
X130758570Y-88215098D01*
X130740129Y-88147705D01*
X130758570Y-88084902D01*
X130836544Y-87958488D01*
X130836547Y-87958481D01*
X130889855Y-87797606D01*
X130899999Y-87698322D01*
X130900000Y-87698309D01*
X130900000Y-87650000D01*
X130200000Y-87650000D01*
X130200000Y-88650000D01*
X129700000Y-88650000D01*
X129700000Y-87150000D01*
X130200000Y-87150000D01*
X130899999Y-87150000D01*
X130899999Y-87101692D01*
X130899998Y-87101677D01*
X130889855Y-87002392D01*
X130836547Y-86841518D01*
X130836544Y-86841511D01*
X130755486Y-86710098D01*
X130737045Y-86642705D01*
X130755486Y-86579902D01*
X130836544Y-86448488D01*
X130836547Y-86448481D01*
X130889855Y-86287606D01*
X130899999Y-86188322D01*
X130900000Y-86188309D01*
X130900000Y-86140000D01*
X130200000Y-86140000D01*
X130200000Y-87150000D01*
X129700000Y-87150000D01*
X129700000Y-85640000D01*
X130200000Y-85640000D01*
X130899999Y-85640000D01*
X130899999Y-85591692D01*
X130899998Y-85591677D01*
X130889855Y-85492392D01*
X130836547Y-85331518D01*
X130836542Y-85331507D01*
X130747575Y-85187271D01*
X130747572Y-85187267D01*
X130627732Y-85067427D01*
X130627728Y-85067424D01*
X130483492Y-84978457D01*
X130483481Y-84978452D01*
X130322606Y-84925144D01*
X130223322Y-84915000D01*
X130200000Y-84915000D01*
X130200000Y-85640000D01*
X129700000Y-85640000D01*
X129700000Y-84940458D01*
X129622725Y-84902028D01*
X129617602Y-84897283D01*
X129610904Y-84895317D01*
X129592300Y-84873849D01*
X129571464Y-84854550D01*
X129569720Y-84847791D01*
X129565148Y-84842515D01*
X129558964Y-84825934D01*
X129558621Y-84824767D01*
X129540484Y-84762996D01*
X129513458Y-84720943D01*
X129462429Y-84641540D01*
X129442744Y-84574500D01*
X129462429Y-84507461D01*
X129515232Y-84461706D01*
X129566744Y-84450500D01*
X131010365Y-84450500D01*
X131077404Y-84470185D01*
G37*
%TD.AperFunction*%
%TA.AperFunction,Conductor*%
G36*
X147504043Y-61000765D02*
G01*
X147752895Y-61017075D01*
X147768953Y-61019190D01*
X147976105Y-61060395D01*
X148009535Y-61067045D01*
X148025202Y-61071243D01*
X148194947Y-61128863D01*
X148257481Y-61150091D01*
X148272458Y-61156294D01*
X148481799Y-61259529D01*
X148492460Y-61264787D01*
X148506508Y-61272897D01*
X148710464Y-61409177D01*
X148723328Y-61419048D01*
X148907749Y-61580781D01*
X148919218Y-61592250D01*
X149056196Y-61748444D01*
X149080951Y-61776671D01*
X149090825Y-61789539D01*
X149227102Y-61993492D01*
X149235212Y-62007539D01*
X149343702Y-62227534D01*
X149349909Y-62242520D01*
X149428756Y-62474797D01*
X149432954Y-62490464D01*
X149480807Y-62731035D01*
X149482925Y-62747116D01*
X149499235Y-62995956D01*
X149499500Y-63004066D01*
X149499500Y-97495933D01*
X149499235Y-97504043D01*
X149482925Y-97752883D01*
X149480807Y-97768964D01*
X149432954Y-98009535D01*
X149428756Y-98025202D01*
X149349909Y-98257479D01*
X149343702Y-98272465D01*
X149235212Y-98492460D01*
X149227102Y-98506507D01*
X149090825Y-98710460D01*
X149080951Y-98723328D01*
X148919218Y-98907749D01*
X148907749Y-98919218D01*
X148723328Y-99080951D01*
X148710460Y-99090825D01*
X148506507Y-99227102D01*
X148492460Y-99235212D01*
X148272465Y-99343702D01*
X148257479Y-99349909D01*
X148025202Y-99428756D01*
X148009535Y-99432954D01*
X147768964Y-99480807D01*
X147752883Y-99482925D01*
X147504043Y-99499235D01*
X147495933Y-99499500D01*
X130419786Y-99499500D01*
X130352747Y-99479815D01*
X130306992Y-99427011D01*
X130297048Y-99357853D01*
X130312398Y-99313501D01*
X130359577Y-99231784D01*
X130400500Y-99079057D01*
X130400500Y-98920943D01*
X130359577Y-98768216D01*
X130281154Y-98632382D01*
X130264682Y-98564482D01*
X130287535Y-98498455D01*
X130314231Y-98471116D01*
X130317329Y-98468796D01*
X130317331Y-98468796D01*
X130432546Y-98382546D01*
X130518796Y-98267331D01*
X130569091Y-98132483D01*
X130575500Y-98072873D01*
X130575499Y-97577128D01*
X130569091Y-97517517D01*
X130518796Y-97382669D01*
X130518795Y-97382668D01*
X130518793Y-97382664D01*
X130432547Y-97267455D01*
X130432544Y-97267452D01*
X130317335Y-97181206D01*
X130317328Y-97181202D01*
X130182486Y-97130910D01*
X130182485Y-97130909D01*
X130182483Y-97130909D01*
X130122873Y-97124500D01*
X130122863Y-97124500D01*
X129477129Y-97124500D01*
X129477123Y-97124501D01*
X129417516Y-97130908D01*
X129282671Y-97181202D01*
X129282664Y-97181206D01*
X129167455Y-97267452D01*
X129167452Y-97267455D01*
X129081206Y-97382664D01*
X129081202Y-97382671D01*
X129038959Y-97495933D01*
X129030909Y-97517517D01*
X129024500Y-97577127D01*
X129024500Y-97577134D01*
X129024500Y-97577135D01*
X129024500Y-98072870D01*
X129024501Y-98072876D01*
X129030908Y-98132483D01*
X129081202Y-98267328D01*
X129081206Y-98267335D01*
X129167452Y-98382544D01*
X129167455Y-98382547D01*
X129285768Y-98471117D01*
X129327639Y-98527051D01*
X129332623Y-98596742D01*
X129318845Y-98632382D01*
X129240423Y-98768215D01*
X129240423Y-98768216D01*
X129199500Y-98920943D01*
X129199500Y-99079057D01*
X129239169Y-99227102D01*
X129240423Y-99231783D01*
X129240423Y-99231784D01*
X129287602Y-99313501D01*
X129304074Y-99381401D01*
X129281221Y-99447428D01*
X129226299Y-99490618D01*
X129180214Y-99499500D01*
X128419786Y-99499500D01*
X128352747Y-99479815D01*
X128306992Y-99427011D01*
X128297048Y-99357853D01*
X128312398Y-99313501D01*
X128359577Y-99231784D01*
X128400500Y-99079057D01*
X128400500Y-98920943D01*
X128359577Y-98768216D01*
X128281154Y-98632382D01*
X128264682Y-98564482D01*
X128287535Y-98498455D01*
X128314231Y-98471116D01*
X128317329Y-98468796D01*
X128317331Y-98468796D01*
X128432546Y-98382546D01*
X128518796Y-98267331D01*
X128569091Y-98132483D01*
X128575500Y-98072873D01*
X128575499Y-97577128D01*
X128569091Y-97517517D01*
X128559563Y-97491972D01*
X128518797Y-97382671D01*
X128518793Y-97382664D01*
X128432547Y-97267455D01*
X128432544Y-97267452D01*
X128317335Y-97181206D01*
X128317328Y-97181202D01*
X128182486Y-97130910D01*
X128182485Y-97130909D01*
X128182483Y-97130909D01*
X128122873Y-97124500D01*
X128122863Y-97124500D01*
X127477129Y-97124500D01*
X127477123Y-97124501D01*
X127417516Y-97130908D01*
X127282671Y-97181202D01*
X127282664Y-97181206D01*
X127167455Y-97267452D01*
X127167452Y-97267455D01*
X127081206Y-97382664D01*
X127081202Y-97382671D01*
X127038959Y-97495933D01*
X127030909Y-97517517D01*
X127024500Y-97577127D01*
X127024500Y-97577134D01*
X127024500Y-97577135D01*
X127024500Y-98072870D01*
X127024501Y-98072876D01*
X127030908Y-98132483D01*
X127081202Y-98267328D01*
X127081206Y-98267335D01*
X127167452Y-98382544D01*
X127167455Y-98382547D01*
X127285768Y-98471117D01*
X127327639Y-98527051D01*
X127332623Y-98596742D01*
X127318845Y-98632382D01*
X127240423Y-98768215D01*
X127240423Y-98768216D01*
X127199500Y-98920943D01*
X127199500Y-99079057D01*
X127239169Y-99227102D01*
X127240423Y-99231783D01*
X127240423Y-99231784D01*
X127287602Y-99313501D01*
X127304074Y-99381401D01*
X127281221Y-99447428D01*
X127226299Y-99490618D01*
X127180214Y-99499500D01*
X126419786Y-99499500D01*
X126352747Y-99479815D01*
X126306992Y-99427011D01*
X126297048Y-99357853D01*
X126312398Y-99313501D01*
X126359577Y-99231784D01*
X126400500Y-99079057D01*
X126400500Y-98920943D01*
X126359577Y-98768216D01*
X126281154Y-98632382D01*
X126264682Y-98564482D01*
X126287535Y-98498455D01*
X126314231Y-98471116D01*
X126317329Y-98468796D01*
X126317331Y-98468796D01*
X126432546Y-98382546D01*
X126518796Y-98267331D01*
X126569091Y-98132483D01*
X126575500Y-98072873D01*
X126575499Y-97577128D01*
X126569091Y-97517517D01*
X126559563Y-97491972D01*
X126518797Y-97382671D01*
X126518793Y-97382664D01*
X126432547Y-97267455D01*
X126432544Y-97267452D01*
X126317335Y-97181206D01*
X126317328Y-97181202D01*
X126182486Y-97130910D01*
X126182485Y-97130909D01*
X126182483Y-97130909D01*
X126122873Y-97124500D01*
X126122863Y-97124500D01*
X125477129Y-97124500D01*
X125477123Y-97124501D01*
X125417516Y-97130908D01*
X125282671Y-97181202D01*
X125282664Y-97181206D01*
X125167455Y-97267452D01*
X125167452Y-97267455D01*
X125081206Y-97382664D01*
X125081202Y-97382671D01*
X125038959Y-97495933D01*
X125030909Y-97517517D01*
X125024500Y-97577127D01*
X125024500Y-97577134D01*
X125024500Y-97577135D01*
X125024500Y-98072870D01*
X125024501Y-98072876D01*
X125030908Y-98132483D01*
X125081202Y-98267328D01*
X125081206Y-98267335D01*
X125167452Y-98382544D01*
X125167455Y-98382547D01*
X125285768Y-98471117D01*
X125327639Y-98527051D01*
X125332623Y-98596742D01*
X125318845Y-98632382D01*
X125240423Y-98768215D01*
X125240423Y-98768216D01*
X125199500Y-98920943D01*
X125199500Y-99079057D01*
X125239169Y-99227102D01*
X125240423Y-99231783D01*
X125240423Y-99231784D01*
X125287602Y-99313501D01*
X125304074Y-99381401D01*
X125281221Y-99447428D01*
X125226299Y-99490618D01*
X125180214Y-99499500D01*
X98004067Y-99499500D01*
X97995957Y-99499235D01*
X97747116Y-99482925D01*
X97731035Y-99480807D01*
X97490464Y-99432954D01*
X97474797Y-99428756D01*
X97242520Y-99349909D01*
X97227534Y-99343702D01*
X97007539Y-99235212D01*
X96993492Y-99227102D01*
X96789539Y-99090825D01*
X96776671Y-99080951D01*
X96774511Y-99079057D01*
X96698144Y-99012085D01*
X96592250Y-98919218D01*
X96580914Y-98907882D01*
X119640669Y-98907882D01*
X119640670Y-98907883D01*
X119666059Y-98926329D01*
X119834362Y-99012085D01*
X120013997Y-99070451D01*
X120200553Y-99100000D01*
X120389447Y-99100000D01*
X120576002Y-99070451D01*
X120755637Y-99012085D01*
X120923937Y-98926331D01*
X120949328Y-98907883D01*
X120949328Y-98907882D01*
X120295001Y-98253554D01*
X120295000Y-98253554D01*
X119640669Y-98907882D01*
X96580914Y-98907882D01*
X96580781Y-98907749D01*
X96443804Y-98751557D01*
X96419045Y-98723325D01*
X96409174Y-98710460D01*
X96391733Y-98684358D01*
X96272897Y-98506507D01*
X96264787Y-98492460D01*
X96209222Y-98379786D01*
X96156294Y-98272458D01*
X96150090Y-98257479D01*
X96071243Y-98025202D01*
X96067045Y-98009535D01*
X96059186Y-97970026D01*
X96019190Y-97768953D01*
X96017075Y-97752895D01*
X96000765Y-97504043D01*
X96000500Y-97495933D01*
X96000500Y-97393713D01*
X96649500Y-97393713D01*
X96649500Y-97606287D01*
X96649798Y-97608170D01*
X96681060Y-97805552D01*
X96682754Y-97816243D01*
X96743434Y-98002997D01*
X96748444Y-98018414D01*
X96844951Y-98207820D01*
X96969890Y-98379786D01*
X97120213Y-98530109D01*
X97292179Y-98655048D01*
X97292181Y-98655049D01*
X97292184Y-98655051D01*
X97481588Y-98751557D01*
X97683757Y-98817246D01*
X97893713Y-98850500D01*
X97893714Y-98850500D01*
X98106286Y-98850500D01*
X98106287Y-98850500D01*
X98316243Y-98817246D01*
X98518412Y-98751557D01*
X98518416Y-98751555D01*
X98521196Y-98750139D01*
X98521197Y-98750138D01*
X98542065Y-98739505D01*
X98707816Y-98655051D01*
X98788072Y-98596742D01*
X98879786Y-98530109D01*
X98879788Y-98530106D01*
X98879792Y-98530104D01*
X99030104Y-98379792D01*
X99030106Y-98379788D01*
X99030109Y-98379786D01*
X99155048Y-98207820D01*
X99155047Y-98207820D01*
X99155051Y-98207816D01*
X99251557Y-98018412D01*
X99317246Y-97816243D01*
X99318939Y-97805552D01*
X119095000Y-97805552D01*
X119095000Y-97994447D01*
X119124548Y-98181002D01*
X119182914Y-98360637D01*
X119268666Y-98528933D01*
X119287116Y-98554328D01*
X119941446Y-97900000D01*
X119941446Y-97899999D01*
X119895369Y-97853922D01*
X119945000Y-97853922D01*
X119945000Y-97946078D01*
X119968852Y-98035095D01*
X120014930Y-98114905D01*
X120080095Y-98180070D01*
X120159905Y-98226148D01*
X120248922Y-98250000D01*
X120341078Y-98250000D01*
X120430095Y-98226148D01*
X120509905Y-98180070D01*
X120575070Y-98114905D01*
X120621148Y-98035095D01*
X120645000Y-97946078D01*
X120645000Y-97899999D01*
X120648554Y-97899999D01*
X120648554Y-97900000D01*
X121302882Y-98554328D01*
X121359871Y-98549844D01*
X121359900Y-98550220D01*
X121397831Y-98546962D01*
X121459627Y-98579566D01*
X121460890Y-98580812D01*
X121557214Y-98677136D01*
X121557218Y-98677139D01*
X121721079Y-98786628D01*
X121721092Y-98786635D01*
X121794995Y-98817246D01*
X121903165Y-98862051D01*
X121903169Y-98862051D01*
X121903170Y-98862052D01*
X122096456Y-98900500D01*
X122096459Y-98900500D01*
X122293543Y-98900500D01*
X122423582Y-98874632D01*
X122486835Y-98862051D01*
X122668914Y-98786632D01*
X122832782Y-98677139D01*
X122972139Y-98537782D01*
X123081632Y-98373914D01*
X123087132Y-98360637D01*
X123126672Y-98265176D01*
X123157051Y-98191835D01*
X123180714Y-98072873D01*
X123195500Y-97998543D01*
X123195500Y-97801456D01*
X123157052Y-97608170D01*
X123157051Y-97608169D01*
X123157051Y-97608165D01*
X123135861Y-97557007D01*
X123081635Y-97426092D01*
X123081628Y-97426079D01*
X122972139Y-97262218D01*
X122972136Y-97262214D01*
X122832785Y-97122863D01*
X122832781Y-97122860D01*
X122668920Y-97013371D01*
X122668907Y-97013364D01*
X122486839Y-96937950D01*
X122486829Y-96937947D01*
X122293543Y-96899500D01*
X122293541Y-96899500D01*
X122096459Y-96899500D01*
X122096457Y-96899500D01*
X121903170Y-96937947D01*
X121903160Y-96937950D01*
X121721092Y-97013364D01*
X121721079Y-97013371D01*
X121557218Y-97122860D01*
X121460891Y-97219187D01*
X121399567Y-97252671D01*
X121359897Y-97249833D01*
X121359872Y-97250155D01*
X121302882Y-97245669D01*
X120648554Y-97899999D01*
X120645000Y-97899999D01*
X120645000Y-97853922D01*
X120621148Y-97764905D01*
X120575070Y-97685095D01*
X120509905Y-97619930D01*
X120430095Y-97573852D01*
X120341078Y-97550000D01*
X120248922Y-97550000D01*
X120159905Y-97573852D01*
X120080095Y-97619930D01*
X120014930Y-97685095D01*
X119968852Y-97764905D01*
X119945000Y-97853922D01*
X119895369Y-97853922D01*
X119287116Y-97245669D01*
X119287116Y-97245670D01*
X119268669Y-97271060D01*
X119182914Y-97439362D01*
X119124548Y-97618997D01*
X119095000Y-97805552D01*
X99318939Y-97805552D01*
X99350500Y-97606287D01*
X99350500Y-97393713D01*
X99317246Y-97183757D01*
X99251557Y-96981588D01*
X99205969Y-96892116D01*
X119640669Y-96892116D01*
X120295000Y-97546446D01*
X120295001Y-97546446D01*
X120949328Y-96892116D01*
X120923933Y-96873666D01*
X120755637Y-96787914D01*
X120576002Y-96729548D01*
X120389447Y-96700000D01*
X120200553Y-96700000D01*
X120013997Y-96729548D01*
X119834362Y-96787914D01*
X119666060Y-96873669D01*
X119640670Y-96892116D01*
X119640669Y-96892116D01*
X99205969Y-96892116D01*
X99155051Y-96792184D01*
X99155049Y-96792181D01*
X99155048Y-96792179D01*
X99030109Y-96620213D01*
X98879786Y-96469890D01*
X98707820Y-96344951D01*
X98518414Y-96248444D01*
X98518413Y-96248443D01*
X98518412Y-96248443D01*
X98316243Y-96182754D01*
X98316241Y-96182753D01*
X98316240Y-96182753D01*
X98154957Y-96157208D01*
X98106287Y-96149500D01*
X97893713Y-96149500D01*
X97845042Y-96157208D01*
X97683760Y-96182753D01*
X97481585Y-96248444D01*
X97292179Y-96344951D01*
X97120213Y-96469890D01*
X96969890Y-96620213D01*
X96844951Y-96792179D01*
X96748444Y-96981585D01*
X96682753Y-97183760D01*
X96669497Y-97267455D01*
X96649500Y-97393713D01*
X96000500Y-97393713D01*
X96000500Y-94920943D01*
X104099500Y-94920943D01*
X104099500Y-95079057D01*
X104124425Y-95172076D01*
X104140423Y-95231783D01*
X104140426Y-95231790D01*
X104219475Y-95368709D01*
X104219479Y-95368714D01*
X104219480Y-95368716D01*
X104331284Y-95480520D01*
X104331286Y-95480521D01*
X104331290Y-95480524D01*
X104468209Y-95559573D01*
X104468216Y-95559577D01*
X104620943Y-95600500D01*
X104620945Y-95600500D01*
X104779055Y-95600500D01*
X104779057Y-95600500D01*
X104931784Y-95559577D01*
X105068716Y-95480520D01*
X105180520Y-95368716D01*
X105259577Y-95231784D01*
X105300500Y-95079057D01*
X105300500Y-94920943D01*
X105259577Y-94768216D01*
X105219904Y-94699500D01*
X105180524Y-94631290D01*
X105180518Y-94631282D01*
X105136819Y-94587583D01*
X105103334Y-94526260D01*
X105100500Y-94499902D01*
X105100500Y-92880943D01*
X106669500Y-92880943D01*
X106669500Y-93039057D01*
X106685608Y-93099171D01*
X106710423Y-93191783D01*
X106710426Y-93191790D01*
X106789475Y-93328709D01*
X106789479Y-93328714D01*
X106789480Y-93328716D01*
X106901284Y-93440520D01*
X106901286Y-93440521D01*
X106901290Y-93440524D01*
X107008128Y-93502206D01*
X107038216Y-93519577D01*
X107190943Y-93560500D01*
X107252745Y-93560500D01*
X107319784Y-93580185D01*
X107340426Y-93596819D01*
X109164087Y-95420480D01*
X109255412Y-95473207D01*
X109357273Y-95500500D01*
X109462727Y-95500500D01*
X117599902Y-95500500D01*
X117666941Y-95520185D01*
X117687583Y-95536819D01*
X117731284Y-95580520D01*
X117731286Y-95580521D01*
X117731290Y-95580524D01*
X117795261Y-95617457D01*
X117868216Y-95659577D01*
X118020943Y-95700500D01*
X118020945Y-95700500D01*
X118179055Y-95700500D01*
X118179057Y-95700500D01*
X118331784Y-95659577D01*
X118468716Y-95580520D01*
X118580520Y-95468716D01*
X118659577Y-95331784D01*
X118700500Y-95179057D01*
X118700500Y-95179055D01*
X118702603Y-95171207D01*
X118705849Y-95172076D01*
X118727775Y-95122453D01*
X118786082Y-95083956D01*
X118854575Y-95082717D01*
X118920943Y-95100500D01*
X118920945Y-95100500D01*
X119079055Y-95100500D01*
X119079057Y-95100500D01*
X119231784Y-95059577D01*
X119368716Y-94980520D01*
X119480520Y-94868716D01*
X119559577Y-94731784D01*
X119600500Y-94579057D01*
X119600500Y-94420943D01*
X119559577Y-94268216D01*
X119559573Y-94268209D01*
X119480524Y-94131290D01*
X119480518Y-94131282D01*
X119368717Y-94019481D01*
X119368709Y-94019475D01*
X119231790Y-93940426D01*
X119231786Y-93940424D01*
X119231784Y-93940423D01*
X119079057Y-93899500D01*
X118920943Y-93899500D01*
X118768216Y-93940423D01*
X118768209Y-93940426D01*
X118631290Y-94019475D01*
X118631282Y-94019481D01*
X118587583Y-94063181D01*
X118526260Y-94096666D01*
X118499902Y-94099500D01*
X110297255Y-94099500D01*
X110230216Y-94079815D01*
X110209574Y-94063181D01*
X109176819Y-93030426D01*
X109143334Y-92969103D01*
X109140500Y-92942745D01*
X109140500Y-92880945D01*
X109140500Y-92880943D01*
X109099577Y-92728216D01*
X109088091Y-92708322D01*
X109020524Y-92591290D01*
X109020518Y-92591282D01*
X108908717Y-92479481D01*
X108908709Y-92479475D01*
X108771790Y-92400426D01*
X108771786Y-92400424D01*
X108771784Y-92400423D01*
X108619057Y-92359500D01*
X108460943Y-92359500D01*
X108308216Y-92400423D01*
X108308209Y-92400426D01*
X108171290Y-92479475D01*
X108171282Y-92479481D01*
X108059481Y-92591282D01*
X108059477Y-92591287D01*
X108012387Y-92672851D01*
X107961820Y-92721067D01*
X107893213Y-92734290D01*
X107828348Y-92708322D01*
X107797613Y-92672851D01*
X107750522Y-92591287D01*
X107750518Y-92591282D01*
X107638717Y-92479481D01*
X107638709Y-92479475D01*
X107501790Y-92400426D01*
X107501786Y-92400424D01*
X107501784Y-92400423D01*
X107349057Y-92359500D01*
X107190943Y-92359500D01*
X107038216Y-92400423D01*
X107038209Y-92400426D01*
X106901290Y-92479475D01*
X106901282Y-92479481D01*
X106789481Y-92591282D01*
X106789475Y-92591290D01*
X106710426Y-92728209D01*
X106710423Y-92728216D01*
X106669500Y-92880943D01*
X105100500Y-92880943D01*
X105100500Y-92205131D01*
X114439500Y-92205131D01*
X114439500Y-93294856D01*
X114439502Y-93294882D01*
X114442413Y-93319987D01*
X114442415Y-93319991D01*
X114487793Y-93422764D01*
X114487794Y-93422765D01*
X114567235Y-93502206D01*
X114670009Y-93547585D01*
X114695135Y-93550500D01*
X116784864Y-93550499D01*
X116784879Y-93550497D01*
X116784882Y-93550497D01*
X116809987Y-93547586D01*
X116809988Y-93547585D01*
X116809991Y-93547585D01*
X116912765Y-93502206D01*
X116992206Y-93422765D01*
X117037585Y-93319991D01*
X117040500Y-93294865D01*
X117040499Y-92205136D01*
X117040497Y-92205117D01*
X117037586Y-92180012D01*
X117037585Y-92180010D01*
X117037585Y-92180009D01*
X116992206Y-92077235D01*
X116912765Y-91997794D01*
X116912763Y-91997793D01*
X116809992Y-91952415D01*
X116784868Y-91949500D01*
X116489391Y-91949500D01*
X116422352Y-91929815D01*
X116376597Y-91877011D01*
X116366653Y-91807853D01*
X116374830Y-91778047D01*
X116386447Y-91749999D01*
X115740000Y-91103552D01*
X115093552Y-91749999D01*
X115105170Y-91778047D01*
X115112639Y-91847516D01*
X115081364Y-91909996D01*
X115021275Y-91945648D01*
X114990609Y-91949500D01*
X114695143Y-91949500D01*
X114695117Y-91949502D01*
X114670012Y-91952413D01*
X114670008Y-91952415D01*
X114567235Y-91997793D01*
X114487794Y-92077234D01*
X114442415Y-92180006D01*
X114442415Y-92180008D01*
X114439500Y-92205131D01*
X105100500Y-92205131D01*
X105100500Y-91417255D01*
X105120185Y-91350216D01*
X105136819Y-91329574D01*
X105429574Y-91036819D01*
X105490897Y-91003334D01*
X105517255Y-91000500D01*
X108652725Y-91000500D01*
X108652727Y-91000500D01*
X108754588Y-90973207D01*
X108845913Y-90920480D01*
X109520480Y-90245913D01*
X109545744Y-90202155D01*
X114240000Y-90202155D01*
X114240000Y-91297844D01*
X114246401Y-91357372D01*
X114246403Y-91357379D01*
X114296645Y-91492086D01*
X114296649Y-91492093D01*
X114382809Y-91607186D01*
X114466563Y-91669884D01*
X115386448Y-90750000D01*
X115386447Y-90749999D01*
X116093552Y-90749999D01*
X116093552Y-90750001D01*
X117013436Y-91669885D01*
X117097189Y-91607187D01*
X117097190Y-91607186D01*
X117183352Y-91492088D01*
X117183354Y-91492086D01*
X117233596Y-91357379D01*
X117233598Y-91357372D01*
X117239999Y-91297844D01*
X117240000Y-91297827D01*
X117240000Y-90202172D01*
X117239999Y-90202155D01*
X117233598Y-90142627D01*
X117233596Y-90142620D01*
X117183354Y-90007913D01*
X117183350Y-90007906D01*
X117097191Y-89892814D01*
X117097186Y-89892809D01*
X117013436Y-89830114D01*
X116093552Y-90749999D01*
X115386447Y-90749999D01*
X114466561Y-89830113D01*
X114382817Y-89892805D01*
X114382808Y-89892814D01*
X114296649Y-90007906D01*
X114296645Y-90007913D01*
X114246403Y-90142620D01*
X114246401Y-90142627D01*
X114240000Y-90202155D01*
X109545744Y-90202155D01*
X109573207Y-90154588D01*
X109600500Y-90052727D01*
X109600500Y-89947273D01*
X109600500Y-81000098D01*
X109620185Y-80933059D01*
X109636819Y-80912417D01*
X109652953Y-80896283D01*
X109680520Y-80868716D01*
X109759577Y-80731784D01*
X109800500Y-80579057D01*
X109800500Y-80420943D01*
X109759577Y-80268216D01*
X109759573Y-80268209D01*
X109680524Y-80131290D01*
X109680518Y-80131282D01*
X109568717Y-80019481D01*
X109568709Y-80019475D01*
X109431790Y-79940426D01*
X109431786Y-79940424D01*
X109431784Y-79940423D01*
X109279057Y-79899500D01*
X109120943Y-79899500D01*
X108968216Y-79940423D01*
X108968209Y-79940426D01*
X108831290Y-80019475D01*
X108831282Y-80019481D01*
X108719481Y-80131282D01*
X108719475Y-80131290D01*
X108640426Y-80268209D01*
X108640423Y-80268216D01*
X108599500Y-80420943D01*
X108599500Y-80579057D01*
X108630662Y-80695353D01*
X108640423Y-80731783D01*
X108640426Y-80731790D01*
X108719475Y-80868709D01*
X108719481Y-80868717D01*
X108763181Y-80912417D01*
X108796666Y-80973740D01*
X108799500Y-81000098D01*
X108799500Y-89782745D01*
X108779815Y-89849784D01*
X108763181Y-89870426D01*
X108470426Y-90163181D01*
X108409103Y-90196666D01*
X108382745Y-90199500D01*
X105247273Y-90199500D01*
X105145410Y-90226793D01*
X105054087Y-90279520D01*
X105054084Y-90279522D01*
X104379522Y-90954084D01*
X104379520Y-90954087D01*
X104326793Y-91045410D01*
X104299500Y-91147273D01*
X104299500Y-94499902D01*
X104279815Y-94566941D01*
X104263181Y-94587583D01*
X104219481Y-94631282D01*
X104219475Y-94631290D01*
X104140426Y-94768209D01*
X104140423Y-94768216D01*
X104099500Y-94920943D01*
X96000500Y-94920943D01*
X96000500Y-92205131D01*
X98439500Y-92205131D01*
X98439500Y-93294856D01*
X98439502Y-93294882D01*
X98442413Y-93319987D01*
X98442415Y-93319991D01*
X98487793Y-93422764D01*
X98487794Y-93422765D01*
X98567235Y-93502206D01*
X98670009Y-93547585D01*
X98695135Y-93550500D01*
X100784864Y-93550499D01*
X100784879Y-93550497D01*
X100784882Y-93550497D01*
X100809987Y-93547586D01*
X100809988Y-93547585D01*
X100809991Y-93547585D01*
X100912765Y-93502206D01*
X100992206Y-93422765D01*
X101037585Y-93319991D01*
X101040500Y-93294865D01*
X101040499Y-92205136D01*
X101040497Y-92205117D01*
X101037586Y-92180012D01*
X101037585Y-92180010D01*
X101037585Y-92180009D01*
X100992206Y-92077235D01*
X100912765Y-91997794D01*
X100912763Y-91997793D01*
X100809992Y-91952415D01*
X100784868Y-91949500D01*
X100489391Y-91949500D01*
X100422352Y-91929815D01*
X100376597Y-91877011D01*
X100366653Y-91807853D01*
X100374830Y-91778047D01*
X100386447Y-91749999D01*
X99740000Y-91103552D01*
X99093552Y-91749999D01*
X99105170Y-91778047D01*
X99112639Y-91847516D01*
X99081364Y-91909996D01*
X99021275Y-91945648D01*
X98990609Y-91949500D01*
X98695143Y-91949500D01*
X98695117Y-91949502D01*
X98670012Y-91952413D01*
X98670008Y-91952415D01*
X98567235Y-91997793D01*
X98487794Y-92077234D01*
X98442415Y-92180006D01*
X98442415Y-92180008D01*
X98439500Y-92205131D01*
X96000500Y-92205131D01*
X96000500Y-90202155D01*
X98240000Y-90202155D01*
X98240000Y-91297844D01*
X98246401Y-91357372D01*
X98246403Y-91357379D01*
X98296645Y-91492086D01*
X98296649Y-91492093D01*
X98382809Y-91607186D01*
X98466563Y-91669884D01*
X99386448Y-90750000D01*
X99386448Y-90749999D01*
X100093552Y-90749999D01*
X100093552Y-90750001D01*
X101013436Y-91669885D01*
X101097189Y-91607187D01*
X101097190Y-91607186D01*
X101183352Y-91492088D01*
X101183354Y-91492086D01*
X101233596Y-91357379D01*
X101233598Y-91357372D01*
X101239999Y-91297844D01*
X101240000Y-91297827D01*
X101240000Y-90202172D01*
X101239999Y-90202155D01*
X101233598Y-90142627D01*
X101233596Y-90142620D01*
X101183354Y-90007913D01*
X101183350Y-90007906D01*
X101097191Y-89892814D01*
X101097186Y-89892809D01*
X101039020Y-89849266D01*
X101017176Y-89820085D01*
X101005869Y-89837680D01*
X100093552Y-90749999D01*
X99386448Y-90749999D01*
X98510448Y-89873999D01*
X98407939Y-89873999D01*
X98382814Y-89892807D01*
X98382808Y-89892814D01*
X98296649Y-90007906D01*
X98296645Y-90007913D01*
X98246403Y-90142620D01*
X98246401Y-90142627D01*
X98240000Y-90202155D01*
X96000500Y-90202155D01*
X96000500Y-89750000D01*
X99093552Y-89750000D01*
X99740000Y-90396448D01*
X100386448Y-89750000D01*
X99740000Y-89103552D01*
X99093552Y-89750000D01*
X96000500Y-89750000D01*
X96000500Y-88202155D01*
X98240000Y-88202155D01*
X98240000Y-89297844D01*
X98246401Y-89357372D01*
X98246403Y-89357379D01*
X98296645Y-89492086D01*
X98296649Y-89492093D01*
X98382808Y-89607186D01*
X98407939Y-89625999D01*
X98510448Y-89625999D01*
X98525490Y-89610957D01*
X99386448Y-88750000D01*
X99386448Y-88749999D01*
X100093552Y-88749999D01*
X100093552Y-88750001D01*
X101005869Y-89662318D01*
X101015759Y-89680431D01*
X101025650Y-89662318D01*
X101039022Y-89650731D01*
X101097188Y-89607189D01*
X101097190Y-89607186D01*
X101183352Y-89492088D01*
X101183354Y-89492086D01*
X101233596Y-89357379D01*
X101233598Y-89357372D01*
X101239999Y-89297844D01*
X101240000Y-89297827D01*
X101240000Y-88202172D01*
X101239999Y-88202155D01*
X101233598Y-88142627D01*
X101233596Y-88142620D01*
X101183354Y-88007913D01*
X101183350Y-88007906D01*
X101097191Y-87892814D01*
X101097186Y-87892809D01*
X101013436Y-87830114D01*
X100093552Y-88749999D01*
X99386448Y-88749999D01*
X98466562Y-87830114D01*
X98466561Y-87830113D01*
X98382817Y-87892805D01*
X98382808Y-87892814D01*
X98296649Y-88007906D01*
X98296645Y-88007913D01*
X98246403Y-88142620D01*
X98246401Y-88142627D01*
X98240000Y-88202155D01*
X96000500Y-88202155D01*
X96000500Y-86205131D01*
X98439500Y-86205131D01*
X98439500Y-87294856D01*
X98439502Y-87294882D01*
X98442413Y-87319987D01*
X98442415Y-87319991D01*
X98487793Y-87422764D01*
X98487794Y-87422765D01*
X98567235Y-87502206D01*
X98670009Y-87547585D01*
X98695135Y-87550500D01*
X98990610Y-87550499D01*
X99057647Y-87570183D01*
X99103402Y-87622987D01*
X99113346Y-87692146D01*
X99105169Y-87721951D01*
X99093551Y-87749999D01*
X99740000Y-88396448D01*
X100386447Y-87750001D01*
X100374829Y-87721953D01*
X100367360Y-87652483D01*
X100398634Y-87590004D01*
X100458723Y-87554351D01*
X100489388Y-87550499D01*
X100784864Y-87550499D01*
X100784879Y-87550497D01*
X100784882Y-87550497D01*
X100809987Y-87547586D01*
X100809988Y-87547585D01*
X100809991Y-87547585D01*
X100912765Y-87502206D01*
X100992206Y-87422765D01*
X101037585Y-87319991D01*
X101040500Y-87294865D01*
X101040499Y-86205136D01*
X101040497Y-86205117D01*
X101037586Y-86180012D01*
X101037585Y-86180010D01*
X101037585Y-86180009D01*
X100992206Y-86077235D01*
X100912765Y-85997794D01*
X100912763Y-85997793D01*
X100809992Y-85952415D01*
X100784865Y-85949500D01*
X98695143Y-85949500D01*
X98695117Y-85949502D01*
X98670012Y-85952413D01*
X98670008Y-85952415D01*
X98567235Y-85997793D01*
X98487794Y-86077234D01*
X98442415Y-86180006D01*
X98442415Y-86180008D01*
X98439500Y-86205131D01*
X96000500Y-86205131D01*
X96000500Y-84205131D01*
X98439500Y-84205131D01*
X98439500Y-85294856D01*
X98439502Y-85294882D01*
X98442413Y-85319987D01*
X98442415Y-85319991D01*
X98487793Y-85422764D01*
X98487794Y-85422765D01*
X98567235Y-85502206D01*
X98670009Y-85547585D01*
X98695135Y-85550500D01*
X100784864Y-85550499D01*
X100784879Y-85550497D01*
X100784882Y-85550497D01*
X100809987Y-85547586D01*
X100809988Y-85547585D01*
X100809991Y-85547585D01*
X100912765Y-85502206D01*
X100992206Y-85422765D01*
X101037585Y-85319991D01*
X101040500Y-85294865D01*
X101040499Y-84205136D01*
X101038690Y-84189535D01*
X101037586Y-84180012D01*
X101037585Y-84180010D01*
X101037585Y-84180009D01*
X100992206Y-84077235D01*
X100912765Y-83997794D01*
X100873240Y-83980342D01*
X100809992Y-83952415D01*
X100784865Y-83949500D01*
X98695143Y-83949500D01*
X98695117Y-83949502D01*
X98670012Y-83952413D01*
X98670008Y-83952415D01*
X98567235Y-83997793D01*
X98487794Y-84077234D01*
X98442415Y-84180006D01*
X98442415Y-84180008D01*
X98439500Y-84205131D01*
X96000500Y-84205131D01*
X96000500Y-82205137D01*
X98439500Y-82205137D01*
X98439500Y-83294856D01*
X98439502Y-83294882D01*
X98442413Y-83319987D01*
X98442415Y-83319991D01*
X98487793Y-83422764D01*
X98487794Y-83422765D01*
X98567235Y-83502206D01*
X98670009Y-83547585D01*
X98695135Y-83550500D01*
X100784864Y-83550499D01*
X100784879Y-83550497D01*
X100784882Y-83550497D01*
X100809987Y-83547586D01*
X100809988Y-83547585D01*
X100809991Y-83547585D01*
X100912765Y-83502206D01*
X100992206Y-83422765D01*
X101037585Y-83319991D01*
X101040500Y-83294865D01*
X101040499Y-82205136D01*
X101040467Y-82204857D01*
X101037586Y-82180012D01*
X101037585Y-82180010D01*
X101037585Y-82180009D01*
X100992206Y-82077235D01*
X100912765Y-81997794D01*
X100878019Y-81982452D01*
X100809992Y-81952415D01*
X100784865Y-81949500D01*
X98695143Y-81949500D01*
X98695117Y-81949502D01*
X98670012Y-81952413D01*
X98670008Y-81952415D01*
X98567235Y-81997793D01*
X98487794Y-82077234D01*
X98442415Y-82180006D01*
X98442415Y-82180008D01*
X98439501Y-82205128D01*
X98439500Y-82205137D01*
X96000500Y-82205137D01*
X96000500Y-78205131D01*
X98439500Y-78205131D01*
X98439500Y-79294856D01*
X98439502Y-79294882D01*
X98442413Y-79319987D01*
X98442415Y-79319991D01*
X98487793Y-79422764D01*
X98487794Y-79422765D01*
X98567235Y-79502206D01*
X98670009Y-79547585D01*
X98695135Y-79550500D01*
X99215500Y-79550499D01*
X99282539Y-79570183D01*
X99328294Y-79622987D01*
X99339500Y-79674499D01*
X99339500Y-80042745D01*
X99319815Y-80109784D01*
X99303181Y-80130426D01*
X99179522Y-80254084D01*
X99179518Y-80254090D01*
X99126792Y-80345413D01*
X99126791Y-80345414D01*
X99114203Y-80392398D01*
X99114202Y-80392403D01*
X99112033Y-80400500D01*
X99099500Y-80447273D01*
X99099500Y-80507770D01*
X99098505Y-80515578D01*
X99087529Y-80540667D01*
X99079815Y-80566941D01*
X99071550Y-80577197D01*
X99070503Y-80579591D01*
X99068601Y-80580856D01*
X99063181Y-80587583D01*
X99019481Y-80631282D01*
X99019475Y-80631290D01*
X98940426Y-80768209D01*
X98940423Y-80768216D01*
X98899500Y-80920943D01*
X98899500Y-81079057D01*
X98936611Y-81217555D01*
X98940423Y-81231783D01*
X98940426Y-81231790D01*
X99019475Y-81368709D01*
X99019479Y-81368714D01*
X99019480Y-81368716D01*
X99131284Y-81480520D01*
X99131286Y-81480521D01*
X99131290Y-81480524D01*
X99220087Y-81531790D01*
X99268216Y-81559577D01*
X99420943Y-81600500D01*
X99420945Y-81600500D01*
X99579055Y-81600500D01*
X99579057Y-81600500D01*
X99731784Y-81559577D01*
X99868716Y-81480520D01*
X99980520Y-81368716D01*
X100059577Y-81231784D01*
X100100500Y-81079057D01*
X100100500Y-80920943D01*
X100059577Y-80768216D01*
X100011471Y-80684894D01*
X99994999Y-80616994D01*
X100017852Y-80550968D01*
X100031170Y-80535222D01*
X100060480Y-80505913D01*
X100113207Y-80414588D01*
X100140500Y-80312727D01*
X100140500Y-80207273D01*
X100140500Y-79674499D01*
X100160185Y-79607460D01*
X100212989Y-79561705D01*
X100264500Y-79550499D01*
X100784856Y-79550499D01*
X100784864Y-79550499D01*
X100784879Y-79550497D01*
X100784882Y-79550497D01*
X100809987Y-79547586D01*
X100809988Y-79547585D01*
X100809991Y-79547585D01*
X100912765Y-79502206D01*
X100992206Y-79422765D01*
X101037585Y-79319991D01*
X101040500Y-79294865D01*
X101040499Y-78205136D01*
X101040497Y-78205117D01*
X101037586Y-78180012D01*
X101037585Y-78180010D01*
X101037585Y-78180009D01*
X100992206Y-78077235D01*
X100912765Y-77997794D01*
X100912763Y-77997793D01*
X100809992Y-77952415D01*
X100784865Y-77949500D01*
X98695143Y-77949500D01*
X98695117Y-77949502D01*
X98670012Y-77952413D01*
X98670008Y-77952415D01*
X98567235Y-77997793D01*
X98487794Y-78077234D01*
X98442415Y-78180006D01*
X98442415Y-78180008D01*
X98439500Y-78205131D01*
X96000500Y-78205131D01*
X96000500Y-74205131D01*
X98439500Y-74205131D01*
X98439500Y-75294856D01*
X98439502Y-75294882D01*
X98442413Y-75319987D01*
X98442415Y-75319991D01*
X98487793Y-75422764D01*
X98487794Y-75422765D01*
X98567235Y-75502206D01*
X98670009Y-75547585D01*
X98695135Y-75550500D01*
X100784864Y-75550499D01*
X100784879Y-75550497D01*
X100784882Y-75550497D01*
X100809987Y-75547586D01*
X100809988Y-75547585D01*
X100809991Y-75547585D01*
X100912765Y-75502206D01*
X100992206Y-75422765D01*
X101037585Y-75319991D01*
X101040500Y-75294865D01*
X101040500Y-75274500D01*
X101060185Y-75207461D01*
X101112989Y-75161706D01*
X101164500Y-75150500D01*
X101302725Y-75150500D01*
X101302727Y-75150500D01*
X101404588Y-75123207D01*
X101495913Y-75070480D01*
X101820480Y-74745913D01*
X101820480Y-74745912D01*
X102245910Y-74320481D01*
X102245913Y-74320480D01*
X102320480Y-74245913D01*
X102358812Y-74179520D01*
X102372587Y-74155661D01*
X102378121Y-74148642D01*
X102399604Y-74133382D01*
X102418679Y-74115195D01*
X102427643Y-74113467D01*
X102435084Y-74108182D01*
X102461405Y-74106959D01*
X102487285Y-74101971D01*
X102495759Y-74105363D01*
X102504878Y-74104940D01*
X102527684Y-74118143D01*
X102552151Y-74127938D01*
X102557446Y-74135374D01*
X102565345Y-74139947D01*
X102577391Y-74163382D01*
X102592680Y-74184852D01*
X102594747Y-74197147D01*
X102597287Y-74202088D01*
X102596663Y-74208539D01*
X102599500Y-74225410D01*
X102599500Y-74782745D01*
X102579815Y-74849784D01*
X102563181Y-74870426D01*
X101254085Y-76179522D01*
X101231746Y-76201860D01*
X101170422Y-76235344D01*
X101100731Y-76230358D01*
X101044798Y-76188485D01*
X101030633Y-76164264D01*
X100993010Y-76079056D01*
X100992206Y-76077235D01*
X100912765Y-75997794D01*
X100912763Y-75997793D01*
X100809992Y-75952415D01*
X100784865Y-75949500D01*
X98695143Y-75949500D01*
X98695117Y-75949502D01*
X98670012Y-75952413D01*
X98670008Y-75952415D01*
X98567235Y-75997793D01*
X98487794Y-76077234D01*
X98442415Y-76180006D01*
X98442415Y-76180008D01*
X98439500Y-76205131D01*
X98439500Y-77294856D01*
X98439502Y-77294882D01*
X98442413Y-77319987D01*
X98442415Y-77319991D01*
X98487793Y-77422764D01*
X98487794Y-77422765D01*
X98567235Y-77502206D01*
X98670009Y-77547585D01*
X98695135Y-77550500D01*
X100784864Y-77550499D01*
X100784879Y-77550497D01*
X100784882Y-77550497D01*
X100809987Y-77547586D01*
X100809988Y-77547585D01*
X100809991Y-77547585D01*
X100912765Y-77502206D01*
X100992206Y-77422765D01*
X101037585Y-77319991D01*
X101040500Y-77294865D01*
X101040500Y-77274500D01*
X101060185Y-77207461D01*
X101112989Y-77161706D01*
X101164500Y-77150500D01*
X101302725Y-77150500D01*
X101302727Y-77150500D01*
X101404588Y-77123207D01*
X101495913Y-77070480D01*
X101820480Y-76745913D01*
X101820481Y-76745912D01*
X102545450Y-76020943D01*
X107099500Y-76020943D01*
X107099500Y-76179057D01*
X107131837Y-76299738D01*
X107140423Y-76331783D01*
X107140426Y-76331790D01*
X107219475Y-76468709D01*
X107219479Y-76468714D01*
X107219480Y-76468716D01*
X107331284Y-76580520D01*
X107331286Y-76580521D01*
X107331290Y-76580524D01*
X107448735Y-76648330D01*
X107468216Y-76659577D01*
X107620943Y-76700500D01*
X107620945Y-76700500D01*
X107779055Y-76700500D01*
X107779057Y-76700500D01*
X107931784Y-76659577D01*
X108068716Y-76580520D01*
X108112417Y-76536819D01*
X108173740Y-76503334D01*
X108200098Y-76500500D01*
X111282745Y-76500500D01*
X111312185Y-76509144D01*
X111342172Y-76515668D01*
X111347187Y-76519422D01*
X111349784Y-76520185D01*
X111370426Y-76536819D01*
X111371187Y-76537580D01*
X111403280Y-76593166D01*
X111405246Y-76600500D01*
X111440423Y-76731785D01*
X111440426Y-76731790D01*
X111519475Y-76868709D01*
X111519479Y-76868714D01*
X111519480Y-76868716D01*
X111631284Y-76980520D01*
X111631286Y-76980521D01*
X111631290Y-76980524D01*
X111764572Y-77057473D01*
X111768216Y-77059577D01*
X111920943Y-77100500D01*
X111920945Y-77100500D01*
X112079055Y-77100500D01*
X112079057Y-77100500D01*
X112231784Y-77059577D01*
X112231785Y-77059576D01*
X112239635Y-77057473D01*
X112240262Y-77059813D01*
X112297500Y-77053652D01*
X112359984Y-77084919D01*
X112395644Y-77145003D01*
X112399500Y-77175685D01*
X112399500Y-77179057D01*
X112430532Y-77294868D01*
X112440423Y-77331783D01*
X112440426Y-77331790D01*
X112519475Y-77468709D01*
X112519479Y-77468714D01*
X112519480Y-77468716D01*
X112631284Y-77580520D01*
X112631286Y-77580521D01*
X112631290Y-77580524D01*
X112768064Y-77659489D01*
X112768216Y-77659577D01*
X112841337Y-77679169D01*
X112900997Y-77715534D01*
X112931526Y-77778381D01*
X112923231Y-77847756D01*
X112896924Y-77886625D01*
X110179522Y-80604027D01*
X110179520Y-80604030D01*
X110146278Y-80661607D01*
X110126793Y-80695355D01*
X110117032Y-80731784D01*
X110117032Y-80731785D01*
X110117031Y-80731784D01*
X110099500Y-80797214D01*
X110099500Y-85099902D01*
X110079815Y-85166941D01*
X110063181Y-85187583D01*
X110019481Y-85231282D01*
X110019475Y-85231290D01*
X109940426Y-85368209D01*
X109940423Y-85368216D01*
X109899500Y-85520943D01*
X109899500Y-85679057D01*
X109938067Y-85822989D01*
X109940423Y-85831783D01*
X109940426Y-85831790D01*
X110019475Y-85968709D01*
X110019479Y-85968714D01*
X110019480Y-85968716D01*
X110131284Y-86080520D01*
X110131286Y-86080521D01*
X110131290Y-86080524D01*
X110234307Y-86140000D01*
X110268216Y-86159577D01*
X110420943Y-86200500D01*
X110420945Y-86200500D01*
X110579055Y-86200500D01*
X110579057Y-86200500D01*
X110731784Y-86159577D01*
X110731794Y-86159571D01*
X110736762Y-86157514D01*
X110806231Y-86150042D01*
X110868712Y-86181314D01*
X110904367Y-86241402D01*
X110903995Y-86304163D01*
X110899500Y-86320943D01*
X110899500Y-86479057D01*
X110926522Y-86579902D01*
X110940423Y-86631783D01*
X110940426Y-86631790D01*
X111019475Y-86768709D01*
X111019479Y-86768714D01*
X111019480Y-86768716D01*
X111131284Y-86880520D01*
X111131286Y-86880521D01*
X111131290Y-86880524D01*
X111256921Y-86953056D01*
X111268216Y-86959577D01*
X111420943Y-87000500D01*
X111420945Y-87000500D01*
X111579055Y-87000500D01*
X111579057Y-87000500D01*
X111731784Y-86959577D01*
X111868716Y-86880520D01*
X111887819Y-86861417D01*
X111949142Y-86827932D01*
X112018834Y-86832916D01*
X112074767Y-86874788D01*
X112099184Y-86940252D01*
X112099500Y-86949098D01*
X112099500Y-87499902D01*
X112079815Y-87566941D01*
X112063181Y-87587583D01*
X112019481Y-87631282D01*
X112019475Y-87631290D01*
X111940426Y-87768209D01*
X111940423Y-87768216D01*
X111899500Y-87920943D01*
X111899500Y-88079057D01*
X111933283Y-88205135D01*
X111940423Y-88231783D01*
X111940426Y-88231790D01*
X112019475Y-88368709D01*
X112019479Y-88368714D01*
X112019480Y-88368716D01*
X112131284Y-88480520D01*
X112131286Y-88480521D01*
X112131290Y-88480524D01*
X112268209Y-88559573D01*
X112268216Y-88559577D01*
X112420943Y-88600500D01*
X112420945Y-88600500D01*
X112579055Y-88600500D01*
X112579057Y-88600500D01*
X112731784Y-88559577D01*
X112868716Y-88480520D01*
X112980520Y-88368716D01*
X113059577Y-88231784D01*
X113100500Y-88079057D01*
X113100500Y-87920943D01*
X113059577Y-87768216D01*
X113038800Y-87732230D01*
X113022328Y-87664331D01*
X113045180Y-87598304D01*
X113100102Y-87555113D01*
X113169655Y-87548472D01*
X113194492Y-87557737D01*
X113195019Y-87556466D01*
X113202522Y-87559573D01*
X113202529Y-87559577D01*
X113355256Y-87600500D01*
X113355258Y-87600500D01*
X113513368Y-87600500D01*
X113513370Y-87600500D01*
X113666097Y-87559577D01*
X113803029Y-87480520D01*
X113914833Y-87368716D01*
X113993890Y-87231784D01*
X114034813Y-87079057D01*
X114034813Y-86920943D01*
X113993890Y-86768216D01*
X113921427Y-86642705D01*
X113914837Y-86631290D01*
X113914834Y-86631286D01*
X113914833Y-86631284D01*
X113835818Y-86552269D01*
X113802334Y-86490945D01*
X113799500Y-86464588D01*
X113799500Y-85724500D01*
X113819185Y-85657461D01*
X113871989Y-85611706D01*
X113923500Y-85600500D01*
X114079055Y-85600500D01*
X114079057Y-85600500D01*
X114231784Y-85559577D01*
X114368716Y-85480520D01*
X114369444Y-85479792D01*
X114370210Y-85479373D01*
X114375166Y-85475571D01*
X114375758Y-85476343D01*
X114430765Y-85446302D01*
X114500457Y-85451281D01*
X114544812Y-85479783D01*
X114567235Y-85502206D01*
X114670009Y-85547585D01*
X114695135Y-85550500D01*
X116784864Y-85550499D01*
X116784879Y-85550497D01*
X116784882Y-85550497D01*
X116809987Y-85547586D01*
X116809987Y-85547585D01*
X116809991Y-85547585D01*
X116820413Y-85542982D01*
X116854316Y-85538543D01*
X116888147Y-85533679D01*
X116888886Y-85534016D01*
X116889692Y-85533911D01*
X116920622Y-85548509D01*
X116951703Y-85562704D01*
X116952141Y-85563387D01*
X116952877Y-85563734D01*
X116971010Y-85592747D01*
X116989477Y-85621482D01*
X116989628Y-85622535D01*
X116989908Y-85622983D01*
X116994500Y-85656417D01*
X116994500Y-85843582D01*
X116974815Y-85910621D01*
X116922011Y-85956376D01*
X116852853Y-85966320D01*
X116820416Y-85957017D01*
X116809996Y-85952416D01*
X116809991Y-85952415D01*
X116784865Y-85949500D01*
X114695143Y-85949500D01*
X114695117Y-85949502D01*
X114670012Y-85952413D01*
X114670008Y-85952415D01*
X114567235Y-85997793D01*
X114487794Y-86077234D01*
X114442415Y-86180006D01*
X114442415Y-86180008D01*
X114439500Y-86205131D01*
X114439500Y-87294856D01*
X114439502Y-87294882D01*
X114442413Y-87319987D01*
X114442415Y-87319991D01*
X114487793Y-87422764D01*
X114487794Y-87422765D01*
X114567235Y-87502206D01*
X114670009Y-87547585D01*
X114695135Y-87550500D01*
X116784864Y-87550499D01*
X116784879Y-87550497D01*
X116784882Y-87550497D01*
X116809987Y-87547586D01*
X116809987Y-87547585D01*
X116809991Y-87547585D01*
X116820413Y-87542982D01*
X116854316Y-87538543D01*
X116888147Y-87533679D01*
X116888886Y-87534016D01*
X116889692Y-87533911D01*
X116920622Y-87548509D01*
X116951703Y-87562704D01*
X116952141Y-87563387D01*
X116952877Y-87563734D01*
X116971010Y-87592747D01*
X116989477Y-87621482D01*
X116989628Y-87622535D01*
X116989908Y-87622983D01*
X116994500Y-87656417D01*
X116994500Y-87843582D01*
X116974815Y-87910621D01*
X116922011Y-87956376D01*
X116852853Y-87966320D01*
X116820416Y-87957017D01*
X116809996Y-87952416D01*
X116809991Y-87952415D01*
X116784865Y-87949500D01*
X114695143Y-87949500D01*
X114695117Y-87949502D01*
X114670012Y-87952413D01*
X114670008Y-87952415D01*
X114567235Y-87997793D01*
X114487794Y-88077234D01*
X114442415Y-88180006D01*
X114442415Y-88180008D01*
X114439500Y-88205131D01*
X114439500Y-89294856D01*
X114439502Y-89294882D01*
X114442413Y-89319987D01*
X114442415Y-89319991D01*
X114487793Y-89422764D01*
X114487794Y-89422765D01*
X114567235Y-89502206D01*
X114670009Y-89547585D01*
X114695135Y-89550500D01*
X114990610Y-89550499D01*
X115057647Y-89570183D01*
X115103402Y-89622987D01*
X115113346Y-89692146D01*
X115105169Y-89721951D01*
X115093551Y-89749999D01*
X115740000Y-90396448D01*
X116386447Y-89750001D01*
X116374829Y-89721953D01*
X116367360Y-89652483D01*
X116398634Y-89590004D01*
X116458723Y-89554351D01*
X116489388Y-89550499D01*
X116784864Y-89550499D01*
X116784879Y-89550497D01*
X116784882Y-89550497D01*
X116809987Y-89547586D01*
X116809988Y-89547585D01*
X116809991Y-89547585D01*
X116912765Y-89502206D01*
X116992206Y-89422765D01*
X117037585Y-89319991D01*
X117040500Y-89294865D01*
X117040499Y-88466383D01*
X117060183Y-88399345D01*
X117112987Y-88353590D01*
X117182146Y-88343646D01*
X117245698Y-88372669D01*
X117245703Y-88372673D01*
X117283660Y-88405564D01*
X117283661Y-88405565D01*
X117283664Y-88405567D01*
X117414541Y-88465338D01*
X117481580Y-88485023D01*
X117481584Y-88485024D01*
X117624000Y-88505500D01*
X120216613Y-88505500D01*
X120283652Y-88525185D01*
X120329407Y-88577989D01*
X120339351Y-88647147D01*
X120310326Y-88710703D01*
X120304294Y-88717181D01*
X119307567Y-89713906D01*
X119274894Y-89735740D01*
X119275253Y-89736361D01*
X119268218Y-89740422D01*
X119268216Y-89740423D01*
X119182028Y-89790182D01*
X119131285Y-89819479D01*
X119131282Y-89819481D01*
X119019481Y-89931282D01*
X119019475Y-89931290D01*
X118940426Y-90068209D01*
X118940423Y-90068216D01*
X118899500Y-90220943D01*
X118899500Y-90379057D01*
X118932041Y-90500500D01*
X118940423Y-90531783D01*
X118940426Y-90531790D01*
X119019475Y-90668709D01*
X119019479Y-90668714D01*
X119019480Y-90668716D01*
X119131284Y-90780520D01*
X119131286Y-90780521D01*
X119131290Y-90780524D01*
X119268209Y-90859573D01*
X119268216Y-90859577D01*
X119420943Y-90900500D01*
X119420945Y-90900500D01*
X119579055Y-90900500D01*
X119579057Y-90900500D01*
X119731784Y-90859577D01*
X119868716Y-90780520D01*
X119980520Y-90668716D01*
X120059577Y-90531784D01*
X120059577Y-90531780D01*
X120063640Y-90524745D01*
X120064262Y-90525104D01*
X120086092Y-90492431D01*
X121591706Y-88986819D01*
X121653029Y-88953334D01*
X121679387Y-88950500D01*
X123370500Y-88950500D01*
X123437539Y-88970185D01*
X123483294Y-89022989D01*
X123494500Y-89074500D01*
X123494500Y-89276000D01*
X123494501Y-89276009D01*
X123506052Y-89383450D01*
X123506054Y-89383462D01*
X123517260Y-89434972D01*
X123551383Y-89537497D01*
X123551386Y-89537503D01*
X123613433Y-89634049D01*
X123633118Y-89701089D01*
X123613434Y-89768128D01*
X123560630Y-89813883D01*
X123541213Y-89820863D01*
X123522646Y-89825838D01*
X123468214Y-89840423D01*
X123468209Y-89840426D01*
X123331290Y-89919475D01*
X123331282Y-89919481D01*
X123219481Y-90031282D01*
X123219475Y-90031290D01*
X123140426Y-90168209D01*
X123140423Y-90168216D01*
X123099500Y-90320943D01*
X123099500Y-90479057D01*
X123126295Y-90579055D01*
X123140423Y-90631783D01*
X123140426Y-90631790D01*
X123219475Y-90768709D01*
X123219479Y-90768714D01*
X123219480Y-90768716D01*
X123331284Y-90880520D01*
X123331286Y-90880521D01*
X123331290Y-90880524D01*
X123447902Y-90947849D01*
X123468216Y-90959577D01*
X123620943Y-91000500D01*
X123682745Y-91000500D01*
X123749784Y-91020185D01*
X123770426Y-91036819D01*
X124221426Y-91487819D01*
X124254911Y-91549142D01*
X124249927Y-91618834D01*
X124208055Y-91674767D01*
X124142591Y-91699184D01*
X124133745Y-91699500D01*
X124020943Y-91699500D01*
X123868216Y-91740423D01*
X123868209Y-91740426D01*
X123731290Y-91819475D01*
X123731282Y-91819481D01*
X123619481Y-91931282D01*
X123619475Y-91931290D01*
X123540426Y-92068209D01*
X123540423Y-92068216D01*
X123499500Y-92220943D01*
X123499500Y-92379057D01*
X123526409Y-92479481D01*
X123540423Y-92531783D01*
X123540426Y-92531790D01*
X123619475Y-92668709D01*
X123619479Y-92668714D01*
X123619480Y-92668716D01*
X123731284Y-92780520D01*
X123731285Y-92780521D01*
X123731287Y-92780522D01*
X123752229Y-92792613D01*
X123800445Y-92843180D01*
X123813668Y-92911787D01*
X123787700Y-92976652D01*
X123752229Y-93007387D01*
X123731287Y-93019477D01*
X123731282Y-93019481D01*
X123619481Y-93131282D01*
X123619475Y-93131290D01*
X123540426Y-93268209D01*
X123540423Y-93268216D01*
X123499500Y-93420943D01*
X123499500Y-93579057D01*
X123504260Y-93596819D01*
X123540423Y-93731783D01*
X123540426Y-93731790D01*
X123619475Y-93868709D01*
X123619479Y-93868714D01*
X123619480Y-93868716D01*
X123731284Y-93980520D01*
X123731286Y-93980521D01*
X123731290Y-93980524D01*
X123798765Y-94019480D01*
X123868216Y-94059577D01*
X124020943Y-94100500D01*
X124020945Y-94100500D01*
X124179055Y-94100500D01*
X124179057Y-94100500D01*
X124331784Y-94059577D01*
X124468716Y-93980520D01*
X124512417Y-93936819D01*
X124573740Y-93903334D01*
X124600098Y-93900500D01*
X128999902Y-93900500D01*
X129066941Y-93920185D01*
X129087583Y-93936819D01*
X129131284Y-93980520D01*
X129131286Y-93980521D01*
X129131290Y-93980524D01*
X129198765Y-94019480D01*
X129268216Y-94059577D01*
X129420943Y-94100500D01*
X129420945Y-94100500D01*
X129579055Y-94100500D01*
X129579057Y-94100500D01*
X129731784Y-94059577D01*
X129868716Y-93980520D01*
X129980520Y-93868716D01*
X130059577Y-93731784D01*
X130100500Y-93579057D01*
X130100500Y-93420943D01*
X130059577Y-93268216D01*
X130015453Y-93191790D01*
X129980524Y-93131290D01*
X129980518Y-93131282D01*
X129868717Y-93019481D01*
X129868712Y-93019477D01*
X129803603Y-92981887D01*
X129755388Y-92931321D01*
X129742164Y-92862714D01*
X129768132Y-92797849D01*
X129825046Y-92757320D01*
X129865603Y-92750500D01*
X130550069Y-92750500D01*
X130617108Y-92770185D01*
X130625557Y-92776125D01*
X130631281Y-92780517D01*
X130631284Y-92780520D01*
X130631287Y-92780521D01*
X130631290Y-92780524D01*
X130690846Y-92814908D01*
X130768216Y-92859577D01*
X130920943Y-92900500D01*
X130920945Y-92900500D01*
X131079055Y-92900500D01*
X131079057Y-92900500D01*
X131231784Y-92859577D01*
X131368716Y-92780520D01*
X131480520Y-92668716D01*
X131559577Y-92531784D01*
X131600500Y-92379057D01*
X131600500Y-92220943D01*
X131559577Y-92068216D01*
X131559573Y-92068209D01*
X131480524Y-91931290D01*
X131480518Y-91931282D01*
X131368717Y-91819481D01*
X131368709Y-91819475D01*
X131231790Y-91740426D01*
X131231786Y-91740424D01*
X131231784Y-91740423D01*
X131079057Y-91699500D01*
X130920943Y-91699500D01*
X130768216Y-91740423D01*
X130768209Y-91740426D01*
X130631290Y-91819475D01*
X130625557Y-91823875D01*
X130604234Y-91832118D01*
X130585004Y-91844477D01*
X130564727Y-91847392D01*
X130560388Y-91849070D01*
X130550069Y-91849500D01*
X130523500Y-91849500D01*
X130456461Y-91829815D01*
X130410706Y-91777011D01*
X130399500Y-91725500D01*
X130399500Y-91570945D01*
X130399500Y-91570943D01*
X130358577Y-91418216D01*
X130289071Y-91297827D01*
X130279524Y-91281290D01*
X130279518Y-91281282D01*
X130167717Y-91169481D01*
X130167712Y-91169477D01*
X130102603Y-91131887D01*
X130054388Y-91081321D01*
X130041164Y-91012714D01*
X130067132Y-90947849D01*
X130124046Y-90907320D01*
X130164603Y-90900500D01*
X131999902Y-90900500D01*
X132066941Y-90920185D01*
X132087583Y-90936819D01*
X132131284Y-90980520D01*
X132131286Y-90980521D01*
X132131290Y-90980524D01*
X132243678Y-91045410D01*
X132268216Y-91059577D01*
X132420943Y-91100500D01*
X132420945Y-91100500D01*
X132579055Y-91100500D01*
X132579057Y-91100500D01*
X132731784Y-91059577D01*
X132868716Y-90980520D01*
X132980520Y-90868716D01*
X133059577Y-90731784D01*
X133100500Y-90579057D01*
X133100500Y-90420943D01*
X133059577Y-90268216D01*
X133011471Y-90184893D01*
X132994999Y-90116993D01*
X133017852Y-90050966D01*
X133031165Y-90035226D01*
X133320480Y-89745913D01*
X133373207Y-89654588D01*
X133400500Y-89552727D01*
X133400500Y-89447273D01*
X133400500Y-87217255D01*
X133409143Y-87187818D01*
X133415662Y-87157839D01*
X133419421Y-87152815D01*
X133420185Y-87150216D01*
X133436810Y-87129583D01*
X133441663Y-87124729D01*
X133502980Y-87091240D01*
X133572673Y-87096217D01*
X133628610Y-87138082D01*
X133636738Y-87150403D01*
X133719475Y-87293709D01*
X133723872Y-87299438D01*
X133749069Y-87364606D01*
X133749500Y-87374930D01*
X133749500Y-95062035D01*
X133729815Y-95129074D01*
X133713181Y-95149716D01*
X133174716Y-95688181D01*
X133113393Y-95721666D01*
X133087035Y-95724500D01*
X130574751Y-95724500D01*
X130507712Y-95704815D01*
X130475485Y-95674812D01*
X130432548Y-95617457D01*
X130432546Y-95617454D01*
X130432542Y-95617451D01*
X130317335Y-95531206D01*
X130317328Y-95531202D01*
X130182486Y-95480910D01*
X130182485Y-95480909D01*
X130182483Y-95480909D01*
X130122873Y-95474500D01*
X130122863Y-95474500D01*
X129477129Y-95474500D01*
X129477123Y-95474501D01*
X129417516Y-95480908D01*
X129282671Y-95531202D01*
X129282664Y-95531206D01*
X129167457Y-95617451D01*
X129167451Y-95617457D01*
X129124515Y-95674812D01*
X129068581Y-95716682D01*
X129025249Y-95724500D01*
X128574751Y-95724500D01*
X128507712Y-95704815D01*
X128475485Y-95674812D01*
X128432548Y-95617457D01*
X128432546Y-95617454D01*
X128432542Y-95617451D01*
X128317335Y-95531206D01*
X128317328Y-95531202D01*
X128182486Y-95480910D01*
X128182485Y-95480909D01*
X128182483Y-95480909D01*
X128122873Y-95474500D01*
X128122863Y-95474500D01*
X127477129Y-95474500D01*
X127477123Y-95474501D01*
X127417516Y-95480908D01*
X127282671Y-95531202D01*
X127282664Y-95531206D01*
X127167457Y-95617451D01*
X127167451Y-95617457D01*
X127124515Y-95674812D01*
X127068581Y-95716682D01*
X127025249Y-95724500D01*
X126574751Y-95724500D01*
X126507712Y-95704815D01*
X126475485Y-95674812D01*
X126432548Y-95617457D01*
X126432546Y-95617454D01*
X126432542Y-95617451D01*
X126317335Y-95531206D01*
X126317328Y-95531202D01*
X126182486Y-95480910D01*
X126182485Y-95480909D01*
X126182483Y-95480909D01*
X126122873Y-95474500D01*
X126122863Y-95474500D01*
X125477129Y-95474500D01*
X125477123Y-95474501D01*
X125417516Y-95480908D01*
X125282671Y-95531202D01*
X125282664Y-95531206D01*
X125167455Y-95617452D01*
X125167452Y-95617455D01*
X125081206Y-95732664D01*
X125081202Y-95732671D01*
X125030910Y-95867513D01*
X125030909Y-95867517D01*
X125024500Y-95927127D01*
X125024500Y-95927134D01*
X125024500Y-95927135D01*
X125024500Y-96422870D01*
X125024501Y-96422876D01*
X125030908Y-96482483D01*
X125081202Y-96617328D01*
X125081206Y-96617335D01*
X125167452Y-96732544D01*
X125167455Y-96732547D01*
X125282664Y-96818793D01*
X125282671Y-96818797D01*
X125314293Y-96830591D01*
X125417517Y-96869091D01*
X125477127Y-96875500D01*
X126122872Y-96875499D01*
X126182483Y-96869091D01*
X126317331Y-96818796D01*
X126432546Y-96732546D01*
X126459227Y-96696903D01*
X126475485Y-96675188D01*
X126531419Y-96633318D01*
X126574751Y-96625500D01*
X127025249Y-96625500D01*
X127092288Y-96645185D01*
X127124515Y-96675188D01*
X127143090Y-96700000D01*
X127167454Y-96732546D01*
X127167457Y-96732548D01*
X127282664Y-96818793D01*
X127282671Y-96818797D01*
X127314293Y-96830591D01*
X127417517Y-96869091D01*
X127477127Y-96875500D01*
X128122872Y-96875499D01*
X128182483Y-96869091D01*
X128317331Y-96818796D01*
X128432546Y-96732546D01*
X128459227Y-96696903D01*
X128475485Y-96675188D01*
X128531419Y-96633318D01*
X128574751Y-96625500D01*
X129025249Y-96625500D01*
X129092288Y-96645185D01*
X129124515Y-96675188D01*
X129143090Y-96700000D01*
X129167454Y-96732546D01*
X129167457Y-96732548D01*
X129282664Y-96818793D01*
X129282671Y-96818797D01*
X129314293Y-96830591D01*
X129417517Y-96869091D01*
X129477127Y-96875500D01*
X130122872Y-96875499D01*
X130182483Y-96869091D01*
X130317331Y-96818796D01*
X130432546Y-96732546D01*
X130459227Y-96696903D01*
X130475485Y-96675188D01*
X130531419Y-96633318D01*
X130574751Y-96625500D01*
X133384308Y-96625500D01*
X133384309Y-96625500D01*
X133474673Y-96601286D01*
X133498887Y-96594799D01*
X133601614Y-96535489D01*
X133687090Y-96450013D01*
X136500000Y-96450013D01*
X136500000Y-97000000D01*
X137416988Y-97000000D01*
X137384075Y-97057007D01*
X137350000Y-97184174D01*
X137350000Y-97315826D01*
X137384075Y-97442993D01*
X137416988Y-97500000D01*
X136500001Y-97500000D01*
X136500001Y-98049986D01*
X136510494Y-98152697D01*
X136565641Y-98319119D01*
X136565643Y-98319124D01*
X136657684Y-98468345D01*
X136781654Y-98592315D01*
X136930875Y-98684356D01*
X136930880Y-98684358D01*
X137097302Y-98739505D01*
X137097309Y-98739506D01*
X137200019Y-98749999D01*
X137599999Y-98749999D01*
X137600000Y-98749998D01*
X137600000Y-97683012D01*
X137657007Y-97715925D01*
X137784174Y-97750000D01*
X137915826Y-97750000D01*
X138042993Y-97715925D01*
X138100000Y-97683012D01*
X138100000Y-98749999D01*
X138499972Y-98749999D01*
X138499986Y-98749998D01*
X138602697Y-98739505D01*
X138769119Y-98684358D01*
X138769124Y-98684356D01*
X138918345Y-98592315D01*
X139042315Y-98468345D01*
X139134356Y-98319124D01*
X139134358Y-98319119D01*
X139189505Y-98152697D01*
X139189506Y-98152689D01*
X139191699Y-98131231D01*
X139218095Y-98066539D01*
X139275276Y-98026388D01*
X139345087Y-98023524D01*
X139405363Y-98058858D01*
X139415376Y-98070949D01*
X139472443Y-98149497D01*
X139600500Y-98277554D01*
X139600505Y-98277558D01*
X139714855Y-98360637D01*
X139747006Y-98383996D01*
X139852484Y-98437740D01*
X139908360Y-98466211D01*
X139908363Y-98466212D01*
X139989148Y-98492460D01*
X140080591Y-98522171D01*
X140163429Y-98535291D01*
X140259449Y-98550500D01*
X140259454Y-98550500D01*
X140440551Y-98550500D01*
X140527259Y-98536765D01*
X140619409Y-98522171D01*
X140791639Y-98466211D01*
X140952994Y-98383996D01*
X141099501Y-98277553D01*
X141227553Y-98149501D01*
X141333996Y-98002994D01*
X141416211Y-97841639D01*
X141472171Y-97669409D01*
X141489974Y-97557007D01*
X141500500Y-97490551D01*
X141500500Y-97393713D01*
X146149500Y-97393713D01*
X146149500Y-97606287D01*
X146149798Y-97608170D01*
X146181060Y-97805552D01*
X146182754Y-97816243D01*
X146243434Y-98002997D01*
X146248444Y-98018414D01*
X146344951Y-98207820D01*
X146469890Y-98379786D01*
X146620213Y-98530109D01*
X146792179Y-98655048D01*
X146792181Y-98655049D01*
X146792184Y-98655051D01*
X146981588Y-98751557D01*
X147183757Y-98817246D01*
X147393713Y-98850500D01*
X147393714Y-98850500D01*
X147606286Y-98850500D01*
X147606287Y-98850500D01*
X147816243Y-98817246D01*
X148018412Y-98751557D01*
X148207816Y-98655051D01*
X148288072Y-98596742D01*
X148379786Y-98530109D01*
X148379788Y-98530106D01*
X148379792Y-98530104D01*
X148530104Y-98379792D01*
X148530106Y-98379788D01*
X148530109Y-98379786D01*
X148655048Y-98207820D01*
X148655047Y-98207820D01*
X148655051Y-98207816D01*
X148751557Y-98018412D01*
X148817246Y-97816243D01*
X148850500Y-97606287D01*
X148850500Y-97393713D01*
X148817246Y-97183757D01*
X148751557Y-96981588D01*
X148655051Y-96792184D01*
X148655049Y-96792181D01*
X148655048Y-96792179D01*
X148530109Y-96620213D01*
X148379786Y-96469890D01*
X148207820Y-96344951D01*
X148018414Y-96248444D01*
X148018413Y-96248443D01*
X148018412Y-96248443D01*
X147816243Y-96182754D01*
X147816241Y-96182753D01*
X147816240Y-96182753D01*
X147654957Y-96157208D01*
X147606287Y-96149500D01*
X147393713Y-96149500D01*
X147345042Y-96157208D01*
X147183760Y-96182753D01*
X146981585Y-96248444D01*
X146792179Y-96344951D01*
X146620213Y-96469890D01*
X146469890Y-96620213D01*
X146344951Y-96792179D01*
X146248444Y-96981585D01*
X146182753Y-97183760D01*
X146169497Y-97267455D01*
X146149500Y-97393713D01*
X141500500Y-97393713D01*
X141500500Y-97009448D01*
X141483085Y-96899500D01*
X141472171Y-96830591D01*
X141440314Y-96732544D01*
X141416212Y-96658363D01*
X141416211Y-96658360D01*
X141383824Y-96594798D01*
X141333996Y-96497006D01*
X141280135Y-96422872D01*
X141227558Y-96350505D01*
X141227554Y-96350500D01*
X141099499Y-96222445D01*
X141099494Y-96222441D01*
X140952997Y-96116006D01*
X140952996Y-96116005D01*
X140952994Y-96116004D01*
X140901300Y-96089664D01*
X140791639Y-96033788D01*
X140791636Y-96033787D01*
X140619410Y-95977829D01*
X140440551Y-95949500D01*
X140440546Y-95949500D01*
X140259454Y-95949500D01*
X140259449Y-95949500D01*
X140080589Y-95977829D01*
X139908363Y-96033787D01*
X139908360Y-96033788D01*
X139747002Y-96116006D01*
X139600505Y-96222441D01*
X139600500Y-96222445D01*
X139472445Y-96350500D01*
X139415374Y-96429052D01*
X139360044Y-96471717D01*
X139290430Y-96477696D01*
X139228635Y-96445090D01*
X139194278Y-96384251D01*
X139191698Y-96368765D01*
X139189506Y-96347303D01*
X139134358Y-96180880D01*
X139134356Y-96180875D01*
X139042315Y-96031654D01*
X138918345Y-95907684D01*
X138769124Y-95815643D01*
X138769119Y-95815641D01*
X138602697Y-95760494D01*
X138602690Y-95760493D01*
X138499986Y-95750000D01*
X138100000Y-95750000D01*
X138100000Y-96816988D01*
X138042993Y-96784075D01*
X137915826Y-96750000D01*
X137784174Y-96750000D01*
X137657007Y-96784075D01*
X137600000Y-96816988D01*
X137600000Y-95750000D01*
X137200028Y-95750000D01*
X137200012Y-95750001D01*
X137097302Y-95760494D01*
X136930880Y-95815641D01*
X136930875Y-95815643D01*
X136781654Y-95907684D01*
X136657684Y-96031654D01*
X136565643Y-96180875D01*
X136565641Y-96180880D01*
X136510494Y-96347302D01*
X136510493Y-96347309D01*
X136500000Y-96450013D01*
X133687090Y-96450013D01*
X134560489Y-95576614D01*
X134619799Y-95473887D01*
X134634109Y-95420480D01*
X134650500Y-95359309D01*
X134650500Y-87499500D01*
X134670185Y-87432461D01*
X134722989Y-87386706D01*
X134774500Y-87375500D01*
X144634307Y-87375500D01*
X144634309Y-87375500D01*
X144731342Y-87349500D01*
X144748887Y-87344799D01*
X144851614Y-87285489D01*
X146360489Y-85776614D01*
X146416813Y-85679057D01*
X146419799Y-85673886D01*
X146450500Y-85559309D01*
X146450500Y-84256574D01*
X146470185Y-84189535D01*
X146522989Y-84143780D01*
X146592147Y-84133836D01*
X146655703Y-84162861D01*
X146693477Y-84221639D01*
X146696117Y-84232383D01*
X146710261Y-84303489D01*
X146710264Y-84303501D01*
X146770602Y-84449172D01*
X146770609Y-84449185D01*
X146858210Y-84580288D01*
X146858213Y-84580292D01*
X146969707Y-84691786D01*
X146969711Y-84691789D01*
X147100814Y-84779390D01*
X147100827Y-84779397D01*
X147217892Y-84827886D01*
X147246503Y-84839737D01*
X147401153Y-84870499D01*
X147401156Y-84870500D01*
X147401158Y-84870500D01*
X148158844Y-84870500D01*
X148158845Y-84870499D01*
X148313497Y-84839737D01*
X148459179Y-84779394D01*
X148590289Y-84691789D01*
X148701789Y-84580289D01*
X148789394Y-84449179D01*
X148849737Y-84303497D01*
X148880500Y-84148842D01*
X148880500Y-83991158D01*
X148880500Y-83991155D01*
X148880499Y-83991153D01*
X148865122Y-83913848D01*
X148849737Y-83836503D01*
X148834617Y-83800000D01*
X148789397Y-83690827D01*
X148789390Y-83690814D01*
X148701789Y-83559711D01*
X148701786Y-83559707D01*
X148590292Y-83448213D01*
X148590288Y-83448210D01*
X148459185Y-83360609D01*
X148459172Y-83360602D01*
X148313501Y-83300264D01*
X148313489Y-83300261D01*
X148158845Y-83269500D01*
X148158842Y-83269500D01*
X147401158Y-83269500D01*
X147401155Y-83269500D01*
X147246510Y-83300261D01*
X147246498Y-83300264D01*
X147100827Y-83360602D01*
X147100814Y-83360609D01*
X146969711Y-83448210D01*
X146969707Y-83448213D01*
X146858213Y-83559707D01*
X146858210Y-83559711D01*
X146770609Y-83690814D01*
X146770602Y-83690827D01*
X146710264Y-83836498D01*
X146710261Y-83836508D01*
X146696117Y-83907617D01*
X146663732Y-83969528D01*
X146603016Y-84004102D01*
X146533247Y-84000362D01*
X146476575Y-83959495D01*
X146450994Y-83894477D01*
X146450500Y-83883425D01*
X146450500Y-75716574D01*
X146470185Y-75649535D01*
X146522989Y-75603780D01*
X146592147Y-75593836D01*
X146655703Y-75622861D01*
X146693477Y-75681639D01*
X146696117Y-75692383D01*
X146710261Y-75763489D01*
X146710264Y-75763501D01*
X146770602Y-75909172D01*
X146770609Y-75909185D01*
X146858210Y-76040288D01*
X146858213Y-76040292D01*
X146969707Y-76151786D01*
X146969711Y-76151789D01*
X147100814Y-76239390D01*
X147100827Y-76239397D01*
X147246498Y-76299735D01*
X147246503Y-76299737D01*
X147401153Y-76330499D01*
X147401156Y-76330500D01*
X147401158Y-76330500D01*
X148158844Y-76330500D01*
X148158845Y-76330499D01*
X148313497Y-76299737D01*
X148426166Y-76253067D01*
X148459172Y-76239397D01*
X148459172Y-76239396D01*
X148459179Y-76239394D01*
X148590289Y-76151789D01*
X148701789Y-76040289D01*
X148789394Y-75909179D01*
X148849737Y-75763497D01*
X148880500Y-75608842D01*
X148880500Y-75451158D01*
X148880500Y-75451155D01*
X148880499Y-75451153D01*
X148874202Y-75419495D01*
X148849737Y-75296503D01*
X148828782Y-75245913D01*
X148789397Y-75150827D01*
X148789390Y-75150814D01*
X148701789Y-75019711D01*
X148701786Y-75019707D01*
X148590292Y-74908213D01*
X148590288Y-74908210D01*
X148459185Y-74820609D01*
X148459172Y-74820602D01*
X148313501Y-74760264D01*
X148313489Y-74760261D01*
X148158845Y-74729500D01*
X148158842Y-74729500D01*
X147401158Y-74729500D01*
X147401155Y-74729500D01*
X147246510Y-74760261D01*
X147246498Y-74760264D01*
X147100827Y-74820602D01*
X147100814Y-74820609D01*
X146969711Y-74908210D01*
X146969707Y-74908213D01*
X146858213Y-75019707D01*
X146858210Y-75019711D01*
X146770609Y-75150814D01*
X146770602Y-75150827D01*
X146710264Y-75296498D01*
X146710261Y-75296508D01*
X146696117Y-75367617D01*
X146663732Y-75429528D01*
X146603016Y-75464102D01*
X146533247Y-75460362D01*
X146476575Y-75419495D01*
X146450994Y-75354477D01*
X146450500Y-75343425D01*
X146450500Y-73188472D01*
X146470185Y-73121433D01*
X146522989Y-73075678D01*
X146592147Y-73065734D01*
X146655703Y-73094759D01*
X146689059Y-73141016D01*
X146724484Y-73226540D01*
X146724488Y-73226549D01*
X146724490Y-73226553D01*
X146823035Y-73374034D01*
X146823038Y-73374038D01*
X146948461Y-73499461D01*
X146948465Y-73499464D01*
X147095946Y-73598009D01*
X147095959Y-73598016D01*
X147217326Y-73648287D01*
X147259834Y-73665894D01*
X147259836Y-73665894D01*
X147259841Y-73665896D01*
X147433804Y-73700499D01*
X147433807Y-73700500D01*
X147433809Y-73700500D01*
X147611193Y-73700500D01*
X147611194Y-73700499D01*
X147669182Y-73688964D01*
X147785158Y-73665896D01*
X147785161Y-73665894D01*
X147785166Y-73665894D01*
X147949047Y-73598013D01*
X148096535Y-73499464D01*
X148221964Y-73374035D01*
X148320513Y-73226547D01*
X148388394Y-73062666D01*
X148423000Y-72888691D01*
X148423000Y-72711309D01*
X148423000Y-72711306D01*
X148422999Y-72711304D01*
X148388396Y-72537341D01*
X148388393Y-72537332D01*
X148320516Y-72373459D01*
X148320509Y-72373446D01*
X148221964Y-72225965D01*
X148221961Y-72225961D01*
X148096538Y-72100538D01*
X148096534Y-72100535D01*
X147949053Y-72001990D01*
X147949040Y-72001983D01*
X147785167Y-71934106D01*
X147785158Y-71934103D01*
X147611194Y-71899500D01*
X147611191Y-71899500D01*
X147433809Y-71899500D01*
X147433806Y-71899500D01*
X147259841Y-71934103D01*
X147259832Y-71934106D01*
X147095959Y-72001983D01*
X147095946Y-72001990D01*
X146948465Y-72100535D01*
X146948461Y-72100538D01*
X146823038Y-72225961D01*
X146823035Y-72225965D01*
X146724490Y-72373446D01*
X146724483Y-72373459D01*
X146689061Y-72458979D01*
X146645221Y-72513383D01*
X146578927Y-72535448D01*
X146511227Y-72518169D01*
X146463616Y-72467032D01*
X146450500Y-72411527D01*
X146450500Y-71940693D01*
X146450500Y-71940691D01*
X146419799Y-71826114D01*
X146394054Y-71781523D01*
X146394054Y-71781522D01*
X146394052Y-71781520D01*
X146360491Y-71723389D01*
X146360487Y-71723384D01*
X145136700Y-70499597D01*
X145103215Y-70438274D01*
X145101442Y-70428099D01*
X145100500Y-70420945D01*
X145100500Y-70420943D01*
X145059577Y-70268216D01*
X144987065Y-70142620D01*
X144980524Y-70131290D01*
X144980518Y-70131282D01*
X144868717Y-70019481D01*
X144868709Y-70019475D01*
X144731790Y-69940426D01*
X144731786Y-69940424D01*
X144731784Y-69940423D01*
X144579057Y-69899500D01*
X144420943Y-69899500D01*
X144268216Y-69940423D01*
X144268209Y-69940426D01*
X144131290Y-70019475D01*
X144131282Y-70019481D01*
X144019481Y-70131282D01*
X144019475Y-70131290D01*
X143940426Y-70268209D01*
X143940423Y-70268216D01*
X143899500Y-70420943D01*
X143899500Y-70579056D01*
X143940423Y-70731783D01*
X143940426Y-70731790D01*
X144019475Y-70868709D01*
X144019479Y-70868714D01*
X144019480Y-70868716D01*
X144131284Y-70980520D01*
X144131286Y-70980521D01*
X144131290Y-70980524D01*
X144268209Y-71059573D01*
X144268216Y-71059577D01*
X144420943Y-71100500D01*
X144420945Y-71100500D01*
X144428099Y-71101442D01*
X144491996Y-71129707D01*
X144499597Y-71136700D01*
X145050716Y-71687819D01*
X145084201Y-71749142D01*
X145079217Y-71818834D01*
X145037345Y-71874767D01*
X144971881Y-71899184D01*
X144963035Y-71899500D01*
X144893806Y-71899500D01*
X144719841Y-71934103D01*
X144719832Y-71934106D01*
X144555959Y-72001983D01*
X144555946Y-72001990D01*
X144408465Y-72100535D01*
X144408461Y-72100538D01*
X144283038Y-72225961D01*
X144283035Y-72225965D01*
X144184490Y-72373446D01*
X144184483Y-72373459D01*
X144116606Y-72537332D01*
X144116603Y-72537341D01*
X144082000Y-72711304D01*
X144082000Y-72888695D01*
X144116603Y-73062658D01*
X144116606Y-73062667D01*
X144184483Y-73226540D01*
X144184490Y-73226553D01*
X144283035Y-73374034D01*
X144283038Y-73374038D01*
X144408464Y-73499464D01*
X144476891Y-73545185D01*
X144521696Y-73598797D01*
X144532000Y-73648287D01*
X144532000Y-84562034D01*
X144512315Y-84629073D01*
X144495685Y-84649710D01*
X144332214Y-84813182D01*
X144305285Y-84827886D01*
X144279470Y-84844477D01*
X144273269Y-84845368D01*
X144270893Y-84846666D01*
X144244535Y-84849500D01*
X144001941Y-84849500D01*
X143934902Y-84829815D01*
X143889147Y-84777011D01*
X143879203Y-84707853D01*
X143908228Y-84644297D01*
X143914260Y-84637819D01*
X143971786Y-84580292D01*
X143971789Y-84580289D01*
X144059394Y-84449179D01*
X144119737Y-84303497D01*
X144150500Y-84148842D01*
X144150500Y-83991158D01*
X144150500Y-83991155D01*
X144150499Y-83991153D01*
X144135122Y-83913848D01*
X144119737Y-83836503D01*
X144104617Y-83800000D01*
X144059397Y-83690827D01*
X144059390Y-83690814D01*
X143971789Y-83559711D01*
X143971786Y-83559707D01*
X143860292Y-83448213D01*
X143860288Y-83448210D01*
X143729185Y-83360609D01*
X143729172Y-83360602D01*
X143583501Y-83300264D01*
X143583489Y-83300261D01*
X143428845Y-83269500D01*
X143428842Y-83269500D01*
X142676861Y-83269500D01*
X142673463Y-83268502D01*
X142670015Y-83269311D01*
X142640180Y-83258729D01*
X142609822Y-83249815D01*
X142607503Y-83247139D01*
X142604164Y-83245955D01*
X142584785Y-83220921D01*
X142564067Y-83197011D01*
X142563562Y-83193505D01*
X142561395Y-83190705D01*
X142558627Y-83159183D01*
X142554123Y-83127853D01*
X142555503Y-83123591D01*
X142555285Y-83121103D01*
X142559942Y-83109884D01*
X142567083Y-83087840D01*
X142682396Y-82868298D01*
X142702928Y-82847090D01*
X142721453Y-82824102D01*
X142727791Y-82821410D01*
X142730996Y-82818100D01*
X142741244Y-82815696D01*
X142767982Y-82804341D01*
X142782452Y-82801463D01*
X142896286Y-82754311D01*
X142998733Y-82685858D01*
X143085858Y-82598733D01*
X143154311Y-82496286D01*
X143201463Y-82382452D01*
X143225500Y-82261606D01*
X143225500Y-82138394D01*
X143201463Y-82017548D01*
X143160717Y-81919180D01*
X143154312Y-81903716D01*
X143154306Y-81903705D01*
X143131044Y-81868892D01*
X143110165Y-81802215D01*
X143128649Y-81734834D01*
X143131044Y-81731108D01*
X143154306Y-81696294D01*
X143154307Y-81696291D01*
X143154311Y-81696286D01*
X143201463Y-81582452D01*
X143225500Y-81461606D01*
X143225500Y-81338394D01*
X143201463Y-81217548D01*
X143154311Y-81103714D01*
X143154310Y-81103713D01*
X143154306Y-81103705D01*
X143131044Y-81068892D01*
X143110165Y-81002215D01*
X143128649Y-80934834D01*
X143131044Y-80931108D01*
X143154306Y-80896294D01*
X143154307Y-80896291D01*
X143154311Y-80896286D01*
X143201463Y-80782452D01*
X143225500Y-80661606D01*
X143225500Y-80538394D01*
X143224867Y-80535211D01*
X143222377Y-80522691D01*
X143228604Y-80453100D01*
X143271467Y-80397922D01*
X143337357Y-80374678D01*
X143343994Y-80374500D01*
X143437419Y-80374500D01*
X143437422Y-80374500D01*
X143529999Y-80349694D01*
X143613001Y-80301773D01*
X143991273Y-79923501D01*
X144039194Y-79840499D01*
X144064000Y-79747922D01*
X144064000Y-79652078D01*
X144064000Y-76752078D01*
X144039194Y-76659501D01*
X143993595Y-76580520D01*
X143991275Y-76576502D01*
X143991271Y-76576497D01*
X143791053Y-76376279D01*
X143757568Y-76314956D01*
X143762552Y-76245264D01*
X143804424Y-76189331D01*
X143809844Y-76185496D01*
X143843614Y-76162930D01*
X143860289Y-76151789D01*
X143971789Y-76040289D01*
X144059394Y-75909179D01*
X144119737Y-75763497D01*
X144150500Y-75608842D01*
X144150500Y-75451158D01*
X144150500Y-75451155D01*
X144150499Y-75451153D01*
X144144202Y-75419495D01*
X144119737Y-75296503D01*
X144098782Y-75245913D01*
X144059397Y-75150827D01*
X144059390Y-75150814D01*
X143971789Y-75019711D01*
X143971786Y-75019707D01*
X143860292Y-74908213D01*
X143860288Y-74908210D01*
X143729185Y-74820609D01*
X143729172Y-74820602D01*
X143583501Y-74760264D01*
X143583489Y-74760261D01*
X143428845Y-74729500D01*
X143428842Y-74729500D01*
X142671158Y-74729500D01*
X142671155Y-74729500D01*
X142516510Y-74760261D01*
X142516498Y-74760264D01*
X142370827Y-74820602D01*
X142370814Y-74820609D01*
X142239711Y-74908210D01*
X142239707Y-74908213D01*
X142128213Y-75019707D01*
X142128210Y-75019711D01*
X142040609Y-75150814D01*
X142040602Y-75150827D01*
X141980264Y-75296498D01*
X141980261Y-75296510D01*
X141949500Y-75451153D01*
X141949500Y-75528413D01*
X141929815Y-75595452D01*
X141877011Y-75641207D01*
X141807853Y-75651151D01*
X141793411Y-75648188D01*
X141747922Y-75636000D01*
X141747921Y-75636000D01*
X139936598Y-75636000D01*
X139869559Y-75616315D01*
X139848917Y-75599681D01*
X139768717Y-75519481D01*
X139768709Y-75519475D01*
X139631790Y-75440426D01*
X139631786Y-75440424D01*
X139631784Y-75440423D01*
X139479057Y-75399500D01*
X139320943Y-75399500D01*
X139168216Y-75440423D01*
X139168209Y-75440426D01*
X139031290Y-75519475D01*
X139031282Y-75519481D01*
X138919481Y-75631282D01*
X138919475Y-75631290D01*
X138840426Y-75768209D01*
X138840423Y-75768216D01*
X138799500Y-75920943D01*
X138799500Y-76079057D01*
X138833283Y-76205135D01*
X138840423Y-76231783D01*
X138840426Y-76231790D01*
X138919475Y-76368709D01*
X138919479Y-76368714D01*
X138919480Y-76368716D01*
X139031284Y-76480520D01*
X139031286Y-76480521D01*
X139031290Y-76480524D01*
X139163564Y-76556891D01*
X139168216Y-76559577D01*
X139320943Y-76600500D01*
X139320945Y-76600500D01*
X139479055Y-76600500D01*
X139479057Y-76600500D01*
X139631784Y-76559577D01*
X139768716Y-76480520D01*
X139848917Y-76400319D01*
X139910240Y-76366834D01*
X139936598Y-76364000D01*
X141100755Y-76364000D01*
X141167794Y-76383685D01*
X141213549Y-76436489D01*
X141223493Y-76505647D01*
X141203857Y-76556891D01*
X141168892Y-76609219D01*
X141168891Y-76609220D01*
X141106705Y-76759351D01*
X141106702Y-76759363D01*
X141075000Y-76918740D01*
X141075000Y-77081259D01*
X141106702Y-77240636D01*
X141106705Y-77240648D01*
X141163618Y-77378048D01*
X141171087Y-77447517D01*
X141139812Y-77509996D01*
X141079723Y-77545648D01*
X141049057Y-77549500D01*
X136210025Y-77549500D01*
X136116724Y-77574500D01*
X136116723Y-77574499D01*
X136070019Y-77587014D01*
X136070014Y-77587016D01*
X135944486Y-77659489D01*
X135944483Y-77659491D01*
X135041991Y-78561983D01*
X135041989Y-78561986D01*
X134984249Y-78661997D01*
X134984248Y-78661996D01*
X134969918Y-78686819D01*
X134969516Y-78687515D01*
X134932000Y-78827525D01*
X134932000Y-78827527D01*
X134932000Y-79521637D01*
X134924334Y-79560179D01*
X134925027Y-79560365D01*
X134922923Y-79568214D01*
X134922923Y-79568216D01*
X134882000Y-79720943D01*
X134882000Y-79879057D01*
X134922923Y-80031784D01*
X134925027Y-80039636D01*
X134924332Y-80039822D01*
X134932000Y-80078362D01*
X134932000Y-80472474D01*
X134952638Y-80549499D01*
X134969514Y-80612480D01*
X134969516Y-80612485D01*
X135041990Y-80738015D01*
X135744485Y-81440510D01*
X135848392Y-81500500D01*
X135870015Y-81512984D01*
X136010025Y-81550500D01*
X136010026Y-81550500D01*
X136154974Y-81550500D01*
X141160780Y-81550500D01*
X141227819Y-81570185D01*
X141273574Y-81622989D01*
X141283518Y-81692147D01*
X141282397Y-81698691D01*
X141274500Y-81738390D01*
X141274500Y-81861610D01*
X141293305Y-81956150D01*
X141298537Y-81982452D01*
X141313073Y-82017545D01*
X141321350Y-82037527D01*
X141328819Y-82106997D01*
X141297544Y-82169476D01*
X141237455Y-82205128D01*
X141229868Y-82204857D01*
X141230024Y-82205641D01*
X141165018Y-82218571D01*
X141106704Y-82359354D01*
X141106701Y-82359363D01*
X141075000Y-82518740D01*
X141075000Y-82681259D01*
X141106702Y-82840636D01*
X141106704Y-82840644D01*
X141165017Y-82981426D01*
X141546446Y-82600000D01*
X141527337Y-82580891D01*
X141525428Y-82577395D01*
X141522056Y-82575272D01*
X141508817Y-82546975D01*
X141493852Y-82519568D01*
X141494136Y-82515594D01*
X141492448Y-82511986D01*
X141496607Y-82481031D01*
X141498836Y-82449876D01*
X141501223Y-82446686D01*
X141501754Y-82442739D01*
X141521991Y-82418944D01*
X141540708Y-82393943D01*
X141544439Y-82392551D01*
X141547021Y-82389516D01*
X141576911Y-82380439D01*
X141606172Y-82369526D01*
X141611162Y-82370039D01*
X141613877Y-82369215D01*
X141625964Y-82371561D01*
X141648856Y-82373916D01*
X141655798Y-82375885D01*
X141717548Y-82401463D01*
X141811546Y-82420159D01*
X141786709Y-82430448D01*
X141730448Y-82486709D01*
X141700000Y-82560218D01*
X141700000Y-82639782D01*
X141730448Y-82713291D01*
X141786709Y-82769552D01*
X141860218Y-82800000D01*
X141939782Y-82800000D01*
X142013291Y-82769552D01*
X142021821Y-82761021D01*
X142017596Y-82820111D01*
X141989095Y-82864458D01*
X141518571Y-83334980D01*
X141659355Y-83393295D01*
X141659363Y-83393297D01*
X141818740Y-83424999D01*
X141818744Y-83425000D01*
X141986234Y-83425000D01*
X142053273Y-83444685D01*
X142099028Y-83497489D01*
X142108972Y-83566647D01*
X142089336Y-83617891D01*
X142040609Y-83690814D01*
X142040602Y-83690827D01*
X141980264Y-83836498D01*
X141980261Y-83836510D01*
X141949500Y-83991153D01*
X141949500Y-84148846D01*
X141980261Y-84303489D01*
X141980264Y-84303501D01*
X142040602Y-84449172D01*
X142040609Y-84449185D01*
X142128210Y-84580288D01*
X142128213Y-84580292D01*
X142185740Y-84637819D01*
X142219225Y-84699142D01*
X142214241Y-84768834D01*
X142172369Y-84824767D01*
X142106905Y-84849184D01*
X142098059Y-84849500D01*
X139348338Y-84849500D01*
X139281299Y-84829815D01*
X139235544Y-84777011D01*
X139225600Y-84707853D01*
X139254625Y-84644297D01*
X139260657Y-84637819D01*
X139306329Y-84592147D01*
X139355140Y-84543336D01*
X139434197Y-84406404D01*
X139475120Y-84253677D01*
X139475120Y-84095563D01*
X139434197Y-83942836D01*
X139417461Y-83913848D01*
X139355144Y-83805910D01*
X139355138Y-83805902D01*
X139243337Y-83694101D01*
X139243329Y-83694095D01*
X139106410Y-83615046D01*
X139106406Y-83615044D01*
X139106404Y-83615043D01*
X138953677Y-83574120D01*
X138953676Y-83574120D01*
X138867518Y-83574120D01*
X138835425Y-83569895D01*
X138797402Y-83559707D01*
X138759309Y-83549500D01*
X138759308Y-83549500D01*
X130997351Y-83549500D01*
X130930312Y-83529815D01*
X130884557Y-83477011D01*
X130874613Y-83407853D01*
X130878374Y-83390563D01*
X130881279Y-83380669D01*
X130885023Y-83367920D01*
X130885024Y-83367916D01*
X130905500Y-83225500D01*
X130905500Y-82524000D01*
X130893947Y-82416544D01*
X130882741Y-82365033D01*
X130875899Y-82344477D01*
X130848616Y-82262502D01*
X130848613Y-82262496D01*
X130811750Y-82205137D01*
X130770825Y-82141457D01*
X130768167Y-82138389D01*
X130725076Y-82088659D01*
X130725072Y-82088656D01*
X130725070Y-82088653D01*
X130616336Y-81994433D01*
X130616333Y-81994431D01*
X130616331Y-81994430D01*
X130485465Y-81934664D01*
X130485460Y-81934662D01*
X130485459Y-81934662D01*
X130418420Y-81914977D01*
X130418422Y-81914977D01*
X130418417Y-81914976D01*
X130363149Y-81907030D01*
X130276000Y-81894500D01*
X127893834Y-81894500D01*
X127893831Y-81894500D01*
X127781980Y-81907030D01*
X127728446Y-81919178D01*
X127728440Y-81919180D01*
X127622151Y-81956145D01*
X127622143Y-81956150D01*
X127502515Y-82036083D01*
X127450255Y-82083025D01*
X127448737Y-82084928D01*
X127358272Y-82193176D01*
X127358267Y-82193185D01*
X127300850Y-82325095D01*
X127282362Y-82392489D01*
X127264434Y-82535231D01*
X127264434Y-82535235D01*
X127287448Y-82677260D01*
X127287448Y-82677261D01*
X127308325Y-82743937D01*
X127343527Y-82817519D01*
X127346230Y-82823581D01*
X127378988Y-82902667D01*
X127386043Y-82925922D01*
X127392616Y-82958959D01*
X127395000Y-82983156D01*
X127395000Y-83016839D01*
X127392616Y-83041035D01*
X127386043Y-83074073D01*
X127378989Y-83097327D01*
X127366098Y-83128451D01*
X127354637Y-83149894D01*
X127335925Y-83177897D01*
X127320507Y-83196683D01*
X127278881Y-83238310D01*
X127242687Y-83278606D01*
X127226067Y-83299234D01*
X127226053Y-83299251D01*
X127194433Y-83343103D01*
X127194430Y-83343107D01*
X127134664Y-83473974D01*
X127114976Y-83541022D01*
X127109010Y-83582520D01*
X127097994Y-83659142D01*
X127094500Y-83683441D01*
X127094500Y-86395297D01*
X127074815Y-86462336D01*
X127070783Y-86468230D01*
X126729783Y-86937106D01*
X126674433Y-86979746D01*
X126604817Y-86985691D01*
X126543037Y-86953056D01*
X126508709Y-86892201D01*
X126505500Y-86864173D01*
X126505500Y-85624010D01*
X126505500Y-85624000D01*
X126493947Y-85516544D01*
X126482741Y-85465033D01*
X126476507Y-85446302D01*
X126448616Y-85362502D01*
X126448613Y-85362496D01*
X126417059Y-85313397D01*
X126370825Y-85241457D01*
X126370820Y-85241451D01*
X126325076Y-85188659D01*
X126325072Y-85188656D01*
X126325070Y-85188653D01*
X126216336Y-85094433D01*
X126216334Y-85094432D01*
X126216333Y-85094431D01*
X126215187Y-85093908D01*
X126214234Y-85093082D01*
X126208872Y-85089636D01*
X126209367Y-85088865D01*
X126162383Y-85048154D01*
X126142697Y-84981115D01*
X126162381Y-84914075D01*
X126189010Y-84884465D01*
X126297369Y-84797364D01*
X126416607Y-84649025D01*
X126416609Y-84649022D01*
X126501168Y-84478523D01*
X126547102Y-84293824D01*
X126550000Y-84251096D01*
X126550000Y-84050000D01*
X125174000Y-84050000D01*
X125106961Y-84030315D01*
X125061206Y-83977511D01*
X125050000Y-83926000D01*
X125050000Y-83800000D01*
X124924000Y-83800000D01*
X124856961Y-83780315D01*
X124811206Y-83727511D01*
X124800000Y-83676000D01*
X124800000Y-83550000D01*
X125300000Y-83550000D01*
X126550000Y-83550000D01*
X126550000Y-83348903D01*
X126547102Y-83306175D01*
X126501168Y-83121476D01*
X126416609Y-82950977D01*
X126416607Y-82950974D01*
X126297367Y-82802633D01*
X126297366Y-82802632D01*
X126149025Y-82683392D01*
X126149022Y-82683390D01*
X125978523Y-82598831D01*
X125793824Y-82552897D01*
X125751097Y-82550000D01*
X125300000Y-82550000D01*
X125300000Y-83550000D01*
X124800000Y-83550000D01*
X124800000Y-82550000D01*
X124348903Y-82550000D01*
X124306175Y-82552897D01*
X124121476Y-82598831D01*
X123950977Y-82683390D01*
X123950974Y-82683392D01*
X123802635Y-82802631D01*
X123726147Y-82897786D01*
X123668803Y-82937704D01*
X123598981Y-82940284D01*
X123538849Y-82904705D01*
X123507497Y-82842264D01*
X123505500Y-82820098D01*
X123505500Y-81549986D01*
X124025001Y-81549986D01*
X124035494Y-81652697D01*
X124090641Y-81819119D01*
X124090643Y-81819124D01*
X124182684Y-81968345D01*
X124306654Y-82092315D01*
X124455875Y-82184356D01*
X124455880Y-82184358D01*
X124622302Y-82239505D01*
X124622309Y-82239506D01*
X124725019Y-82249999D01*
X124849999Y-82249999D01*
X124850000Y-82249998D01*
X124850000Y-80650000D01*
X125350000Y-80650000D01*
X125350000Y-82249999D01*
X125474972Y-82249999D01*
X125474986Y-82249998D01*
X125577697Y-82239505D01*
X125744119Y-82184358D01*
X125744124Y-82184356D01*
X125893345Y-82092315D01*
X126017315Y-81968345D01*
X126109356Y-81819124D01*
X126109358Y-81819119D01*
X126164505Y-81652697D01*
X126164506Y-81652690D01*
X126174999Y-81549986D01*
X126174999Y-81505066D01*
X126194682Y-81438026D01*
X126247485Y-81392270D01*
X126316643Y-81382325D01*
X126360998Y-81397676D01*
X126435194Y-81440512D01*
X126468216Y-81459577D01*
X126620943Y-81500500D01*
X126620945Y-81500500D01*
X126779055Y-81500500D01*
X126779057Y-81500500D01*
X126931784Y-81459577D01*
X127068716Y-81380520D01*
X127068721Y-81380514D01*
X127074443Y-81376125D01*
X127139612Y-81350930D01*
X127149931Y-81350500D01*
X131962035Y-81350500D01*
X132029074Y-81370185D01*
X132049715Y-81386818D01*
X133523386Y-82860490D01*
X133626113Y-82919799D01*
X133630379Y-82920942D01*
X133630381Y-82920943D01*
X133630382Y-82920943D01*
X133648965Y-82925922D01*
X133740691Y-82950500D01*
X135700069Y-82950500D01*
X135767108Y-82970185D01*
X135775557Y-82976125D01*
X135781281Y-82980517D01*
X135781284Y-82980520D01*
X135781287Y-82980521D01*
X135781290Y-82980524D01*
X135865346Y-83029053D01*
X135918216Y-83059577D01*
X136070943Y-83100500D01*
X136070945Y-83100500D01*
X136229055Y-83100500D01*
X136229057Y-83100500D01*
X136381784Y-83059577D01*
X136518716Y-82980520D01*
X136630520Y-82868716D01*
X136709577Y-82731784D01*
X136750500Y-82579057D01*
X136750500Y-82420943D01*
X136709577Y-82268216D01*
X136695104Y-82243147D01*
X136630524Y-82131290D01*
X136630518Y-82131282D01*
X136518717Y-82019481D01*
X136518709Y-82019475D01*
X136381790Y-81940426D01*
X136381786Y-81940424D01*
X136381784Y-81940423D01*
X136229057Y-81899500D01*
X136070943Y-81899500D01*
X135918216Y-81940423D01*
X135918209Y-81940426D01*
X135781290Y-82019475D01*
X135775557Y-82023875D01*
X135710388Y-82049070D01*
X135700069Y-82049500D01*
X134037966Y-82049500D01*
X134008525Y-82040855D01*
X133978539Y-82034332D01*
X133973523Y-82030577D01*
X133970927Y-82029815D01*
X133950285Y-82013181D01*
X133923798Y-81986694D01*
X133890313Y-81925371D01*
X133895297Y-81855679D01*
X133937169Y-81799746D01*
X133949474Y-81791629D01*
X133968716Y-81780520D01*
X134080520Y-81668716D01*
X134159577Y-81531784D01*
X134200500Y-81379057D01*
X134200500Y-81220943D01*
X134159577Y-81068216D01*
X134150500Y-81052494D01*
X134080524Y-80931290D01*
X134080518Y-80931282D01*
X133986819Y-80837583D01*
X133953334Y-80776260D01*
X133950500Y-80749902D01*
X133950500Y-77449930D01*
X133970185Y-77382891D01*
X133976128Y-77374438D01*
X133980512Y-77368723D01*
X133980520Y-77368716D01*
X133982662Y-77365007D01*
X134023156Y-77294868D01*
X134059577Y-77231784D01*
X134100500Y-77079057D01*
X134100500Y-76920943D01*
X134059577Y-76768216D01*
X134050260Y-76752078D01*
X133980524Y-76631290D01*
X133980518Y-76631282D01*
X133868717Y-76519481D01*
X133868709Y-76519475D01*
X133731790Y-76440426D01*
X133731786Y-76440424D01*
X133731784Y-76440423D01*
X133579057Y-76399500D01*
X133420943Y-76399500D01*
X133268216Y-76440423D01*
X133268209Y-76440426D01*
X133131290Y-76519475D01*
X133131282Y-76519481D01*
X133019481Y-76631282D01*
X133019475Y-76631290D01*
X132940426Y-76768209D01*
X132940423Y-76768216D01*
X132899500Y-76920943D01*
X132899500Y-77079057D01*
X132936609Y-77217548D01*
X132940423Y-77231783D01*
X132940426Y-77231790D01*
X133019473Y-77368706D01*
X133019477Y-77368712D01*
X133019480Y-77368716D01*
X133019482Y-77368718D01*
X133023872Y-77374438D01*
X133049069Y-77439606D01*
X133049500Y-77449930D01*
X133049500Y-80813035D01*
X133029815Y-80880074D01*
X132977011Y-80925829D01*
X132907853Y-80935773D01*
X132844297Y-80906748D01*
X132837819Y-80900716D01*
X132476616Y-80539513D01*
X132476614Y-80539511D01*
X132373887Y-80480201D01*
X132373884Y-80480199D01*
X132345054Y-80472475D01*
X132345053Y-80472474D01*
X132345053Y-80472475D01*
X132272744Y-80453100D01*
X132259309Y-80449500D01*
X132259308Y-80449500D01*
X127149931Y-80449500D01*
X127082892Y-80429815D01*
X127074443Y-80423875D01*
X127068709Y-80419475D01*
X126931790Y-80340426D01*
X126931786Y-80340424D01*
X126931784Y-80340423D01*
X126779057Y-80299500D01*
X126620943Y-80299500D01*
X126468216Y-80340423D01*
X126468209Y-80340426D01*
X126331290Y-80419475D01*
X126331282Y-80419481D01*
X126219481Y-80531282D01*
X126219477Y-80531287D01*
X126186735Y-80588000D01*
X126136169Y-80636215D01*
X126079348Y-80650000D01*
X125350000Y-80650000D01*
X124850000Y-80650000D01*
X124025001Y-80650000D01*
X124025001Y-81549986D01*
X123505500Y-81549986D01*
X123505500Y-79250013D01*
X124025000Y-79250013D01*
X124025000Y-80150000D01*
X124850000Y-80150000D01*
X125350000Y-80150000D01*
X126174999Y-80150000D01*
X126174999Y-79250028D01*
X126174998Y-79250013D01*
X126164505Y-79147302D01*
X126109358Y-78980880D01*
X126109356Y-78980875D01*
X126017315Y-78831654D01*
X125893345Y-78707684D01*
X125744124Y-78615643D01*
X125744119Y-78615641D01*
X125577697Y-78560494D01*
X125577690Y-78560493D01*
X125474986Y-78550000D01*
X125350000Y-78550000D01*
X125350000Y-80150000D01*
X124850000Y-80150000D01*
X124850000Y-78550000D01*
X124725027Y-78550000D01*
X124725012Y-78550001D01*
X124622302Y-78560494D01*
X124455880Y-78615641D01*
X124455875Y-78615643D01*
X124306654Y-78707684D01*
X124182684Y-78831654D01*
X124090643Y-78980875D01*
X124090641Y-78980880D01*
X124035494Y-79147302D01*
X124035493Y-79147309D01*
X124025000Y-79250013D01*
X123505500Y-79250013D01*
X123505500Y-79124010D01*
X123505500Y-79124000D01*
X123493947Y-79016544D01*
X123482741Y-78965033D01*
X123456845Y-78887231D01*
X123450500Y-78848072D01*
X123450500Y-75097649D01*
X123442679Y-75048273D01*
X123438119Y-75019480D01*
X123418477Y-74895465D01*
X123364551Y-74729500D01*
X123355220Y-74700781D01*
X123279783Y-74552726D01*
X123279783Y-74552727D01*
X123262287Y-74518389D01*
X123141966Y-74352781D01*
X121500489Y-72711304D01*
X141542000Y-72711304D01*
X141542000Y-72888695D01*
X141576603Y-73062658D01*
X141576606Y-73062667D01*
X141644483Y-73226540D01*
X141644490Y-73226553D01*
X141743035Y-73374034D01*
X141743038Y-73374038D01*
X141868461Y-73499461D01*
X141868465Y-73499464D01*
X142015946Y-73598009D01*
X142015959Y-73598016D01*
X142137326Y-73648287D01*
X142179834Y-73665894D01*
X142179836Y-73665894D01*
X142179841Y-73665896D01*
X142353804Y-73700499D01*
X142353807Y-73700500D01*
X142353809Y-73700500D01*
X142531193Y-73700500D01*
X142531194Y-73700499D01*
X142589182Y-73688964D01*
X142705158Y-73665896D01*
X142705161Y-73665894D01*
X142705166Y-73665894D01*
X142869047Y-73598013D01*
X143016535Y-73499464D01*
X143141964Y-73374035D01*
X143240513Y-73226547D01*
X143308394Y-73062666D01*
X143343000Y-72888691D01*
X143343000Y-72711309D01*
X143343000Y-72711306D01*
X143342999Y-72711304D01*
X143308396Y-72537341D01*
X143308393Y-72537332D01*
X143240516Y-72373459D01*
X143240509Y-72373446D01*
X143141964Y-72225965D01*
X143141961Y-72225961D01*
X143016538Y-72100538D01*
X143016534Y-72100535D01*
X142869053Y-72001990D01*
X142869040Y-72001983D01*
X142705167Y-71934106D01*
X142705158Y-71934103D01*
X142531194Y-71899500D01*
X142531191Y-71899500D01*
X142353809Y-71899500D01*
X142353806Y-71899500D01*
X142179841Y-71934103D01*
X142179832Y-71934106D01*
X142015959Y-72001983D01*
X142015946Y-72001990D01*
X141868465Y-72100535D01*
X141868461Y-72100538D01*
X141743038Y-72225961D01*
X141743035Y-72225965D01*
X141644490Y-72373446D01*
X141644483Y-72373459D01*
X141576606Y-72537332D01*
X141576603Y-72537341D01*
X141542000Y-72711304D01*
X121500489Y-72711304D01*
X120847219Y-72058034D01*
X120681611Y-71937713D01*
X120499218Y-71844780D01*
X120304535Y-71781523D01*
X120304533Y-71781522D01*
X120304531Y-71781522D01*
X120163364Y-71759163D01*
X120102352Y-71749500D01*
X120102351Y-71749500D01*
X120054334Y-71749500D01*
X120012392Y-71741157D01*
X120012247Y-71741638D01*
X120007371Y-71740159D01*
X120006884Y-71740062D01*
X120006423Y-71739871D01*
X120006421Y-71739870D01*
X120006420Y-71739870D01*
X120006417Y-71739869D01*
X120006412Y-71739868D01*
X119803469Y-71699500D01*
X119803465Y-71699500D01*
X119674500Y-71699500D01*
X119607461Y-71679815D01*
X119561706Y-71627011D01*
X119550500Y-71575500D01*
X119550500Y-63778362D01*
X119558167Y-63739822D01*
X119557473Y-63739636D01*
X119565999Y-63707816D01*
X119600500Y-63579057D01*
X119600500Y-63420943D01*
X119559577Y-63268216D01*
X119537664Y-63230261D01*
X119480524Y-63131290D01*
X119480518Y-63131282D01*
X119368715Y-63019479D01*
X119334975Y-63000000D01*
X119327971Y-62995956D01*
X119231786Y-62940424D01*
X119231785Y-62940423D01*
X119231784Y-62940423D01*
X119079057Y-62899500D01*
X118920943Y-62899500D01*
X118768216Y-62940423D01*
X118768209Y-62940426D01*
X118631290Y-63019475D01*
X118631282Y-63019481D01*
X118519481Y-63131282D01*
X118519475Y-63131290D01*
X118440426Y-63268209D01*
X118440423Y-63268216D01*
X118399500Y-63420943D01*
X118399500Y-63579056D01*
X118442527Y-63739636D01*
X118441832Y-63739822D01*
X118449500Y-63778362D01*
X118449500Y-71575500D01*
X118429815Y-71642539D01*
X118377011Y-71688294D01*
X118325500Y-71699500D01*
X117275808Y-71699500D01*
X117208769Y-71679815D01*
X117163014Y-71627011D01*
X117153070Y-71557853D01*
X117176540Y-71501190D01*
X117183353Y-71492088D01*
X117183354Y-71492086D01*
X117233596Y-71357379D01*
X117233598Y-71357372D01*
X117239999Y-71297844D01*
X117240000Y-71297827D01*
X117240000Y-70202172D01*
X117239999Y-70202155D01*
X117233598Y-70142627D01*
X117233596Y-70142620D01*
X117183354Y-70007913D01*
X117183350Y-70007906D01*
X117097191Y-69892814D01*
X117097186Y-69892809D01*
X117013436Y-69830114D01*
X115916776Y-70926776D01*
X115093552Y-71749999D01*
X115105170Y-71778047D01*
X115112639Y-71847516D01*
X115081364Y-71909996D01*
X115021275Y-71945648D01*
X114990609Y-71949500D01*
X110132940Y-71949500D01*
X110065901Y-71929815D01*
X110045259Y-71913181D01*
X109436819Y-71304741D01*
X109403334Y-71243418D01*
X109400500Y-71217060D01*
X109400500Y-70202155D01*
X114240000Y-70202155D01*
X114240000Y-71297844D01*
X114246401Y-71357372D01*
X114246403Y-71357379D01*
X114296645Y-71492086D01*
X114296649Y-71492093D01*
X114382809Y-71607186D01*
X114466563Y-71669884D01*
X115386448Y-70750000D01*
X114466561Y-69830113D01*
X114382817Y-69892805D01*
X114382808Y-69892814D01*
X114296649Y-70007906D01*
X114296645Y-70007913D01*
X114246403Y-70142620D01*
X114246401Y-70142627D01*
X114240000Y-70202155D01*
X109400500Y-70202155D01*
X109400500Y-65799986D01*
X110875001Y-65799986D01*
X110885494Y-65902697D01*
X110940641Y-66069119D01*
X110940643Y-66069124D01*
X111032684Y-66218345D01*
X111156654Y-66342315D01*
X111305875Y-66434356D01*
X111305880Y-66434358D01*
X111472302Y-66489505D01*
X111472309Y-66489506D01*
X111575019Y-66499999D01*
X112224999Y-66499999D01*
X112725000Y-66499999D01*
X113374972Y-66499999D01*
X113374986Y-66499998D01*
X113477697Y-66489505D01*
X113644119Y-66434358D01*
X113644124Y-66434356D01*
X113793345Y-66342315D01*
X113917315Y-66218345D01*
X114009356Y-66069124D01*
X114009358Y-66069119D01*
X114064505Y-65902697D01*
X114064506Y-65902690D01*
X114074999Y-65799986D01*
X114075000Y-65799973D01*
X114075000Y-65725000D01*
X112725000Y-65725000D01*
X112725000Y-66499999D01*
X112224999Y-66499999D01*
X112225000Y-66499998D01*
X112225000Y-65725000D01*
X110875001Y-65725000D01*
X110875001Y-65799986D01*
X109400500Y-65799986D01*
X109400500Y-65150013D01*
X110875000Y-65150013D01*
X110875000Y-65225000D01*
X114074999Y-65225000D01*
X114074999Y-65150028D01*
X114074998Y-65150013D01*
X114064506Y-65047304D01*
X114036737Y-64963505D01*
X114034335Y-64893676D01*
X114070066Y-64833634D01*
X114132587Y-64802441D01*
X114154443Y-64800500D01*
X114617060Y-64800500D01*
X114684099Y-64820185D01*
X114704741Y-64836819D01*
X114903181Y-65035259D01*
X114936666Y-65096582D01*
X114939500Y-65122940D01*
X114939500Y-67825500D01*
X114919815Y-67892539D01*
X114867011Y-67938294D01*
X114815501Y-67949500D01*
X114695142Y-67949500D01*
X114695119Y-67949502D01*
X114670011Y-67952414D01*
X114670008Y-67952415D01*
X114567235Y-67997793D01*
X114487794Y-68077234D01*
X114442415Y-68180006D01*
X114442415Y-68180008D01*
X114439500Y-68205131D01*
X114439500Y-69294856D01*
X114439502Y-69294882D01*
X114442413Y-69319987D01*
X114442415Y-69319991D01*
X114487793Y-69422764D01*
X114487794Y-69422765D01*
X114567235Y-69502206D01*
X114670009Y-69547585D01*
X114695135Y-69550500D01*
X114990610Y-69550499D01*
X115057647Y-69570183D01*
X115103402Y-69622987D01*
X115113346Y-69692146D01*
X115105169Y-69721951D01*
X115093551Y-69749999D01*
X115740000Y-70396448D01*
X116386448Y-69750000D01*
X116374830Y-69721952D01*
X116367361Y-69652482D01*
X116398636Y-69590003D01*
X116458725Y-69554351D01*
X116489391Y-69550499D01*
X116784856Y-69550499D01*
X116784864Y-69550499D01*
X116784879Y-69550497D01*
X116784882Y-69550497D01*
X116809987Y-69547586D01*
X116809988Y-69547585D01*
X116809991Y-69547585D01*
X116912765Y-69502206D01*
X116992206Y-69422765D01*
X117037585Y-69319991D01*
X117040500Y-69294865D01*
X117040499Y-68205136D01*
X117040497Y-68205117D01*
X117037586Y-68180012D01*
X117037585Y-68180010D01*
X117037585Y-68180009D01*
X116992206Y-68077235D01*
X116912765Y-67997794D01*
X116912763Y-67997793D01*
X116809992Y-67952415D01*
X116784868Y-67949500D01*
X116784865Y-67949500D01*
X116664500Y-67949500D01*
X116597461Y-67929815D01*
X116551706Y-67877011D01*
X116540500Y-67825500D01*
X116540500Y-64661155D01*
X116540499Y-64661153D01*
X116526287Y-64589707D01*
X116509737Y-64506503D01*
X116495219Y-64471452D01*
X116449397Y-64360827D01*
X116449390Y-64360814D01*
X116361790Y-64229712D01*
X116361789Y-64229711D01*
X116250289Y-64118211D01*
X115910440Y-63778362D01*
X115510292Y-63378213D01*
X115510288Y-63378210D01*
X115379185Y-63290609D01*
X115379172Y-63290602D01*
X115233501Y-63230264D01*
X115233489Y-63230261D01*
X115078845Y-63199500D01*
X115078842Y-63199500D01*
X114318102Y-63199500D01*
X114154443Y-63199500D01*
X114087404Y-63179815D01*
X114041649Y-63127011D01*
X114031705Y-63057853D01*
X114036737Y-63036496D01*
X114064505Y-62952697D01*
X114064506Y-62952690D01*
X114070532Y-62893713D01*
X146149500Y-62893713D01*
X146149500Y-63106287D01*
X146151533Y-63119124D01*
X146175167Y-63268345D01*
X146182754Y-63316243D01*
X146216773Y-63420943D01*
X146248444Y-63518414D01*
X146344951Y-63707820D01*
X146469890Y-63879786D01*
X146620213Y-64030109D01*
X146792179Y-64155048D01*
X146792181Y-64155049D01*
X146792184Y-64155051D01*
X146981588Y-64251557D01*
X147183757Y-64317246D01*
X147393713Y-64350500D01*
X147393714Y-64350500D01*
X147606286Y-64350500D01*
X147606287Y-64350500D01*
X147816243Y-64317246D01*
X148018412Y-64251557D01*
X148207816Y-64155051D01*
X148258522Y-64118211D01*
X148379786Y-64030109D01*
X148379788Y-64030106D01*
X148379792Y-64030104D01*
X148530104Y-63879792D01*
X148530106Y-63879788D01*
X148530109Y-63879786D01*
X148655048Y-63707820D01*
X148655047Y-63707820D01*
X148655051Y-63707816D01*
X148751557Y-63518412D01*
X148817246Y-63316243D01*
X148850500Y-63106287D01*
X148850500Y-62893713D01*
X148817246Y-62683757D01*
X148751557Y-62481588D01*
X148655051Y-62292184D01*
X148655049Y-62292181D01*
X148655048Y-62292179D01*
X148530109Y-62120213D01*
X148379786Y-61969890D01*
X148207820Y-61844951D01*
X148018414Y-61748444D01*
X148018413Y-61748443D01*
X148018412Y-61748443D01*
X147816243Y-61682754D01*
X147816241Y-61682753D01*
X147816240Y-61682753D01*
X147654957Y-61657208D01*
X147606287Y-61649500D01*
X147393713Y-61649500D01*
X147345042Y-61657208D01*
X147183760Y-61682753D01*
X146981585Y-61748444D01*
X146792179Y-61844951D01*
X146620213Y-61969890D01*
X146469890Y-62120213D01*
X146344951Y-62292179D01*
X146248444Y-62481585D01*
X146182753Y-62683760D01*
X146168302Y-62775000D01*
X146149500Y-62893713D01*
X114070532Y-62893713D01*
X114074999Y-62849986D01*
X114075000Y-62849973D01*
X114075000Y-62775000D01*
X110875001Y-62775000D01*
X110875001Y-62849986D01*
X110885494Y-62952697D01*
X110940641Y-63119119D01*
X110940643Y-63119124D01*
X111032684Y-63268345D01*
X111156654Y-63392315D01*
X111312025Y-63488149D01*
X111310965Y-63489866D01*
X111355833Y-63529359D01*
X111375000Y-63595586D01*
X111375000Y-64404413D01*
X111355315Y-64471452D01*
X111310989Y-64510171D01*
X111312025Y-64511851D01*
X111156654Y-64607684D01*
X111032684Y-64731654D01*
X110940643Y-64880875D01*
X110940641Y-64880880D01*
X110885494Y-65047302D01*
X110885493Y-65047309D01*
X110875000Y-65150013D01*
X109400500Y-65150013D01*
X109400500Y-65021155D01*
X109400499Y-65021153D01*
X109375142Y-64893676D01*
X109369737Y-64866503D01*
X109337998Y-64789877D01*
X109309397Y-64720827D01*
X109309390Y-64720814D01*
X109221789Y-64589711D01*
X109221786Y-64589707D01*
X109110292Y-64478213D01*
X109110288Y-64478210D01*
X108979185Y-64390609D01*
X108979172Y-64390602D01*
X108833501Y-64330264D01*
X108833489Y-64330261D01*
X108678845Y-64299500D01*
X108678842Y-64299500D01*
X108521158Y-64299500D01*
X108521155Y-64299500D01*
X108366510Y-64330261D01*
X108366498Y-64330264D01*
X108220827Y-64390602D01*
X108220814Y-64390609D01*
X108089711Y-64478210D01*
X108089707Y-64478213D01*
X107978213Y-64589707D01*
X107978210Y-64589711D01*
X107890609Y-64720814D01*
X107890602Y-64720827D01*
X107830264Y-64866498D01*
X107830261Y-64866510D01*
X107799500Y-65021153D01*
X107799500Y-71678846D01*
X107830261Y-71833489D01*
X107830264Y-71833501D01*
X107890602Y-71979172D01*
X107890609Y-71979185D01*
X107978210Y-72110288D01*
X107978213Y-72110292D01*
X109239707Y-73371786D01*
X109239711Y-73371789D01*
X109370814Y-73459390D01*
X109370818Y-73459392D01*
X109370821Y-73459394D01*
X109516503Y-73519738D01*
X109644437Y-73545185D01*
X109671153Y-73550499D01*
X109671157Y-73550500D01*
X109671158Y-73550500D01*
X114695135Y-73550500D01*
X115009567Y-73550500D01*
X115076606Y-73570185D01*
X115078457Y-73571398D01*
X115242399Y-73680940D01*
X115242403Y-73680942D01*
X115314823Y-73710939D01*
X115369227Y-73754780D01*
X115391292Y-73821074D01*
X115374013Y-73888773D01*
X115322876Y-73936384D01*
X115267371Y-73949500D01*
X114695143Y-73949500D01*
X114695117Y-73949502D01*
X114670012Y-73952413D01*
X114670008Y-73952415D01*
X114567235Y-73997793D01*
X114487794Y-74077234D01*
X114442415Y-74180006D01*
X114442415Y-74180008D01*
X114439500Y-74205131D01*
X114439500Y-74225500D01*
X114419815Y-74292539D01*
X114367011Y-74338294D01*
X114315500Y-74349500D01*
X113899273Y-74349500D01*
X113797410Y-74376793D01*
X113706087Y-74429520D01*
X113706084Y-74429522D01*
X113280522Y-74855084D01*
X113280518Y-74855090D01*
X113227792Y-74946413D01*
X113227791Y-74946413D01*
X113214530Y-74995911D01*
X113214530Y-74995912D01*
X113200500Y-75048273D01*
X113200500Y-75834745D01*
X113180815Y-75901784D01*
X113128011Y-75947539D01*
X113058853Y-75957483D01*
X112995297Y-75928458D01*
X112988819Y-75922426D01*
X112245915Y-75179522D01*
X112245913Y-75179520D01*
X112195648Y-75150499D01*
X112154589Y-75126793D01*
X112103657Y-75113146D01*
X112052727Y-75099500D01*
X112052726Y-75099500D01*
X109200098Y-75099500D01*
X109133059Y-75079815D01*
X109112417Y-75063181D01*
X109068716Y-75019480D01*
X109068709Y-75019475D01*
X108931790Y-74940426D01*
X108931786Y-74940424D01*
X108931784Y-74940423D01*
X108779057Y-74899500D01*
X108620943Y-74899500D01*
X108468216Y-74940423D01*
X108468209Y-74940426D01*
X108331290Y-75019475D01*
X108331284Y-75019480D01*
X108219481Y-75131282D01*
X108219475Y-75131290D01*
X108140426Y-75268209D01*
X108140423Y-75268216D01*
X108099500Y-75420943D01*
X108099500Y-75424314D01*
X108098695Y-75427052D01*
X108098439Y-75429003D01*
X108098134Y-75428962D01*
X108079815Y-75491353D01*
X108027011Y-75537108D01*
X107957853Y-75547052D01*
X107939752Y-75542087D01*
X107939635Y-75542527D01*
X107931785Y-75540423D01*
X107931784Y-75540423D01*
X107779057Y-75499500D01*
X107620943Y-75499500D01*
X107468216Y-75540423D01*
X107468209Y-75540426D01*
X107331290Y-75619475D01*
X107331282Y-75619481D01*
X107219481Y-75731282D01*
X107219475Y-75731290D01*
X107140426Y-75868209D01*
X107140423Y-75868216D01*
X107099500Y-76020943D01*
X102545450Y-76020943D01*
X103320480Y-75245913D01*
X103369097Y-75161706D01*
X103373206Y-75154588D01*
X103373207Y-75154587D01*
X103400500Y-75052727D01*
X103400500Y-73000098D01*
X103420185Y-72933059D01*
X103436819Y-72912417D01*
X103480520Y-72868716D01*
X103559577Y-72731784D01*
X103600500Y-72579057D01*
X103600500Y-72420943D01*
X103559577Y-72268216D01*
X103508651Y-72180008D01*
X103480524Y-72131290D01*
X103480518Y-72131282D01*
X103368717Y-72019481D01*
X103368709Y-72019475D01*
X103231790Y-71940426D01*
X103231786Y-71940424D01*
X103231784Y-71940423D01*
X103079057Y-71899500D01*
X102920943Y-71899500D01*
X102768216Y-71940423D01*
X102768209Y-71940426D01*
X102631290Y-72019475D01*
X102631282Y-72019481D01*
X102612181Y-72038583D01*
X102550858Y-72072068D01*
X102481166Y-72067084D01*
X102425233Y-72025212D01*
X102400816Y-71959748D01*
X102400500Y-71950902D01*
X102400500Y-70000098D01*
X102420185Y-69933059D01*
X102436819Y-69912417D01*
X102456431Y-69892805D01*
X102480520Y-69868716D01*
X102559577Y-69731784D01*
X102600500Y-69579057D01*
X102600500Y-69420943D01*
X102559577Y-69268216D01*
X102559573Y-69268209D01*
X102480524Y-69131290D01*
X102480518Y-69131282D01*
X102368717Y-69019481D01*
X102368709Y-69019475D01*
X102231790Y-68940426D01*
X102231786Y-68940424D01*
X102231784Y-68940423D01*
X102079057Y-68899500D01*
X101920943Y-68899500D01*
X101768216Y-68940423D01*
X101768209Y-68940426D01*
X101631290Y-69019475D01*
X101631282Y-69019481D01*
X101519481Y-69131282D01*
X101519475Y-69131290D01*
X101440426Y-69268209D01*
X101440423Y-69268216D01*
X101399500Y-69420943D01*
X101399500Y-69579057D01*
X101437789Y-69721951D01*
X101440423Y-69731783D01*
X101440426Y-69731790D01*
X101519475Y-69868709D01*
X101519481Y-69868717D01*
X101563181Y-69912417D01*
X101596666Y-69973740D01*
X101599500Y-70000098D01*
X101599500Y-73782744D01*
X101579815Y-73849783D01*
X101563181Y-73870425D01*
X101231748Y-74201858D01*
X101170425Y-74235343D01*
X101100733Y-74230359D01*
X101044800Y-74188487D01*
X101030633Y-74164264D01*
X101014593Y-74127938D01*
X100992206Y-74077235D01*
X100912765Y-73997794D01*
X100912763Y-73997793D01*
X100809992Y-73952415D01*
X100784865Y-73949500D01*
X98695143Y-73949500D01*
X98695117Y-73949502D01*
X98670012Y-73952413D01*
X98670008Y-73952415D01*
X98567235Y-73997793D01*
X98487794Y-74077234D01*
X98442415Y-74180006D01*
X98442415Y-74180008D01*
X98439500Y-74205131D01*
X96000500Y-74205131D01*
X96000500Y-72205131D01*
X98439500Y-72205131D01*
X98439500Y-73294856D01*
X98439502Y-73294882D01*
X98442413Y-73319987D01*
X98442415Y-73319991D01*
X98487793Y-73422764D01*
X98487794Y-73422765D01*
X98567235Y-73502206D01*
X98670009Y-73547585D01*
X98695135Y-73550500D01*
X100784864Y-73550499D01*
X100784879Y-73550497D01*
X100784882Y-73550497D01*
X100809987Y-73547586D01*
X100809988Y-73547585D01*
X100809991Y-73547585D01*
X100912765Y-73502206D01*
X100992206Y-73422765D01*
X101037585Y-73319991D01*
X101040500Y-73294865D01*
X101040499Y-72205136D01*
X101040497Y-72205117D01*
X101037586Y-72180012D01*
X101037585Y-72180010D01*
X101037585Y-72180009D01*
X100992206Y-72077235D01*
X100912765Y-71997794D01*
X100912763Y-71997793D01*
X100809992Y-71952415D01*
X100784868Y-71949500D01*
X100489391Y-71949500D01*
X100422352Y-71929815D01*
X100376597Y-71877011D01*
X100366653Y-71807853D01*
X100374830Y-71778047D01*
X100386447Y-71749999D01*
X99740000Y-71103552D01*
X99093552Y-71749999D01*
X99105170Y-71778047D01*
X99112639Y-71847516D01*
X99081364Y-71909996D01*
X99021275Y-71945648D01*
X98990609Y-71949500D01*
X98695143Y-71949500D01*
X98695117Y-71949502D01*
X98670012Y-71952413D01*
X98670008Y-71952415D01*
X98567235Y-71997793D01*
X98487794Y-72077234D01*
X98442415Y-72180006D01*
X98442415Y-72180008D01*
X98439500Y-72205131D01*
X96000500Y-72205131D01*
X96000500Y-70202155D01*
X98240000Y-70202155D01*
X98240000Y-71297844D01*
X98246401Y-71357372D01*
X98246403Y-71357379D01*
X98296645Y-71492086D01*
X98296649Y-71492093D01*
X98382809Y-71607186D01*
X98466563Y-71669884D01*
X99386448Y-70750000D01*
X99386448Y-70749999D01*
X100093552Y-70749999D01*
X100093552Y-70750001D01*
X101013436Y-71669885D01*
X101097189Y-71607187D01*
X101097190Y-71607186D01*
X101183352Y-71492088D01*
X101183354Y-71492086D01*
X101233596Y-71357379D01*
X101233598Y-71357372D01*
X101239999Y-71297844D01*
X101240000Y-71297827D01*
X101240000Y-70202172D01*
X101239999Y-70202155D01*
X101233598Y-70142627D01*
X101233596Y-70142620D01*
X101183354Y-70007913D01*
X101183350Y-70007906D01*
X101097191Y-69892814D01*
X101097186Y-69892809D01*
X101013436Y-69830114D01*
X100093552Y-70749999D01*
X99386448Y-70749999D01*
X98503224Y-69866776D01*
X98466561Y-69830113D01*
X98382817Y-69892805D01*
X98382808Y-69892814D01*
X98296649Y-70007906D01*
X98296645Y-70007913D01*
X98246403Y-70142620D01*
X98246401Y-70142627D01*
X98240000Y-70202155D01*
X96000500Y-70202155D01*
X96000500Y-69750000D01*
X99093551Y-69750000D01*
X99740000Y-70396448D01*
X100386448Y-69750000D01*
X99093551Y-69750000D01*
X96000500Y-69750000D01*
X96000500Y-63004066D01*
X96000765Y-62995956D01*
X96007466Y-62893713D01*
X96649500Y-62893713D01*
X96649500Y-63106287D01*
X96651533Y-63119124D01*
X96675167Y-63268345D01*
X96682754Y-63316243D01*
X96716773Y-63420943D01*
X96748444Y-63518414D01*
X96844951Y-63707820D01*
X96969890Y-63879786D01*
X97120213Y-64030109D01*
X97292179Y-64155048D01*
X97292181Y-64155049D01*
X97292184Y-64155051D01*
X97481588Y-64251557D01*
X97683757Y-64317246D01*
X97893713Y-64350500D01*
X97893714Y-64350500D01*
X98106286Y-64350500D01*
X98106287Y-64350500D01*
X98316243Y-64317246D01*
X98518412Y-64251557D01*
X98707816Y-64155051D01*
X98758522Y-64118211D01*
X98879786Y-64030109D01*
X98879788Y-64030106D01*
X98879792Y-64030104D01*
X99030104Y-63879792D01*
X99030106Y-63879788D01*
X99030109Y-63879786D01*
X99155048Y-63707820D01*
X99155047Y-63707820D01*
X99155051Y-63707816D01*
X99251557Y-63518412D01*
X99317246Y-63316243D01*
X99350500Y-63106287D01*
X99350500Y-62893713D01*
X99317246Y-62683757D01*
X99251557Y-62481588D01*
X99155051Y-62292184D01*
X99138750Y-62269748D01*
X99138750Y-62269746D01*
X99088086Y-62200013D01*
X110875000Y-62200013D01*
X110875000Y-62275000D01*
X112225000Y-62275000D01*
X112725000Y-62275000D01*
X114074999Y-62275000D01*
X114074999Y-62200028D01*
X114074998Y-62200013D01*
X114064505Y-62097302D01*
X114009358Y-61930880D01*
X114009356Y-61930875D01*
X113917315Y-61781654D01*
X113793345Y-61657684D01*
X113644124Y-61565643D01*
X113644119Y-61565641D01*
X113477697Y-61510494D01*
X113477690Y-61510493D01*
X113374986Y-61500000D01*
X112725000Y-61500000D01*
X112725000Y-62275000D01*
X112225000Y-62275000D01*
X112225000Y-61500000D01*
X111575028Y-61500000D01*
X111575012Y-61500001D01*
X111472302Y-61510494D01*
X111305880Y-61565641D01*
X111305875Y-61565643D01*
X111156654Y-61657684D01*
X111032684Y-61781654D01*
X110940643Y-61930875D01*
X110940641Y-61930880D01*
X110885494Y-62097302D01*
X110885493Y-62097309D01*
X110875000Y-62200013D01*
X99088086Y-62200013D01*
X99030109Y-62120214D01*
X99030105Y-62120209D01*
X98879786Y-61969890D01*
X98707820Y-61844951D01*
X98518414Y-61748444D01*
X98518413Y-61748443D01*
X98518412Y-61748443D01*
X98316243Y-61682754D01*
X98316241Y-61682753D01*
X98316240Y-61682753D01*
X98154957Y-61657208D01*
X98106287Y-61649500D01*
X97893713Y-61649500D01*
X97845042Y-61657208D01*
X97683760Y-61682753D01*
X97481585Y-61748444D01*
X97292179Y-61844951D01*
X97120213Y-61969890D01*
X96969890Y-62120213D01*
X96844951Y-62292179D01*
X96748444Y-62481585D01*
X96682753Y-62683760D01*
X96668302Y-62775000D01*
X96649500Y-62893713D01*
X96007466Y-62893713D01*
X96008317Y-62880731D01*
X96008317Y-62880730D01*
X96010333Y-62849973D01*
X96017075Y-62747104D01*
X96019190Y-62731048D01*
X96067045Y-62490462D01*
X96071243Y-62474797D01*
X96094337Y-62406762D01*
X96150093Y-62242512D01*
X96156291Y-62227547D01*
X96264790Y-62007533D01*
X96272893Y-61993498D01*
X96409182Y-61789527D01*
X96419039Y-61776681D01*
X96580786Y-61592244D01*
X96592244Y-61580786D01*
X96776681Y-61419039D01*
X96789527Y-61409182D01*
X96993498Y-61272893D01*
X97007533Y-61264790D01*
X97227547Y-61156291D01*
X97242512Y-61150093D01*
X97406762Y-61094337D01*
X97474797Y-61071243D01*
X97490464Y-61067045D01*
X97731048Y-61019190D01*
X97747102Y-61017075D01*
X97995957Y-61000765D01*
X98004067Y-61000500D01*
X98065892Y-61000500D01*
X147434108Y-61000500D01*
X147495933Y-61000500D01*
X147504043Y-61000765D01*
G37*
%TD.AperFunction*%
%TD*%
%TA.AperFunction,Conductor*%
%TO.N,+5V*%
G36*
X130343039Y-82419685D02*
G01*
X130388794Y-82472489D01*
X130400000Y-82524000D01*
X130400000Y-83225500D01*
X130380315Y-83292539D01*
X130327511Y-83338294D01*
X130276000Y-83349500D01*
X129304604Y-83349500D01*
X129257155Y-83340062D01*
X129233497Y-83330263D01*
X129233493Y-83330262D01*
X129233488Y-83330260D01*
X129078845Y-83299500D01*
X129078842Y-83299500D01*
X128921158Y-83299500D01*
X128921155Y-83299500D01*
X128766510Y-83330261D01*
X128766498Y-83330264D01*
X128620827Y-83390602D01*
X128620814Y-83390609D01*
X128489711Y-83478210D01*
X128489707Y-83478213D01*
X128378213Y-83589707D01*
X128378210Y-83589711D01*
X128290609Y-83720814D01*
X128290602Y-83720827D01*
X128230264Y-83866498D01*
X128230261Y-83866510D01*
X128199500Y-84021153D01*
X128199500Y-84178846D01*
X128230261Y-84333489D01*
X128230264Y-84333501D01*
X128290602Y-84479172D01*
X128290609Y-84479185D01*
X128378210Y-84610288D01*
X128378213Y-84610292D01*
X128489707Y-84721786D01*
X128489711Y-84721789D01*
X128620814Y-84809390D01*
X128620827Y-84809397D01*
X128766498Y-84869735D01*
X128766503Y-84869737D01*
X128921153Y-84900499D01*
X128921156Y-84900500D01*
X128967871Y-84900500D01*
X129034910Y-84920185D01*
X129080665Y-84972989D01*
X129090609Y-85042147D01*
X129061584Y-85105703D01*
X129060550Y-85106881D01*
X128800000Y-85400000D01*
X128800000Y-89174500D01*
X128780315Y-89241539D01*
X128727511Y-89287294D01*
X128676000Y-89298500D01*
X126478269Y-89298500D01*
X126411230Y-89278815D01*
X126409378Y-89277602D01*
X126279185Y-89190609D01*
X126279172Y-89190602D01*
X126133501Y-89130264D01*
X126133489Y-89130261D01*
X125978845Y-89099500D01*
X125978842Y-89099500D01*
X125821158Y-89099500D01*
X125821155Y-89099500D01*
X125666510Y-89130261D01*
X125666498Y-89130264D01*
X125520827Y-89190602D01*
X125520814Y-89190609D01*
X125389711Y-89278210D01*
X125389707Y-89278213D01*
X125304240Y-89363681D01*
X125242917Y-89397166D01*
X125216559Y-89400000D01*
X124124000Y-89400000D01*
X124056961Y-89380315D01*
X124011206Y-89327511D01*
X124000000Y-89276000D01*
X124000000Y-87824000D01*
X124019685Y-87756961D01*
X124072489Y-87711206D01*
X124124000Y-87700000D01*
X126800001Y-87700000D01*
X126800001Y-87699999D01*
X127600000Y-86600001D01*
X127600000Y-83683440D01*
X127619685Y-83616401D01*
X127636314Y-83595763D01*
X127721789Y-83510289D01*
X127809394Y-83379179D01*
X127869737Y-83233497D01*
X127900500Y-83078842D01*
X127900500Y-82921158D01*
X127900500Y-82921155D01*
X127900499Y-82921153D01*
X127869737Y-82766503D01*
X127835137Y-82682970D01*
X127809397Y-82620827D01*
X127809393Y-82620820D01*
X127790732Y-82592892D01*
X127769854Y-82526214D01*
X127788338Y-82458834D01*
X127840316Y-82412144D01*
X127893834Y-82400000D01*
X130276000Y-82400000D01*
X130343039Y-82419685D01*
G37*
%TD.AperFunction*%
%TD*%
%TA.AperFunction,Conductor*%
%TO.N,+3V3*%
G36*
X122943039Y-79019685D02*
G01*
X122988794Y-79072489D01*
X123000000Y-79124000D01*
X123000000Y-83500001D01*
X123999998Y-85499998D01*
X123999999Y-85499999D01*
X124000000Y-85500000D01*
X125876000Y-85500000D01*
X125943039Y-85519685D01*
X125988794Y-85572489D01*
X126000000Y-85624000D01*
X126000000Y-86876000D01*
X125980315Y-86943039D01*
X125927511Y-86988794D01*
X125876000Y-87000000D01*
X124000000Y-87000000D01*
X122727181Y-87636409D01*
X122671728Y-87649500D01*
X121326080Y-87649500D01*
X121181092Y-87678340D01*
X121181086Y-87678342D01*
X121044508Y-87734914D01*
X121044496Y-87734921D01*
X120995269Y-87767813D01*
X120921588Y-87817044D01*
X120921585Y-87817046D01*
X120862632Y-87876000D01*
X120774949Y-87963682D01*
X120713628Y-87997166D01*
X120687270Y-88000000D01*
X117624000Y-88000000D01*
X117556961Y-87980315D01*
X117511206Y-87927511D01*
X117500000Y-87876000D01*
X117500000Y-84056268D01*
X117519685Y-83989229D01*
X117542345Y-83962948D01*
X118071427Y-83500001D01*
X121500000Y-80500000D01*
X121500000Y-79124000D01*
X121519685Y-79056961D01*
X121572489Y-79011206D01*
X121624000Y-79000000D01*
X122876000Y-79000000D01*
X122943039Y-79019685D01*
G37*
%TD.AperFunction*%
%TD*%
M02*
