%TF.GenerationSoftware,KiCad,Pcbnew,9.0.3*%
%TF.CreationDate,2025-07-30T22:19:27+08:00*%
%TF.ProjectId,airspeed_BIO,61697273-7065-4656-945f-42494f2e6b69,rev?*%
%TF.SameCoordinates,Original*%
%TF.FileFunction,Paste,Top*%
%TF.FilePolarity,Positive*%
%FSLAX46Y46*%
G04 Gerber Fmt 4.6, Leading zero omitted, Abs format (unit mm)*
G04 Created by KiCad (PCBNEW 9.0.3) date 2025-07-30 22:19:27*
%MOMM*%
%LPD*%
G01*
G04 APERTURE LIST*
G04 Aperture macros list*
%AMRoundRect*
0 Rectangle with rounded corners*
0 $1 Rounding radius*
0 $2 $3 $4 $5 $6 $7 $8 $9 X,Y pos of 4 corners*
0 Add a 4 corners polygon primitive as box body*
4,1,4,$2,$3,$4,$5,$6,$7,$8,$9,$2,$3,0*
0 Add four circle primitives for the rounded corners*
1,1,$1+$1,$2,$3*
1,1,$1+$1,$4,$5*
1,1,$1+$1,$6,$7*
1,1,$1+$1,$8,$9*
0 Add four rect primitives between the rounded corners*
20,1,$1+$1,$2,$3,$4,$5,0*
20,1,$1+$1,$4,$5,$6,$7,0*
20,1,$1+$1,$6,$7,$8,$9,0*
20,1,$1+$1,$8,$9,$2,$3,0*%
%AMOutline4P*
0 Free polygon, 4 corners , with rotation*
0 The origin of the aperture is its center*
0 number of corners: always 4*
0 $1 to $8 corner X, Y*
0 $9 Rotation angle, in degrees counterclockwise*
0 create outline with 4 corners*
4,1,4,$1,$2,$3,$4,$5,$6,$7,$8,$1,$2,$9*%
%AMOutline5P*
0 Free polygon, 5 corners , with rotation*
0 The origin of the aperture is its center*
0 number of corners: always 5*
0 $1 to $10 corner X, Y*
0 $11 Rotation angle, in degrees counterclockwise*
0 create outline with 5 corners*
4,1,5,$1,$2,$3,$4,$5,$6,$7,$8,$9,$10,$1,$2,$11*%
%AMOutline6P*
0 Free polygon, 6 corners , with rotation*
0 The origin of the aperture is its center*
0 number of corners: always 6*
0 $1 to $12 corner X, Y*
0 $13 Rotation angle, in degrees counterclockwise*
0 create outline with 6 corners*
4,1,6,$1,$2,$3,$4,$5,$6,$7,$8,$9,$10,$11,$12,$1,$2,$13*%
%AMOutline7P*
0 Free polygon, 7 corners , with rotation*
0 The origin of the aperture is its center*
0 number of corners: always 7*
0 $1 to $14 corner X, Y*
0 $15 Rotation angle, in degrees counterclockwise*
0 create outline with 7 corners*
4,1,7,$1,$2,$3,$4,$5,$6,$7,$8,$9,$10,$11,$12,$13,$14,$1,$2,$15*%
%AMOutline8P*
0 Free polygon, 8 corners , with rotation*
0 The origin of the aperture is its center*
0 number of corners: always 8*
0 $1 to $16 corner X, Y*
0 $17 Rotation angle, in degrees counterclockwise*
0 create outline with 8 corners*
4,1,8,$1,$2,$3,$4,$5,$6,$7,$8,$9,$10,$11,$12,$13,$14,$15,$16,$1,$2,$17*%
%AMFreePoly0*
4,1,14,0.230680,0.111820,0.364320,-0.021820,0.377500,-0.053640,0.377500,-0.080000,0.364320,-0.111820,0.332500,-0.125000,-0.332500,-0.125000,-0.364320,-0.111820,-0.377500,-0.080000,-0.377500,0.080000,-0.364320,0.111820,-0.332500,0.125000,0.198860,0.125000,0.230680,0.111820,0.230680,0.111820,$1*%
%AMFreePoly1*
4,1,14,0.364320,0.111820,0.377500,0.080000,0.377500,0.053640,0.364320,0.021820,0.230680,-0.111820,0.198860,-0.125000,-0.332500,-0.125000,-0.364320,-0.111820,-0.377500,-0.080000,-0.377500,0.080000,-0.364320,0.111820,-0.332500,0.125000,0.332500,0.125000,0.364320,0.111820,0.364320,0.111820,$1*%
%AMFreePoly2*
4,1,14,0.111820,0.364320,0.125000,0.332500,0.125000,-0.332500,0.111820,-0.364320,0.080000,-0.377500,-0.080000,-0.377500,-0.111820,-0.364320,-0.125000,-0.332500,-0.125000,0.198860,-0.111820,0.230680,0.021820,0.364320,0.053640,0.377500,0.080000,0.377500,0.111820,0.364320,0.111820,0.364320,$1*%
%AMFreePoly3*
4,1,14,-0.021820,0.364320,0.111820,0.230680,0.125000,0.198860,0.125000,-0.332500,0.111820,-0.364320,0.080000,-0.377500,-0.080000,-0.377500,-0.111820,-0.364320,-0.125000,-0.332500,-0.125000,0.332500,-0.111820,0.364320,-0.080000,0.377500,-0.053640,0.377500,-0.021820,0.364320,-0.021820,0.364320,$1*%
%AMFreePoly4*
4,1,14,0.364320,0.111820,0.377500,0.080000,0.377500,-0.080000,0.364320,-0.111820,0.332500,-0.125000,-0.198860,-0.125000,-0.230680,-0.111820,-0.364320,0.021820,-0.377500,0.053640,-0.377500,0.080000,-0.364320,0.111820,-0.332500,0.125000,0.332500,0.125000,0.364320,0.111820,0.364320,0.111820,$1*%
%AMFreePoly5*
4,1,14,0.364320,0.111820,0.377500,0.080000,0.377500,-0.080000,0.364320,-0.111820,0.332500,-0.125000,-0.332500,-0.125000,-0.364320,-0.111820,-0.377500,-0.080000,-0.377500,-0.053640,-0.364320,-0.021820,-0.230680,0.111820,-0.198860,0.125000,0.332500,0.125000,0.364320,0.111820,0.364320,0.111820,$1*%
%AMFreePoly6*
4,1,14,0.111820,0.364320,0.125000,0.332500,0.125000,-0.198860,0.111820,-0.230680,-0.021820,-0.364320,-0.053640,-0.377500,-0.080000,-0.377500,-0.111820,-0.364320,-0.125000,-0.332500,-0.125000,0.332500,-0.111820,0.364320,-0.080000,0.377500,0.080000,0.377500,0.111820,0.364320,0.111820,0.364320,$1*%
%AMFreePoly7*
4,1,14,0.111820,0.364320,0.125000,0.332500,0.125000,-0.332500,0.111820,-0.364320,0.080000,-0.377500,0.053640,-0.377500,0.021820,-0.364320,-0.111820,-0.230680,-0.125000,-0.198860,-0.125000,0.332500,-0.111820,0.364320,-0.080000,0.377500,0.080000,0.377500,0.111820,0.364320,0.111820,0.364320,$1*%
G04 Aperture macros list end*
%ADD10RoundRect,0.200000X0.200000X0.275000X-0.200000X0.275000X-0.200000X-0.275000X0.200000X-0.275000X0*%
%ADD11RoundRect,0.200000X0.275000X-0.200000X0.275000X0.200000X-0.275000X0.200000X-0.275000X-0.200000X0*%
%ADD12RoundRect,0.225000X0.225000X0.250000X-0.225000X0.250000X-0.225000X-0.250000X0.225000X-0.250000X0*%
%ADD13RoundRect,0.225000X-0.250000X0.225000X-0.250000X-0.225000X0.250000X-0.225000X0.250000X0.225000X0*%
%ADD14RoundRect,0.200000X-0.275000X0.200000X-0.275000X-0.200000X0.275000X-0.200000X0.275000X0.200000X0*%
%ADD15RoundRect,0.250000X-0.475000X0.250000X-0.475000X-0.250000X0.475000X-0.250000X0.475000X0.250000X0*%
%ADD16RoundRect,0.200000X-0.200000X-0.275000X0.200000X-0.275000X0.200000X0.275000X-0.200000X0.275000X0*%
%ADD17RoundRect,0.225000X0.250000X-0.225000X0.250000X0.225000X-0.250000X0.225000X-0.250000X-0.225000X0*%
%ADD18R,1.700000X0.300000*%
%ADD19R,1.000000X0.200000*%
%ADD20R,0.375000X0.350000*%
%ADD21R,0.350000X0.375000*%
%ADD22Outline5P,-0.700000X0.575000X0.355000X0.575000X0.700000X0.230000X0.700000X-0.575000X-0.700000X-0.575000X270.000000*%
%ADD23R,1.150000X1.400000*%
%ADD24RoundRect,0.218750X-0.218750X-0.256250X0.218750X-0.256250X0.218750X0.256250X-0.218750X0.256250X0*%
%ADD25R,0.650000X1.050000*%
%ADD26RoundRect,0.218750X-0.256250X0.218750X-0.256250X-0.218750X0.256250X-0.218750X0.256250X0.218750X0*%
%ADD27RoundRect,0.150000X0.587500X0.150000X-0.587500X0.150000X-0.587500X-0.150000X0.587500X-0.150000X0*%
%ADD28RoundRect,0.225000X-0.225000X-0.250000X0.225000X-0.250000X0.225000X0.250000X-0.225000X0.250000X0*%
%ADD29RoundRect,0.218750X0.218750X0.256250X-0.218750X0.256250X-0.218750X-0.256250X0.218750X-0.256250X0*%
%ADD30RoundRect,0.150000X1.400000X0.350000X-1.400000X0.350000X-1.400000X-0.350000X1.400000X-0.350000X0*%
%ADD31Outline5P,-0.400000X0.125000X0.300000X0.125000X0.400000X0.025000X0.400000X-0.125000X-0.400000X-0.125000X0.000000*%
%ADD32Outline4P,-0.400000X0.125000X0.400000X0.125000X0.400000X-0.125000X-0.400000X-0.125000X0.000000*%
%ADD33Outline5P,-0.400000X0.125000X0.400000X0.125000X0.400000X-0.025000X0.300000X-0.125000X-0.400000X-0.125000X0.000000*%
%ADD34Outline5P,-0.125000X0.300000X-0.025000X0.400000X0.125000X0.400000X0.125000X-0.400000X-0.125000X-0.400000X0.000000*%
%ADD35Outline4P,-0.125000X0.400000X0.125000X0.400000X0.125000X-0.400000X-0.125000X-0.400000X0.000000*%
%ADD36Outline5P,-0.125000X0.400000X0.025000X0.400000X0.125000X0.300000X0.125000X-0.400000X-0.125000X-0.400000X0.000000*%
%ADD37Outline5P,-0.400000X0.125000X0.400000X0.125000X0.400000X-0.125000X-0.300000X-0.125000X-0.400000X-0.025000X0.000000*%
%ADD38Outline5P,-0.400000X0.025000X-0.300000X0.125000X0.400000X0.125000X0.400000X-0.125000X-0.400000X-0.125000X0.000000*%
%ADD39Outline5P,-0.125000X0.400000X0.125000X0.400000X0.125000X-0.300000X0.025000X-0.400000X-0.125000X-0.400000X0.000000*%
%ADD40Outline4P,-0.125000X0.750000X0.125000X0.750000X0.125000X-0.750000X-0.125000X-0.750000X0.000000*%
%ADD41Outline5P,-0.125000X0.400000X0.125000X0.400000X0.125000X-0.400000X-0.025000X-0.400000X-0.125000X-0.300000X0.000000*%
%ADD42R,0.650000X2.760000*%
%ADD43FreePoly0,0.000000*%
%ADD44RoundRect,0.062500X-0.375000X-0.062500X0.375000X-0.062500X0.375000X0.062500X-0.375000X0.062500X0*%
%ADD45FreePoly1,0.000000*%
%ADD46FreePoly2,0.000000*%
%ADD47RoundRect,0.062500X-0.062500X-0.375000X0.062500X-0.375000X0.062500X0.375000X-0.062500X0.375000X0*%
%ADD48FreePoly3,0.000000*%
%ADD49FreePoly4,0.000000*%
%ADD50FreePoly5,0.000000*%
%ADD51FreePoly6,0.000000*%
%ADD52FreePoly7,0.000000*%
%ADD53RoundRect,0.250000X-0.375000X-1.075000X0.375000X-1.075000X0.375000X1.075000X-0.375000X1.075000X0*%
%ADD54RoundRect,0.045000X0.105000X-0.205000X0.105000X0.205000X-0.105000X0.205000X-0.105000X-0.205000X0*%
%ADD55RoundRect,0.250000X-0.625000X0.312500X-0.625000X-0.312500X0.625000X-0.312500X0.625000X0.312500X0*%
G04 APERTURE END LIST*
D10*
%TO.C,R8*%
X132950000Y-73450000D03*
X131300000Y-73450000D03*
%TD*%
D11*
%TO.C,R6*%
X123600000Y-82200000D03*
X123600000Y-80550000D03*
%TD*%
D12*
%TO.C,C23*%
X104275000Y-82000000D03*
X102725000Y-82000000D03*
%TD*%
D13*
%TO.C,C20*%
X108000000Y-72450000D03*
X108000000Y-74000000D03*
%TD*%
%TO.C,C26*%
X113910000Y-80225000D03*
X113910000Y-81775000D03*
%TD*%
D14*
%TO.C,R7*%
X134200000Y-85275000D03*
X134200000Y-86925000D03*
%TD*%
D13*
%TO.C,C21*%
X117500000Y-64950000D03*
X117500000Y-66500000D03*
%TD*%
D12*
%TO.C,C19*%
X106275000Y-63470000D03*
X104725000Y-63470000D03*
%TD*%
D15*
%TO.C,C27*%
X121290000Y-73050000D03*
X121290000Y-74950000D03*
%TD*%
D16*
%TO.C,R10*%
X119500000Y-85400000D03*
X121150000Y-85400000D03*
%TD*%
D17*
%TO.C,C2*%
X132482500Y-80075000D03*
X132482500Y-78525000D03*
%TD*%
D18*
%TO.C,J1*%
X140400000Y-82550000D03*
X140400000Y-82050000D03*
X140400000Y-81550000D03*
X140400000Y-81050000D03*
X140400000Y-80550000D03*
X140400000Y-80050000D03*
X140400000Y-79550000D03*
X140400000Y-79050000D03*
X140400000Y-78550000D03*
X140400000Y-78050000D03*
X140400000Y-77550000D03*
X140400000Y-77050000D03*
D19*
X145230000Y-79800000D03*
X148330000Y-79800000D03*
%TD*%
D20*
%TO.C,U3*%
X111240000Y-72810000D03*
X111240000Y-73310000D03*
D21*
X111500000Y-73820000D03*
X112000000Y-73820000D03*
X112500000Y-73820000D03*
D20*
X112760000Y-73310000D03*
X112760000Y-72810000D03*
D21*
X112500000Y-72300000D03*
X112000000Y-72300000D03*
X111500000Y-72300000D03*
%TD*%
D22*
%TO.C,Y1*%
X102700000Y-77900000D03*
D23*
X102700000Y-80100000D03*
X104300000Y-80100000D03*
X104300000Y-77900000D03*
%TD*%
D12*
%TO.C,C10*%
X139775000Y-94000000D03*
X138225000Y-94000000D03*
%TD*%
D24*
%TO.C,RLED2*%
X97212500Y-68000000D03*
X98787500Y-68000000D03*
%TD*%
D15*
%TO.C,C28*%
X119000000Y-73050000D03*
X119000000Y-74950000D03*
%TD*%
D13*
%TO.C,C6*%
X136000000Y-90225000D03*
X136000000Y-91775000D03*
%TD*%
D25*
%TO.C,SW3*%
X97350000Y-80000000D03*
X97350000Y-75850000D03*
X99500000Y-80000000D03*
X99500000Y-75850000D03*
%TD*%
D16*
%TO.C,R9*%
X121100000Y-90400000D03*
X122750000Y-90400000D03*
%TD*%
D10*
%TO.C,R25*%
X147325000Y-69500000D03*
X145675000Y-69500000D03*
%TD*%
D26*
%TO.C,D2*%
X129800000Y-96212500D03*
X129800000Y-97787500D03*
%TD*%
D13*
%TO.C,C18*%
X119010000Y-64950000D03*
X119010000Y-66500000D03*
%TD*%
D16*
%TO.C,R20*%
X119575000Y-83300000D03*
X121225000Y-83300000D03*
%TD*%
D27*
%TO.C,Q1*%
X137000000Y-76000000D03*
X137000000Y-74100000D03*
X135125000Y-75050000D03*
%TD*%
D11*
%TO.C,R3*%
X123600000Y-85500000D03*
X123600000Y-83850000D03*
%TD*%
D13*
%TO.C,C14*%
X148512500Y-86025000D03*
X148512500Y-87575000D03*
%TD*%
D10*
%TO.C,R29*%
X98825000Y-72500000D03*
X97175000Y-72500000D03*
%TD*%
%TO.C,R26*%
X104325000Y-84000000D03*
X102675000Y-84000000D03*
%TD*%
D28*
%TO.C,C17*%
X111225000Y-69060000D03*
X112775000Y-69060000D03*
%TD*%
D13*
%TO.C,C25*%
X115500000Y-80225000D03*
X115500000Y-81775000D03*
%TD*%
D12*
%TO.C,C11*%
X139775000Y-92490000D03*
X138225000Y-92490000D03*
%TD*%
D29*
%TO.C,RLED1*%
X121210000Y-81596000D03*
X119635000Y-81596000D03*
%TD*%
D26*
%TO.C,D3*%
X127800000Y-96212500D03*
X127800000Y-97787500D03*
%TD*%
D28*
%TO.C,C15*%
X111225000Y-67500000D03*
X112775000Y-67500000D03*
%TD*%
D11*
%TO.C,R22*%
X144482500Y-87625000D03*
X144482500Y-85975000D03*
%TD*%
D10*
%TO.C,R27*%
X99450000Y-91925000D03*
X97800000Y-91925000D03*
%TD*%
D12*
%TO.C,C12*%
X139775000Y-91000000D03*
X138225000Y-91000000D03*
%TD*%
D14*
%TO.C,R13*%
X128100000Y-92475000D03*
X128100000Y-94125000D03*
%TD*%
D10*
%TO.C,R4*%
X132950000Y-75050000D03*
X131300000Y-75050000D03*
%TD*%
D16*
%TO.C,R14*%
X120470000Y-96095000D03*
X122120000Y-96095000D03*
%TD*%
D30*
%TO.C,U4*%
X134130000Y-69285000D03*
X134130000Y-67765000D03*
X134130000Y-66245000D03*
X134130000Y-64725000D03*
X121870000Y-64725000D03*
X121870000Y-66245000D03*
X121870000Y-67765000D03*
X121870000Y-69285000D03*
%TD*%
D31*
%TO.C,U1*%
X127800000Y-86550000D03*
D32*
X127800000Y-87050000D03*
X127800000Y-87550000D03*
X127800000Y-88050000D03*
X127800000Y-88550000D03*
D33*
X127800000Y-89050000D03*
D34*
X128450000Y-89700000D03*
D35*
X128950000Y-89700000D03*
X129450000Y-89700000D03*
X129950000Y-89700000D03*
X130450000Y-89700000D03*
D36*
X130950000Y-89700000D03*
D37*
X131600000Y-89050000D03*
D32*
X131600000Y-88550000D03*
X131600000Y-88050000D03*
X131600000Y-87550000D03*
X131600000Y-87050000D03*
D38*
X131600000Y-86550000D03*
D39*
X130950000Y-85900000D03*
D40*
X130450000Y-86250000D03*
X129950000Y-86250000D03*
X129450000Y-86250000D03*
X128950000Y-86250000D03*
D41*
X128450000Y-85900000D03*
%TD*%
D42*
%TO.C,J2*%
X106000000Y-97000000D03*
X106000000Y-92960000D03*
X107270000Y-97000000D03*
X107270000Y-92960000D03*
X108540000Y-97000000D03*
X108540000Y-92960000D03*
X109810000Y-97000000D03*
X109810000Y-92960000D03*
X111080000Y-97000000D03*
X111080000Y-92960000D03*
X112350000Y-97000000D03*
X112350000Y-92960000D03*
X113620000Y-97000000D03*
X113620000Y-92960000D03*
%TD*%
D14*
%TO.C,R21*%
X146982500Y-85975000D03*
X146982500Y-87625000D03*
%TD*%
D28*
%TO.C,C22*%
X102725000Y-76000000D03*
X104275000Y-76000000D03*
%TD*%
D43*
%TO.C,U6*%
X107802500Y-78500000D03*
D44*
X107862500Y-79000000D03*
X107862500Y-79500000D03*
X107862500Y-80000000D03*
X107862500Y-80500000D03*
X107862500Y-81000000D03*
D45*
X107802500Y-81500000D03*
D46*
X108300000Y-81997500D03*
D47*
X108800000Y-81937500D03*
X109300000Y-81937500D03*
X109800000Y-81937500D03*
X110300000Y-81937500D03*
X110800000Y-81937500D03*
D48*
X111300000Y-81997500D03*
D49*
X111797500Y-81500000D03*
D44*
X111737500Y-81000000D03*
X111737500Y-80500000D03*
X111737500Y-80000000D03*
X111737500Y-79500000D03*
X111737500Y-79000000D03*
D50*
X111797500Y-78500000D03*
D51*
X111300000Y-78002500D03*
D47*
X110800000Y-78062500D03*
X110300000Y-78062500D03*
X109800000Y-78062500D03*
X109300000Y-78062500D03*
X108800000Y-78062500D03*
D52*
X108300000Y-78002500D03*
%TD*%
D10*
%TO.C,R24*%
X143825000Y-69500000D03*
X142175000Y-69500000D03*
%TD*%
D12*
%TO.C,C4*%
X129950000Y-83000000D03*
X128400000Y-83000000D03*
%TD*%
D11*
%TO.C,R2*%
X125500000Y-85500000D03*
X125500000Y-83850000D03*
%TD*%
D17*
%TO.C,C1*%
X130992500Y-80075000D03*
X130992500Y-78525000D03*
%TD*%
D24*
%TO.C,YLED1*%
X97212500Y-71000000D03*
X98787500Y-71000000D03*
%TD*%
D28*
%TO.C,C5*%
X119550000Y-87000000D03*
X121100000Y-87000000D03*
%TD*%
D11*
%TO.C,R1*%
X136982500Y-80125000D03*
X136982500Y-78475000D03*
%TD*%
%TO.C,R23*%
X137600000Y-83125000D03*
X137600000Y-81475000D03*
%TD*%
D25*
%TO.C,SW2*%
X97350000Y-90000000D03*
X97350000Y-85850000D03*
X99500000Y-90000000D03*
X99500000Y-85850000D03*
%TD*%
D17*
%TO.C,C3*%
X133992500Y-80075000D03*
X133992500Y-78525000D03*
%TD*%
D53*
%TO.C,L1*%
X139000000Y-88500000D03*
X141800000Y-88500000D03*
%TD*%
D10*
%TO.C,R16*%
X122120000Y-94600000D03*
X120470000Y-94600000D03*
%TD*%
%TO.C,R28*%
X98825000Y-69500000D03*
X97175000Y-69500000D03*
%TD*%
D54*
%TO.C,U5*%
X105000000Y-69000000D03*
X105800000Y-69000000D03*
X105800000Y-67600000D03*
X105000000Y-67600000D03*
%TD*%
D16*
%TO.C,R11*%
X121100000Y-88800000D03*
X122750000Y-88800000D03*
%TD*%
D12*
%TO.C,C24*%
X99325000Y-83925000D03*
X97775000Y-83925000D03*
%TD*%
D14*
%TO.C,R12*%
X126500000Y-92475000D03*
X126500000Y-94125000D03*
%TD*%
D11*
%TO.C,R5*%
X125500000Y-82200000D03*
X125500000Y-80550000D03*
%TD*%
D55*
%TO.C,R15*%
X144700000Y-90437500D03*
X144700000Y-93362500D03*
%TD*%
D26*
%TO.C,D1*%
X125800000Y-96212500D03*
X125800000Y-97787500D03*
%TD*%
D12*
%TO.C,C16*%
X106275000Y-65000000D03*
X104725000Y-65000000D03*
%TD*%
M02*
