%TF.GenerationSoftware,KiCad,Pcbnew,9.0.3*%
%TF.CreationDate,2025-07-30T22:19:27+08:00*%
%TF.ProjectId,airspeed_BIO,61697273-7065-4656-945f-42494f2e6b69,rev?*%
%TF.SameCoordinates,Original*%
%TF.FileFunction,Soldermask,Bot*%
%TF.FilePolarity,Negative*%
%FSLAX46Y46*%
G04 Gerber Fmt 4.6, Leading zero omitted, Abs format (unit mm)*
G04 Created by KiCad (PCBNEW 9.0.3) date 2025-07-30 22:19:27*
%MOMM*%
%LPD*%
G01*
G04 APERTURE LIST*
G04 Aperture macros list*
%AMRoundRect*
0 Rectangle with rounded corners*
0 $1 Rounding radius*
0 $2 $3 $4 $5 $6 $7 $8 $9 X,Y pos of 4 corners*
0 Add a 4 corners polygon primitive as box body*
4,1,4,$2,$3,$4,$5,$6,$7,$8,$9,$2,$3,0*
0 Add four circle primitives for the rounded corners*
1,1,$1+$1,$2,$3*
1,1,$1+$1,$4,$5*
1,1,$1+$1,$6,$7*
1,1,$1+$1,$8,$9*
0 Add four rect primitives between the rounded corners*
20,1,$1+$1,$2,$3,$4,$5,0*
20,1,$1+$1,$4,$5,$6,$7,0*
20,1,$1+$1,$6,$7,$8,$9,0*
20,1,$1+$1,$8,$9,$2,$3,0*%
G04 Aperture macros list end*
%ADD10C,2.200000*%
%ADD11C,0.650000*%
%ADD12O,1.600000X1.000000*%
%ADD13RoundRect,0.250000X-0.600000X-0.750000X0.600000X-0.750000X0.600000X0.750000X-0.600000X0.750000X0*%
%ADD14O,1.700000X2.000000*%
%ADD15C,1.400000*%
%ADD16C,1.200000*%
%ADD17RoundRect,0.200000X0.275000X-0.200000X0.275000X0.200000X-0.275000X0.200000X-0.275000X-0.200000X0*%
%ADD18RoundRect,0.225000X-0.225000X-0.250000X0.225000X-0.250000X0.225000X0.250000X-0.225000X0.250000X0*%
%ADD19RoundRect,0.250000X-0.325000X-1.100000X0.325000X-1.100000X0.325000X1.100000X-0.325000X1.100000X0*%
%ADD20R,2.000000X1.000000*%
%ADD21RoundRect,0.375000X0.625000X0.375000X-0.625000X0.375000X-0.625000X-0.375000X0.625000X-0.375000X0*%
%ADD22RoundRect,0.500000X0.500000X1.400000X-0.500000X1.400000X-0.500000X-1.400000X0.500000X-1.400000X0*%
%ADD23RoundRect,0.250000X0.275000X0.250000X-0.275000X0.250000X-0.275000X-0.250000X0.275000X-0.250000X0*%
%ADD24RoundRect,0.250000X0.850000X0.275000X-0.850000X0.275000X-0.850000X-0.275000X0.850000X-0.275000X0*%
G04 APERTURE END LIST*
%TO.C,J4*%
G36*
X113465000Y-63060000D02*
G01*
X111375000Y-63060000D01*
X111375000Y-64940000D01*
X113465000Y-64940000D01*
X113465000Y-63060000D01*
G37*
%TD*%
D10*
%TO.C,H1*%
X147500000Y-63000000D03*
%TD*%
D11*
%TO.C,J1*%
X141900000Y-77000000D03*
X142600000Y-77400000D03*
X142600000Y-78200000D03*
X141900000Y-78600000D03*
X142600000Y-79000000D03*
X141900000Y-79400000D03*
X141900000Y-80200000D03*
X142600000Y-80600000D03*
X141900000Y-81000000D03*
X142600000Y-81400000D03*
X142600000Y-82200000D03*
X141900000Y-82600000D03*
D12*
X143050000Y-84070000D03*
X147780000Y-84070000D03*
D11*
X141900000Y-81800000D03*
X141900000Y-77800000D03*
D12*
X143050000Y-75530000D03*
X147780000Y-75530000D03*
%TD*%
D10*
%TO.C,H3*%
X98000000Y-63000000D03*
%TD*%
D13*
%TO.C,J3*%
X137850000Y-97250000D03*
D14*
X140350000Y-97250000D03*
%TD*%
D15*
%TO.C,TH1*%
X120295000Y-97900000D03*
X122195000Y-97900000D03*
%TD*%
D16*
%TO.C,SW1*%
X142442500Y-72800000D03*
X144982500Y-72800000D03*
X147522500Y-72800000D03*
%TD*%
D10*
%TO.C,H4*%
X147500000Y-97500000D03*
%TD*%
%TO.C,H2*%
X98000000Y-97500000D03*
%TD*%
D17*
%TO.C,R19*%
X127800000Y-97825000D03*
X127800000Y-96175000D03*
%TD*%
%TO.C,R17*%
X125800000Y-97825000D03*
X125800000Y-96175000D03*
%TD*%
D18*
%TO.C,C9*%
X128400000Y-88900000D03*
X129950000Y-88900000D03*
%TD*%
D19*
%TO.C,C13*%
X122150000Y-80400000D03*
X125100000Y-80400000D03*
%TD*%
D20*
%TO.C,U7*%
X115740000Y-68750000D03*
X115740000Y-70750000D03*
X115740000Y-72750000D03*
X115740000Y-74750000D03*
X115740000Y-76750000D03*
X115740000Y-78750000D03*
X115740000Y-82750000D03*
X115740000Y-84750000D03*
X115740000Y-86750000D03*
X115740000Y-88750000D03*
X115740000Y-90750000D03*
X115740000Y-92750000D03*
X99740000Y-92750000D03*
X99740000Y-90750000D03*
X99740000Y-88750000D03*
X99740000Y-86750000D03*
X99740000Y-84750000D03*
X99740000Y-82750000D03*
X99740000Y-78750000D03*
X99740000Y-76750000D03*
X99740000Y-74750000D03*
X99740000Y-72750000D03*
X99740000Y-70750000D03*
%TD*%
D21*
%TO.C,U2*%
X125050000Y-83800000D03*
X125050000Y-86100000D03*
D22*
X118750000Y-86100000D03*
D21*
X125050000Y-88400000D03*
%TD*%
D18*
%TO.C,C8*%
X128400000Y-85890000D03*
X129950000Y-85890000D03*
%TD*%
D17*
%TO.C,R18*%
X129800000Y-97825000D03*
X129800000Y-96175000D03*
%TD*%
D23*
%TO.C,J4*%
X114000000Y-64000000D03*
D24*
X112475000Y-65475000D03*
X112475000Y-62525000D03*
%TD*%
D18*
%TO.C,C7*%
X128400000Y-87400000D03*
X129950000Y-87400000D03*
%TD*%
M02*
