%TF.GenerationSoftware,KiCad,Pcbnew,9.0.3*%
%TF.CreationDate,2025-07-30T22:19:27+08:00*%
%TF.ProjectId,airspeed_BIO,61697273-7065-4656-945f-42494f2e6b69,rev?*%
%TF.SameCoordinates,Original*%
%TF.FileFunction,Paste,Bot*%
%TF.FilePolarity,Positive*%
%FSLAX46Y46*%
G04 Gerber Fmt 4.6, Leading zero omitted, Abs format (unit mm)*
G04 Created by KiCad (PCBNEW 9.0.3) date 2025-07-30 22:19:27*
%MOMM*%
%LPD*%
G01*
G04 APERTURE LIST*
G04 Aperture macros list*
%AMRoundRect*
0 Rectangle with rounded corners*
0 $1 Rounding radius*
0 $2 $3 $4 $5 $6 $7 $8 $9 X,Y pos of 4 corners*
0 Add a 4 corners polygon primitive as box body*
4,1,4,$2,$3,$4,$5,$6,$7,$8,$9,$2,$3,0*
0 Add four circle primitives for the rounded corners*
1,1,$1+$1,$2,$3*
1,1,$1+$1,$4,$5*
1,1,$1+$1,$6,$7*
1,1,$1+$1,$8,$9*
0 Add four rect primitives between the rounded corners*
20,1,$1+$1,$2,$3,$4,$5,0*
20,1,$1+$1,$4,$5,$6,$7,0*
20,1,$1+$1,$6,$7,$8,$9,0*
20,1,$1+$1,$8,$9,$2,$3,0*%
G04 Aperture macros list end*
%ADD10RoundRect,0.200000X0.275000X-0.200000X0.275000X0.200000X-0.275000X0.200000X-0.275000X-0.200000X0*%
%ADD11RoundRect,0.225000X-0.225000X-0.250000X0.225000X-0.250000X0.225000X0.250000X-0.225000X0.250000X0*%
%ADD12RoundRect,0.250000X-0.325000X-1.100000X0.325000X-1.100000X0.325000X1.100000X-0.325000X1.100000X0*%
%ADD13R,2.000000X1.000000*%
%ADD14RoundRect,0.375000X0.625000X0.375000X-0.625000X0.375000X-0.625000X-0.375000X0.625000X-0.375000X0*%
%ADD15RoundRect,0.500000X0.500000X1.400000X-0.500000X1.400000X-0.500000X-1.400000X0.500000X-1.400000X0*%
%ADD16RoundRect,0.250000X0.275000X0.250000X-0.275000X0.250000X-0.275000X-0.250000X0.275000X-0.250000X0*%
%ADD17RoundRect,0.250000X0.850000X0.275000X-0.850000X0.275000X-0.850000X-0.275000X0.850000X-0.275000X0*%
G04 APERTURE END LIST*
D10*
%TO.C,R19*%
X127800000Y-97825000D03*
X127800000Y-96175000D03*
%TD*%
%TO.C,R17*%
X125800000Y-97825000D03*
X125800000Y-96175000D03*
%TD*%
D11*
%TO.C,C9*%
X128400000Y-88900000D03*
X129950000Y-88900000D03*
%TD*%
D12*
%TO.C,C13*%
X122150000Y-80400000D03*
X125100000Y-80400000D03*
%TD*%
D13*
%TO.C,U7*%
X115740000Y-68750000D03*
X115740000Y-70750000D03*
X115740000Y-72750000D03*
X115740000Y-74750000D03*
X115740000Y-76750000D03*
X115740000Y-78750000D03*
X115740000Y-82750000D03*
X115740000Y-84750000D03*
X115740000Y-86750000D03*
X115740000Y-88750000D03*
X115740000Y-90750000D03*
X115740000Y-92750000D03*
X99740000Y-92750000D03*
X99740000Y-90750000D03*
X99740000Y-88750000D03*
X99740000Y-86750000D03*
X99740000Y-84750000D03*
X99740000Y-82750000D03*
X99740000Y-78750000D03*
X99740000Y-76750000D03*
X99740000Y-74750000D03*
X99740000Y-72750000D03*
X99740000Y-70750000D03*
%TD*%
D14*
%TO.C,U2*%
X125050000Y-83800000D03*
X125050000Y-86100000D03*
D15*
X118750000Y-86100000D03*
D14*
X125050000Y-88400000D03*
%TD*%
D11*
%TO.C,C8*%
X128400000Y-85890000D03*
X129950000Y-85890000D03*
%TD*%
D10*
%TO.C,R18*%
X129800000Y-97825000D03*
X129800000Y-96175000D03*
%TD*%
D16*
%TO.C,J4*%
X114000000Y-64000000D03*
D17*
X112475000Y-65475000D03*
X112475000Y-62525000D03*
%TD*%
D11*
%TO.C,C7*%
X128400000Y-87400000D03*
X129950000Y-87400000D03*
%TD*%
M02*
